{"glyphs":{"0":{"ha":781,"x_min":75,"x_max":738,"o":"m 75 342 q 185 759 75 599 q 474 919 296 919 q 668 826 599 919 q 738 564 738 732 q 627 147 738 307 q 339 -14 517 -14 q 144 79 213 -14 q 75 342 75 172 m 604 583 q 567 770 604 704 q 461 836 529 836 q 279 692 350 836 q 208 321 208 549 q 246 135 208 201 q 350 69 283 69 q 533 214 461 69 q 604 583 604 358 z "},"1":{"ha":526,"x_min":47,"x_max":432,"o":"m 419 75 l 397 -7 q 217 0 326 0 l 47 -7 l 50 63 l 174 85 q 181 114 175 90 q 200 190 197 172 l 279 728 l 114 646 l 86 704 q 281 846 263 832 q 353 917 301 861 l 368 933 l 432 917 q 375 592 385 661 l 322 232 q 310 85 318 204 l 419 75 z "},"2":{"ha":696,"x_min":13,"x_max":653,"o":"m 153 869 q 403 919 282 919 q 589 869 525 919 q 653 728 653 818 q 617 568 653 638 q 478 398 581 499 q 143 101 376 297 l 392 101 q 507 113 410 101 l 533 161 l 550 226 l 624 221 l 583 24 l 553 -4 q 392 0 424 0 l 17 0 l 13 101 q 427 503 336 396 q 518 700 518 610 q 482 803 518 764 q 381 842 446 842 q 246 803 315 842 q 222 732 228 763 l 217 669 l 140 665 l 153 869 z "},"3":{"ha":635,"x_min":-44,"x_max":578,"o":"m 118 879 q 346 919 238 919 q 516 870 454 919 q 578 731 578 821 q 526 572 578 640 q 382 465 475 503 q 506 389 463 442 q 549 263 549 336 q 385 -3 549 111 q -29 -146 222 -118 l -44 -72 q 286 51 157 -40 q 415 254 415 142 q 372 361 415 321 q 256 401 329 401 l 163 397 l 153 464 q 373 543 301 483 q 444 708 444 603 q 322 844 444 844 q 213 814 263 844 q 189 744 192 760 l 182 682 l 106 678 l 118 879 z "},"4":{"ha":715,"x_min":8,"x_max":675,"o":"m 592 1026 l 675 956 q 641 923 674 954 q 572 857 608 892 q 458 742 474 763 l 150 353 l 417 357 l 444 554 l 560 592 l 526 364 l 651 372 l 638 279 l 514 279 l 507 232 q 494 85 494 144 l 604 75 l 583 -7 q 406 0 515 0 l 219 -7 l 222 63 l 364 85 q 392 190 390 176 l 406 279 l 58 279 l 8 353 l 592 1026 z "},"5":{"ha":624,"x_min":-6,"x_max":624,"o":"m 336 794 l 249 794 l 189 493 q 300 506 254 506 q 495 449 425 506 q 565 285 565 392 q 411 -8 565 103 q 10 -146 257 -119 l -6 -72 q 432 261 432 6 q 388 374 432 335 q 274 413 343 413 q 129 394 206 413 l 82 424 l 172 881 l 201 906 l 294 906 l 624 919 l 618 826 q 336 794 376 794 z "},"6":{"ha":706,"x_min":54,"x_max":742,"o":"m 421 560 q 599 493 532 560 q 665 317 665 426 q 565 80 665 175 q 331 -15 465 -15 q 126 65 197 -15 q 54 269 54 146 q 99 511 54 392 q 227 738 144 631 q 442 926 310 844 q 735 1038 575 1007 l 742 964 q 523 874 621 933 q 363 743 425 814 q 260 589 301 672 q 185 285 185 440 q 224 128 185 193 q 342 64 263 64 q 477 138 422 64 q 532 294 532 211 q 495 427 532 376 q 396 478 458 478 q 310 471 356 478 l 313 538 q 421 560 371 560 z "},"7":{"ha":682,"x_min":104,"x_max":740,"o":"m 364 906 l 726 906 l 740 851 l 207 -146 l 104 -111 l 494 586 q 586 804 508 608 l 361 804 q 247 796 331 804 q 221 749 225 761 l 204 679 l 129 685 l 171 890 l 201 918 q 364 906 332 906 z "},"8":{"ha":701,"x_min":33,"x_max":676,"o":"m 263 482 q 136 688 136 568 q 226 877 136 807 q 428 947 317 947 q 608 894 539 947 q 676 749 676 840 q 475 482 676 599 q 635 258 635 388 q 536 57 635 128 q 311 -14 438 -14 q 109 40 185 -14 q 33 190 33 93 q 101 360 33 288 q 263 482 169 432 m 160 201 q 201 92 160 133 q 315 51 242 51 q 447 106 388 51 q 507 242 507 161 q 453 356 507 306 q 339 439 411 394 l 329 443 q 160 201 160 333 m 556 743 q 520 842 556 803 q 425 882 485 882 q 311 829 365 882 q 257 706 257 776 q 307 594 257 639 q 415 517 347 558 q 556 743 556 619 z "},"9":{"ha":708,"x_min":3,"x_max":686,"o":"m 322 344 q 140 410 208 344 q 71 585 71 475 q 171 823 71 726 q 406 919 271 919 q 614 838 542 919 q 686 631 686 756 q 646 390 686 507 q 527 165 606 274 q 317 -27 449 57 q 18 -149 185 -111 l 3 -76 q 263 44 153 -33 q 432 219 372 122 q 550 626 550 410 q 512 776 550 711 q 392 840 474 840 q 259 765 311 840 q 207 608 207 690 q 245 476 207 525 q 347 426 283 426 l 431 431 l 429 365 q 322 344 381 344 z "}," ":{"ha":311,"x_min":0,"x_max":0,"o":""},"!":{"ha":317,"x_min":33,"x_max":333,"o":"m 181 299 l 90 315 q 153 680 138 551 q 190 990 169 808 l 303 1011 l 333 990 q 271 747 289 822 q 196 313 221 539 l 181 299 m 119 165 q 183 96 183 165 q 158 20 183 54 q 96 -14 133 -14 q 33 54 33 -14 q 58 131 33 96 q 119 165 82 165 z "},"\"":{"ha":443,"x_min":142,"x_max":482,"o":"m 164 1050 l 288 1050 l 219 713 l 142 717 l 160 847 l 164 1050 m 358 1050 l 482 1050 l 414 713 l 336 717 l 354 847 l 358 1050 z "},"#":{"ha":792,"x_min":32,"x_max":799,"o":"m 547 304 l 732 307 l 719 208 l 519 208 l 451 -21 l 372 -7 l 436 208 l 281 208 l 213 -21 l 133 -7 l 197 208 l 32 208 l 44 300 l 225 301 l 275 469 l 97 468 l 111 567 l 303 567 l 371 794 l 450 781 l 386 567 l 542 567 l 610 794 l 689 781 l 625 567 l 799 567 l 783 475 l 597 472 l 547 304 m 358 471 l 308 303 l 464 304 l 514 472 l 358 471 z "},"$":{"ha":701,"x_min":39,"x_max":682,"o":"m 160 179 q 160 160 160 175 q 161 99 160 144 q 285 67 226 72 l 349 406 l 313 425 q 183 520 232 467 q 133 656 133 574 q 221 847 133 776 q 440 918 308 918 l 443 918 l 469 1054 l 514 1050 l 489 915 q 682 876 567 908 l 632 676 l 561 685 l 572 750 q 564 818 572 756 q 475 843 513 840 l 417 526 l 453 506 q 622 346 593 419 q 636 264 636 308 q 545 64 636 138 q 318 -14 454 -10 l 297 -128 l 250 -124 l 271 -12 q 147 8 206 -8 q 64 39 89 25 l 39 54 l 90 263 l 172 254 l 160 179 m 333 67 q 454 117 408 72 q 500 240 500 163 q 390 382 500 318 l 333 67 m 264 693 q 292 617 264 649 q 375 551 321 585 l 431 846 l 426 846 q 311 805 358 846 q 264 693 264 764 z "},"%":{"ha":1090,"x_min":110,"x_max":1000,"o":"m 292 -68 l 229 -24 l 832 999 l 894 958 l 292 -68 m 1000 272 q 932 69 1000 154 q 754 -15 864 -15 q 623 37 669 -15 q 576 176 576 89 q 644 381 576 294 q 822 467 713 467 q 953 414 907 467 q 1000 272 1000 361 m 811 393 q 714 325 749 393 q 679 176 679 257 q 765 58 679 58 q 864 126 831 58 q 897 275 897 193 q 811 393 897 393 m 533 731 q 465 528 533 613 q 288 443 397 443 q 156 495 203 443 q 110 635 110 547 q 178 839 110 753 q 356 925 246 925 q 487 872 440 925 q 533 731 533 819 m 344 851 q 247 783 282 851 q 213 635 213 715 q 299 517 213 517 q 397 584 364 517 q 431 733 431 651 q 344 851 431 851 z "},"&":{"ha":814,"x_min":35,"x_max":1060,"o":"m 215 -15 q 35 210 35 -15 q 90 427 35 311 q 226 621 144 543 q 381 699 308 699 q 561 578 561 699 q 475 451 561 515 q 689 563 589 501 q 690 601 690 576 q 633 867 690 740 l 761 906 q 790 724 790 785 q 786 625 790 663 q 983 783 900 703 l 1060 710 l 1051 668 q 771 532 925 613 q 563 143 721 301 q 215 -15 406 -15 m 278 86 q 515 206 399 86 q 674 481 632 325 q 408 356 525 404 q 157 283 290 308 q 154 229 154 247 q 182 118 154 150 q 278 86 210 86 m 347 617 q 250 539 301 617 q 172 357 199 461 q 450 550 450 426 q 428 602 450 588 q 347 617 406 617 z "},"'":{"ha":249,"x_min":142,"x_max":288,"o":"m 164 1050 l 288 1050 l 219 713 l 142 717 l 160 847 l 164 1050 z "},"(":{"ha":382,"x_min":81,"x_max":465,"o":"m 288 750 q 269 709 288 750 q 222 537 251 668 q 193 307 193 406 q 197 147 193 208 q 218 11 207 38 q 281 -114 221 0 l 301 -151 l 250 -187 q 81 296 81 10 q 167 716 79 517 q 428 1068 254 915 l 465 1032 q 435 1000 454 1021 q 370 906 417 979 q 288 750 324 832 z "},")":{"ha":382,"x_min":-31,"x_max":354,"o":"m 242 628 q 217 869 242 778 l 133 1032 l 185 1068 q 354 585 354 868 q 268 165 356 364 q 7 -187 181 -35 l -31 -151 q 59 -33 7 -114 q 147 131 111 49 q 213 344 183 213 q 242 613 242 475 q 242 628 242 621 z "},"*":{"ha":586,"x_min":131,"x_max":594,"o":"m 146 903 l 167 944 l 313 871 l 351 1035 l 396 1038 l 403 876 l 565 928 l 594 892 l 456 800 l 581 686 l 558 643 l 414 718 l 375 553 l 329 550 l 322 715 l 160 664 l 131 701 l 269 790 l 146 903 z "},"+":{"ha":778,"x_min":68,"x_max":756,"o":"m 461 307 l 424 0 l 319 0 l 360 306 l 68 303 l 82 407 l 374 407 l 415 710 l 513 710 l 474 407 l 756 407 l 742 310 l 461 307 z "},",":{"ha":283,"x_min":-33,"x_max":179,"o":"m 100 179 q 179 75 182 179 q 124 -92 179 -15 q -21 -189 68 -169 l -33 -144 q 76 -14 69 -104 q 25 6 43 -14 q 8 66 7 26 q 34 142 8 106 q 100 179 60 179 z "},"-":{"ha":392,"x_min":43,"x_max":364,"o":"m 43 303 l 56 401 l 364 401 l 342 303 l 43 303 z "},".":{"ha":274,"x_min":22,"x_max":185,"o":"m 114 179 q 185 103 185 179 q 158 22 185 58 q 92 -14 132 -14 q 22 61 22 -14 q 48 142 22 106 q 114 179 74 179 z "},"/":{"ha":522,"x_min":-31,"x_max":643,"o":"m 53 -93 l -31 -65 l 560 1074 l 643 1046 l 53 -93 z "},":":{"ha":275,"x_min":17,"x_max":239,"o":"m 168 665 q 239 589 239 665 q 213 508 239 544 q 146 472 186 472 q 76 547 76 472 q 102 628 76 592 q 168 665 128 665 m 108 179 q 179 103 179 179 q 153 22 179 58 q 86 -14 126 -14 q 17 61 17 -14 q 42 142 17 106 q 108 179 68 179 z "},";":{"ha":285,"x_min":-19,"x_max":250,"o":"m 179 665 q 250 589 250 665 q 224 508 250 544 q 157 472 197 472 q 88 547 88 472 q 113 628 88 592 q 179 665 139 665 m 114 179 q 193 75 196 179 q 138 -92 193 -15 q -7 -189 82 -169 l -19 -144 q 90 -14 83 -104 q 39 6 57 -14 q 22 66 21 26 q 48 142 22 106 q 114 179 74 179 z "},"<":{"ha":781,"x_min":161,"x_max":696,"o":"m 161 343 l 632 713 l 696 639 l 303 344 l 615 53 l 531 -21 l 161 343 z "},"=":{"ha":750,"x_min":38,"x_max":696,"o":"m 681 433 l 76 426 l 92 525 l 696 525 l 681 433 m 51 257 l 656 264 l 642 165 l 38 165 l 51 257 z "},">":{"ha":778,"x_min":121,"x_max":656,"o":"m 288 713 l 656 343 l 183 -21 l 121 53 l 514 344 l 204 639 l 288 713 z "},"?":{"ha":560,"x_min":78,"x_max":597,"o":"m 261 507 q 415 578 357 507 q 472 747 472 650 q 339 940 472 940 q 240 918 278 940 l 176 763 l 128 774 l 133 928 l 157 964 q 349 1010 268 1010 q 532 947 467 1010 q 597 768 597 883 q 500 525 597 618 q 254 432 403 432 q 246 432 250 432 l 235 313 l 218 299 l 129 315 l 149 489 l 193 513 q 261 507 235 507 m 164 165 q 228 96 228 165 q 203 20 228 54 q 140 -14 178 -14 q 78 54 78 -14 q 102 131 78 96 q 164 165 126 165 z "},"@":{"ha":1269,"x_min":72,"x_max":1250,"o":"m 521 -14 q 381 193 381 -14 q 429 417 381 297 q 550 617 478 536 q 686 699 622 699 q 780 690 715 699 q 857 681 844 682 l 936 699 l 968 678 q 923 476 939 551 q 893 288 907 400 q 879 125 879 175 q 879 67 879 75 q 1066 197 994 86 q 1138 482 1138 308 q 1028 757 1138 656 q 742 858 918 858 q 442 765 565 858 q 260 526 318 672 q 201 208 201 381 q 201 200 201 204 q 297 -101 201 7 q 588 -210 392 -210 q 824 -174 656 -210 l 882 -161 l 889 -206 q 576 -296 660 -296 q 204 -166 336 -296 q 72 203 72 -36 q 255 724 75 522 q 742 926 435 926 q 1112 814 974 926 q 1250 494 1250 701 q 1124 142 1250 288 q 792 -21 997 -4 l 758 0 q 792 240 774 88 q 662 56 733 125 q 521 -14 590 -14 m 667 624 q 558 479 615 624 q 501 206 501 335 q 519 107 501 144 q 564 69 536 69 q 663 150 604 69 q 768 351 721 231 q 826 575 815 471 q 667 624 729 624 z "},"A":{"ha":894,"x_min":-32,"x_max":850,"o":"m 850 75 l 833 0 l 697 0 l 500 -7 l 506 61 l 607 89 l 593 239 l 578 322 l 283 322 l 219 176 l 193 89 l 285 75 l 268 0 l 150 0 l -32 -7 l -28 61 l 60 85 l 138 222 l 485 979 l 568 993 l 735 207 l 769 89 l 850 75 m 492 774 l 318 392 l 561 397 l 492 774 z "},"B":{"ha":826,"x_min":21,"x_max":788,"o":"m 313 979 l 542 993 q 716 938 644 993 q 788 784 788 882 q 722 612 788 686 q 557 514 657 538 l 556 504 q 702 434 647 490 q 757 289 757 378 q 666 75 757 157 q 442 -7 575 -7 q 165 0 442 -7 l 21 -7 l 24 63 l 129 85 q 157 190 150 154 l 247 789 q 250 894 250 813 l 154 911 l 172 986 q 313 979 274 981 m 400 74 q 556 133 496 74 q 617 286 617 192 q 560 424 617 381 q 413 468 503 468 l 397 468 l 418 547 l 428 547 q 591 606 525 547 q 657 768 657 665 q 619 877 657 836 q 526 918 582 918 q 401 910 471 918 q 367 747 379 836 l 289 232 q 275 82 275 131 q 400 74 342 74 z "},"C":{"ha":824,"x_min":68,"x_max":853,"o":"m 446 -21 q 167 91 267 -21 q 68 390 68 203 q 203 829 68 658 q 581 1000 339 1000 q 822 961 686 1000 q 853 953 847 954 l 810 747 l 729 753 l 739 818 q 739 833 739 821 q 733 888 739 844 q 569 919 644 919 q 375 844 458 919 q 251 651 292 768 q 211 390 211 533 q 276 153 211 246 q 456 60 340 60 q 629 90 528 60 q 660 168 657 154 l 672 233 l 753 236 l 731 26 q 670 10 694 14 q 617 -1 646 6 q 575 -10 589 -8 q 536 -14 561 -11 q 446 -21 492 -21 z "},"D":{"ha":972,"x_min":13,"x_max":946,"o":"m 414 -8 l 171 0 l 13 -7 l 15 63 l 125 85 q 153 190 146 154 l 240 789 q 243 894 243 813 l 142 911 l 160 986 q 292 979 244 982 q 405 987 326 981 q 532 993 483 993 q 837 883 728 993 q 946 581 946 772 q 802 155 946 318 q 414 -8 658 -8 m 535 910 q 392 903 450 910 q 360 747 372 826 l 285 232 q 271 110 271 135 q 272 79 271 85 q 426 74 339 74 q 642 144 553 74 q 808 572 808 281 q 740 816 808 722 q 535 910 671 910 z "},"E":{"ha":794,"x_min":13,"x_max":796,"o":"m 314 979 l 618 979 l 774 993 l 796 968 l 778 779 l 699 772 q 697 840 699 817 q 675 894 694 863 q 567 901 603 901 l 392 901 q 360 747 368 804 l 331 550 q 388 547 375 547 l 485 547 l 567 560 l 592 651 l 654 644 q 636 528 640 556 l 618 376 l 551 368 l 553 461 q 447 469 474 469 l 376 469 q 318 465 353 469 l 285 232 q 272 79 272 149 l 464 79 q 583 92 514 79 q 618 143 614 131 q 653 236 644 207 l 726 229 l 675 19 l 646 -6 q 493 0 521 0 l 171 0 l 13 -7 l 15 63 l 125 85 q 153 190 146 154 l 240 789 q 243 894 243 813 l 142 911 l 160 986 q 314 979 286 979 z "},"F":{"ha":744,"x_min":13,"x_max":796,"o":"m 567 901 l 392 901 q 360 747 368 804 l 329 539 q 386 536 374 536 l 483 536 l 565 549 l 590 640 l 653 633 q 635 517 638 544 l 617 365 l 549 357 l 551 450 q 444 458 472 458 l 375 458 q 317 454 353 458 l 285 232 q 272 85 272 144 l 406 75 l 385 -7 q 171 0 281 0 l 13 -7 l 15 63 l 125 85 q 153 190 146 154 l 240 789 q 243 894 243 813 l 142 911 l 160 986 q 314 979 286 979 l 618 979 l 774 993 l 796 968 l 778 779 l 699 772 q 697 840 699 817 q 675 894 694 863 q 567 901 603 901 z "},"G":{"ha":897,"x_min":68,"x_max":893,"o":"m 603 1000 q 893 953 710 1000 l 849 747 l 771 756 l 779 818 q 781 835 781 822 q 774 886 781 847 q 588 919 668 919 q 310 767 411 919 q 210 399 210 615 q 280 154 210 249 q 476 60 350 60 q 653 88 549 60 q 682 178 679 165 l 696 272 l 696 371 l 556 382 l 574 463 l 724 463 l 822 467 l 843 443 q 800 231 810 300 l 771 26 q 736 18 763 25 q 699 9 710 11 q 665 1 689 7 q 627 -6 640 -4 q 591 -12 614 -8 q 550 -17 568 -15 q 468 -21 499 -21 q 173 92 278 -21 q 68 394 68 206 q 210 831 68 661 q 603 1000 351 1000 z "},"H":{"ha":1044,"x_min":13,"x_max":1072,"o":"m 1072 986 l 1065 904 l 960 894 q 929 747 940 828 l 854 232 q 842 85 842 144 l 960 75 l 939 -7 q 740 0 850 0 l 582 -7 l 585 63 l 694 85 q 703 114 696 90 q 721 190 718 172 l 760 454 l 317 454 l 285 232 q 272 85 272 144 l 392 75 l 369 -7 q 171 0 281 0 l 13 -7 l 15 63 l 125 85 q 153 190 146 154 l 240 789 q 243 894 243 813 l 142 911 l 160 986 q 314 979 286 979 l 503 986 l 497 904 l 390 894 q 360 747 371 828 l 328 525 l 771 532 l 808 789 q 813 894 813 813 l 711 911 l 729 986 q 883 979 856 979 l 1072 986 z "},"I":{"ha":492,"x_min":21,"x_max":511,"o":"m 511 986 l 504 904 l 399 894 q 368 747 379 828 l 293 232 q 281 85 281 144 l 399 75 l 378 -7 q 179 0 289 0 l 21 -7 l 24 63 l 133 85 q 142 114 135 90 q 160 190 157 172 l 247 789 q 251 894 251 813 l 150 911 l 168 986 q 322 979 294 979 l 511 986 z "},"J":{"ha":450,"x_min":-25,"x_max":497,"o":"m 490 904 l 385 894 q 354 747 365 828 l 243 -14 q 18 -278 238 -56 l -25 -247 q 121 15 117 -12 l 233 789 q 238 894 238 813 l 136 911 l 154 986 q 308 979 281 979 l 497 986 l 490 904 z "},"K":{"ha":943,"x_min":13,"x_max":954,"o":"m 892 75 l 871 -7 q 678 0 788 0 l 507 -7 l 510 63 l 592 82 q 518 228 542 192 l 336 490 l 625 801 l 690 896 l 621 911 l 639 986 q 781 979 751 979 l 954 986 l 949 904 l 846 894 q 690 758 781 840 l 476 514 q 578 369 490 493 q 711 179 667 244 q 800 85 728 157 l 892 75 m 503 986 l 496 904 l 390 894 q 360 747 371 828 l 285 232 q 272 85 272 144 l 390 75 l 369 -7 q 171 0 281 0 l 13 -7 l 17 63 l 125 85 q 153 190 146 154 l 240 789 q 243 894 243 813 l 143 911 l 160 986 q 314 979 286 979 l 503 986 z "},"L":{"ha":721,"x_min":13,"x_max":692,"o":"m 272 79 l 429 79 q 549 92 481 79 q 583 143 581 132 q 617 236 610 210 l 692 229 l 640 19 l 611 -6 q 458 0 485 0 l 171 0 l 13 -7 l 15 63 l 125 85 q 153 190 146 154 l 240 789 q 243 894 243 813 l 142 911 l 160 986 q 314 979 286 979 l 503 986 l 497 904 l 390 894 q 360 747 371 828 l 285 232 q 272 79 272 147 z "},"M":{"ha":1253,"x_min":-7,"x_max":1249,"o":"m 1000 979 l 1039 979 l 1249 986 l 1242 904 l 1133 894 q 1114 790 1122 861 l 1071 183 l 1078 85 l 1185 75 l 1165 -7 q 967 0 1076 0 l 807 -7 l 810 63 l 918 85 q 946 225 943 213 l 994 811 l 583 0 l 532 0 l 357 811 l 240 225 q 226 85 231 161 l 333 75 l 311 -7 q 138 0 244 0 l -7 -7 l -4 63 l 104 85 q 140 183 135 164 l 265 790 l 275 894 l 167 911 l 185 986 l 368 981 l 449 981 l 469 951 q 508 735 500 768 l 614 243 l 868 746 l 969 951 l 1000 979 z "},"N":{"ha":1028,"x_min":13,"x_max":1094,"o":"m 1094 986 l 1090 913 l 982 890 q 939 733 949 801 l 829 -10 l 743 -10 l 331 772 l 253 232 q 240 85 240 157 l 347 75 l 325 -7 q 158 0 268 0 l 13 -7 l 15 63 l 125 85 q 153 190 146 154 l 240 789 q 243 894 243 811 l 139 911 l 156 986 q 311 979 282 979 l 374 981 l 396 951 q 494 736 479 767 l 771 226 l 851 775 q 856 890 856 808 l 751 899 l 771 982 l 882 979 l 1094 986 z "},"O":{"ha":999,"x_min":68,"x_max":974,"o":"m 974 583 q 835 149 974 318 q 450 -21 697 -21 q 167 92 265 -21 q 68 394 68 204 q 206 831 68 661 q 592 1000 344 1000 q 875 887 776 1000 q 974 583 974 774 m 384 849 q 341 811 384 849 q 258 653 299 772 q 217 388 217 533 q 278 147 217 242 q 455 53 339 53 q 656 129 571 53 q 783 325 742 206 q 825 591 825 444 q 765 832 825 738 q 587 926 704 926 q 384 849 469 926 z "},"P":{"ha":792,"x_min":13,"x_max":808,"o":"m 292 979 l 532 993 q 733 931 658 993 q 808 749 808 868 q 703 496 808 588 q 442 404 599 404 q 310 407 393 404 l 285 232 q 272 85 272 144 l 397 75 l 375 -7 q 171 0 281 0 l 13 -7 l 15 63 l 125 85 q 153 190 146 154 l 240 789 q 243 894 243 813 l 142 911 l 160 986 q 292 979 246 981 m 410 474 q 604 542 532 474 q 676 736 676 610 q 624 876 676 828 q 478 924 572 924 q 394 917 453 924 q 360 747 372 833 l 321 479 q 410 474 388 474 z "},"Q":{"ha":1010,"x_min":68,"x_max":974,"o":"m 449 -21 q 166 92 264 -21 q 68 394 68 204 q 206 831 68 661 q 592 1000 344 1000 q 875 887 776 1000 q 974 571 974 774 q 878 212 974 368 q 607 1 783 56 l 711 -83 q 864 -161 726 -96 l 910 -183 l 810 -311 l 499 -18 q 449 -21 465 -21 m 384 849 q 341 811 384 849 q 258 653 299 772 q 217 388 217 533 q 278 147 217 242 q 460 53 340 53 q 727 209 629 53 q 825 585 825 365 q 765 832 825 738 q 587 926 704 926 q 384 849 469 926 z "},"R":{"ha":875,"x_min":13,"x_max":824,"o":"m 297 979 l 535 993 q 738 932 663 993 q 813 752 813 871 q 747 551 813 633 q 572 436 681 468 q 660 213 635 265 q 728 85 686 161 l 824 75 l 803 -7 q 588 0 697 0 q 538 161 550 128 l 442 418 q 314 421 394 418 l 286 232 q 274 85 274 144 l 394 75 l 372 -7 q 172 0 283 0 l 13 -7 l 15 63 l 126 85 q 154 190 147 154 l 243 789 q 246 894 246 813 l 143 911 l 161 986 q 297 979 251 982 m 481 924 q 399 915 468 924 q 363 747 378 844 l 325 494 q 429 488 390 488 q 615 552 550 488 q 681 742 681 617 q 628 877 681 831 q 481 924 575 924 z "},"S":{"ha":754,"x_min":31,"x_max":732,"o":"m 171 258 q 160 164 160 189 q 163 100 160 139 q 334 63 246 63 q 478 115 422 63 q 533 256 533 167 q 392 428 533 349 q 274 496 333 461 q 174 585 215 531 q 132 711 132 640 q 225 922 132 844 q 461 1000 318 1000 q 732 956 565 1000 l 682 746 l 603 754 q 613 822 613 815 q 606 893 613 828 q 460 924 543 924 q 326 878 378 924 q 275 753 275 832 q 419 583 275 661 q 539 514 479 550 q 641 420 599 478 q 683 288 683 363 q 580 60 683 140 q 321 -21 476 -21 q 168 -2 240 -21 q 64 35 96 17 l 31 53 l 82 267 l 171 258 z "},"T":{"ha":803,"x_min":75,"x_max":872,"o":"m 643 901 l 556 901 q 524 747 535 819 l 449 232 q 436 85 444 204 l 556 75 l 533 -7 q 336 0 444 0 l 176 -7 l 181 63 l 289 85 q 317 190 310 154 l 404 789 q 408 901 408 826 l 324 901 q 214 894 290 901 q 180 849 183 860 q 153 761 176 838 l 75 768 l 114 968 l 143 993 q 294 979 268 979 l 694 979 l 850 993 l 872 968 l 851 768 l 772 761 q 771 844 772 826 q 750 894 769 863 q 643 901 678 901 z "},"U":{"ha":982,"x_min":107,"x_max":1044,"o":"m 717 83 q 665 31 717 83 q 443 -21 614 -21 q 196 83 272 -21 q 139 285 139 163 q 144 369 139 325 l 206 782 q 210 894 210 817 l 107 911 l 124 986 q 278 979 250 979 l 476 986 l 469 904 l 363 894 q 331 740 344 829 l 276 369 q 271 294 271 329 q 304 150 271 208 q 465 68 351 68 q 652 151 579 68 q 744 369 725 233 l 806 782 q 808 894 808 806 l 706 911 l 724 986 q 865 979 836 979 l 1044 986 l 1039 904 l 932 894 q 899 740 915 846 l 844 369 q 717 83 819 188 z "},"V":{"ha":935,"x_min":81,"x_max":1017,"o":"m 386 0 l 207 772 q 175 872 193 828 l 167 890 l 81 904 l 99 979 l 244 979 l 447 986 l 442 918 l 332 890 q 350 740 332 819 l 468 206 l 754 803 l 782 890 l 682 904 l 700 979 l 822 979 l 1017 986 l 1011 918 l 918 894 q 836 757 872 832 l 472 0 l 386 0 z "},"W":{"ha":1363,"x_min":83,"x_max":1449,"o":"m 1444 918 l 1350 894 q 1268 757 1293 811 l 939 0 l 854 0 l 731 703 l 428 0 l 342 0 l 206 772 q 176 874 197 822 l 169 890 l 83 904 l 101 979 l 247 979 l 450 986 l 444 918 l 335 890 q 349 740 339 811 l 424 206 l 744 951 l 819 951 l 936 206 l 1188 803 l 1214 890 l 1115 904 l 1132 979 l 1254 979 l 1449 986 l 1444 918 z "},"X":{"ha":967,"x_min":-21,"x_max":1003,"o":"m 432 493 l 279 775 l 213 890 l 107 904 l 128 981 q 247 979 219 979 l 501 986 l 497 921 l 389 890 q 426 771 413 799 l 526 586 l 686 803 q 743 890 696 815 l 643 904 l 663 981 q 772 979 733 979 l 1003 986 l 1000 921 l 904 899 q 783 790 808 818 l 569 511 l 749 183 q 817 89 769 150 l 919 75 l 899 -1 q 785 0 811 0 l 542 -7 l 544 58 l 635 83 q 592 197 615 158 l 474 418 l 288 183 q 226 89 268 158 l 331 75 l 310 -1 q 199 0 232 0 l -21 -7 l -18 58 l 67 82 q 217 228 192 197 l 432 493 z "},"Y":{"ha":896,"x_min":89,"x_max":961,"o":"m 957 918 l 863 894 q 757 757 803 829 l 513 381 l 492 232 q 479 85 479 144 l 597 75 l 576 -7 q 378 0 488 0 l 219 -7 l 222 63 l 332 85 q 339 114 333 90 q 358 190 356 172 l 383 358 l 233 772 q 186 874 218 819 l 176 890 l 89 904 l 107 979 l 253 979 l 456 986 l 451 918 l 342 890 q 376 740 347 822 l 475 478 l 676 803 l 725 890 l 628 904 l 644 979 l 767 979 l 961 986 l 957 918 z "},"Z":{"ha":754,"x_min":0,"x_max":775,"o":"m 361 897 q 244 890 317 897 l 215 843 q 183 726 193 775 l 106 733 l 146 968 l 175 993 q 326 979 300 979 l 775 979 l 775 901 l 600 686 l 292 265 l 171 82 l 442 82 q 561 94 492 82 q 601 156 589 125 q 628 250 613 188 l 703 243 l 654 19 l 624 -6 q 471 0 499 0 l 0 0 l 1 79 q 181 304 132 238 l 490 722 l 606 897 l 361 897 z "},"[":{"ha":371,"x_min":57,"x_max":474,"o":"m 194 56 q 190 -13 190 25 q 192 -75 190 -51 l 193 -97 l 308 -118 l 299 -174 q 72 -168 168 -168 l 57 -150 q 165 458 111 82 q 225 1040 219 833 l 246 1058 l 474 1064 l 464 1008 l 346 988 q 306 835 314 904 l 194 56 z "},"\\":{"ha":553,"x_min":128,"x_max":492,"o":"m 492 -65 l 399 -93 l 128 1046 l 219 1074 l 492 -65 z "},"]":{"ha":371,"x_min":-35,"x_max":382,"o":"m 243 835 q 247 903 247 865 q 246 964 247 942 l 244 988 l 129 1008 l 139 1064 q 367 1058 271 1058 l 382 1040 q 273 435 326 811 q 214 -150 219 60 l 193 -168 l -35 -174 l -26 -118 l 92 -97 q 132 56 124 -14 l 243 835 z "},"^":{"ha":754,"x_min":36,"x_max":763,"o":"m 453 854 l 113 435 l 36 496 l 475 1011 l 763 496 l 669 435 l 453 854 z "},"_":{"ha":700,"x_min":-72,"x_max":636,"o":"m -72 -319 l -62 -221 l 636 -221 l 615 -319 l -72 -319 z "},"`":{"ha":485,"x_min":172,"x_max":478,"o":"m 478 840 l 433 783 l 335 867 l 172 965 l 236 1049 l 478 840 z "},"a":{"ha":735,"x_min":40,"x_max":668,"o":"m 456 247 q 325 56 397 128 q 182 -15 253 -15 q 42 186 42 -15 q 42 193 42 189 q 90 417 42 297 q 210 619 138 538 q 349 700 283 700 q 447 691 386 700 q 521 681 508 682 l 603 700 l 636 678 q 572 378 594 508 q 544 97 549 247 l 668 90 l 664 40 l 451 -21 l 415 0 q 456 247 436 94 m 229 76 q 326 154 269 76 q 428 350 382 232 q 488 571 475 468 q 329 619 379 619 q 258 553 296 619 q 194 388 219 486 q 168 220 168 290 q 185 113 168 150 q 229 76 201 76 z "},"b":{"ha":682,"x_min":53,"x_max":646,"o":"m 508 699 q 646 492 646 699 q 597 266 646 386 q 476 65 549 146 q 339 -15 404 -15 q 176 3 311 -15 l 89 -21 l 53 0 q 142 461 99 169 q 201 960 185 753 l 86 976 l 82 1031 l 313 1069 l 344 1042 q 246 463 271 626 q 372 635 303 571 q 508 699 440 699 m 358 65 q 430 132 392 65 q 494 296 468 199 q 519 464 519 393 q 503 572 519 535 q 458 608 486 608 q 363 530 419 608 q 258 333 306 451 q 200 113 211 215 q 358 65 299 65 z "},"c":{"ha":551,"x_min":39,"x_max":549,"o":"m 86 416 q 109 476 86 416 q 199 617 132 536 q 321 699 265 699 q 528 679 376 699 l 549 646 l 496 442 l 446 444 l 438 576 q 321 606 354 606 q 220 467 274 606 q 167 201 167 329 q 250 74 167 74 q 464 214 358 74 l 508 181 q 200 -15 388 -15 q 80 38 121 -15 q 40 194 39 92 q 86 416 40 296 z "},"d":{"ha":739,"x_min":42,"x_max":676,"o":"m 179 -15 q 42 193 42 -15 q 90 417 42 297 q 212 619 139 538 q 349 700 285 700 q 504 682 364 700 q 533 960 526 865 l 417 976 l 414 1031 l 644 1069 l 676 1042 q 631 786 663 963 q 589 535 600 610 q 549 97 551 299 l 672 90 l 668 40 l 453 -21 l 417 0 q 456 247 450 186 q 324 56 397 128 q 179 -15 251 -15 m 329 619 q 258 553 296 619 q 194 388 219 486 q 168 220 168 290 q 185 113 168 150 q 229 76 201 76 q 326 155 269 76 q 430 351 383 233 q 488 571 476 468 q 329 619 385 619 z "},"e":{"ha":558,"x_min":40,"x_max":543,"o":"m 339 699 q 543 588 543 699 q 445 403 543 482 q 172 290 347 325 q 167 207 167 251 q 250 72 167 72 q 464 214 360 72 l 510 179 q 372 35 451 86 q 207 -15 292 -15 q 40 193 38 -15 q 89 417 40 297 q 208 617 138 536 q 339 699 279 699 m 421 551 q 400 599 421 585 q 337 614 379 614 q 252 536 294 614 q 185 354 210 458 q 356 431 290 378 q 421 551 421 485 z "},"f":{"ha":399,"x_min":-236,"x_max":635,"o":"m -193 -326 l -231 -325 l -236 -325 l -199 -226 q -138 -233 -192 -233 q -29 -215 -85 -233 q 39 -181 26 -197 q 112 103 74 -133 q 172 586 150 340 l 50 586 l 56 647 l 72 651 q 174 686 147 671 q 196 754 186 694 q 329 981 218 893 q 586 1069 440 1069 l 635 1065 l 599 968 q 529 978 567 978 q 437 960 492 978 q 368 924 382 943 q 300 664 333 878 l 468 664 l 449 586 l 288 586 q 239 245 268 471 q 193 -53 210 19 q 54 -253 161 -181 q -193 -326 -53 -326 z "},"g":{"ha":703,"x_min":-31,"x_max":650,"o":"m 392 -256 q 363 -274 392 -256 q 273 -310 333 -293 q 158 -326 213 -326 q 47 -318 103 -326 q -31 -299 -8 -310 l 13 -190 q 194 -226 114 -226 q 326 -209 274 -226 q 392 -177 378 -192 q 418 -115 407 -162 q 431 -35 429 -67 q 438 37 432 -3 q 452 138 443 76 q 467 246 461 200 q 338 56 410 126 q 194 -15 265 -15 q 54 188 54 -15 q 102 414 54 293 q 223 617 150 535 q 361 700 296 700 q 461 690 388 700 l 533 681 l 617 700 l 650 678 q 590 403 608 521 q 544 19 557 169 q 492 -147 533 -76 q 392 -256 451 -218 m 342 619 q 235 477 292 619 q 179 208 179 335 q 197 113 179 150 q 242 76 214 76 q 338 154 282 76 q 441 350 394 232 q 500 571 488 468 q 342 619 397 619 z "},"h":{"ha":765,"x_min":53,"x_max":710,"o":"m 556 700 q 656 586 656 700 q 622 354 656 524 q 582 97 588 185 l 710 90 l 706 40 l 468 -21 l 433 0 q 525 521 525 394 q 479 593 525 593 q 338 470 424 593 q 204 161 251 347 q 183 0 200 132 l 89 -21 l 53 0 q 142 461 99 169 q 201 960 185 753 l 86 976 l 82 1031 l 313 1069 l 344 1042 q 240 433 265 599 q 380 621 297 542 q 556 700 463 700 z "},"i":{"ha":418,"x_min":68,"x_max":360,"o":"m 297 700 l 329 672 q 228 97 282 501 l 351 90 l 347 40 l 119 -21 l 85 0 q 148 294 129 179 q 183 581 167 410 l 69 586 l 68 640 l 297 700 m 293 1003 q 360 932 360 1003 q 334 855 360 889 q 269 821 308 821 q 206 890 206 821 q 231 967 206 932 q 293 1003 256 1003 z "},"j":{"ha":372,"x_min":-69,"x_max":339,"o":"m 276 700 l 308 672 q 260 448 281 575 q 221 194 240 321 q 188 -21 201 68 q -26 -326 179 -74 l -69 -289 q 20 -118 -26 -215 q 76 19 67 -21 q 163 581 138 274 l 49 586 l 47 640 l 276 700 m 272 1003 q 339 932 339 1003 q 313 855 339 889 q 249 821 288 821 q 185 890 185 821 q 210 967 185 932 q 272 1003 235 1003 z "},"k":{"ha":686,"x_min":51,"x_max":661,"o":"m 554 700 q 647 589 650 700 q 576 418 647 496 q 383 296 506 340 q 533 97 451 181 l 661 90 l 657 39 l 456 -28 l 275 267 l 275 319 q 469 418 400 357 q 538 550 539 479 q 500 593 540 593 q 333 470 419 593 q 206 171 247 347 q 182 0 193 97 l 88 -21 l 51 0 q 138 444 93 154 q 200 960 182 733 l 83 976 l 82 1031 l 313 1069 l 344 1042 q 242 440 261 574 q 386 631 303 563 q 554 700 469 700 z "},"l":{"ha":385,"x_min":53,"x_max":344,"o":"m 313 1069 l 344 1042 q 194 97 236 431 l 318 90 l 314 40 l 89 -21 l 53 0 q 142 461 99 169 q 201 960 185 753 l 86 976 l 82 1031 l 313 1069 z "},"m":{"ha":1174,"x_min":68,"x_max":1118,"o":"m 588 700 q 686 586 686 700 q 676 474 686 547 q 964 700 808 700 q 1064 586 1064 700 q 1030 354 1064 524 q 990 97 996 185 l 1118 90 l 1114 40 l 876 -21 l 840 0 q 933 521 933 388 q 886 593 933 593 q 750 473 833 593 q 618 169 667 353 q 596 0 608 108 l 500 -21 l 464 0 q 557 521 557 388 q 510 593 557 593 q 366 465 453 593 q 233 140 279 336 q 214 0 226 88 l 119 -21 l 83 0 q 149 297 129 181 q 183 581 168 414 l 68 586 l 68 640 l 297 700 l 329 672 q 278 436 306 594 q 415 622 333 544 q 588 700 496 700 z "},"n":{"ha":796,"x_min":68,"x_max":740,"o":"m 586 700 q 686 586 686 700 q 652 354 686 524 q 613 97 618 185 l 740 90 l 736 40 l 499 -21 l 464 0 q 556 521 556 394 q 508 593 556 593 q 366 465 453 593 q 233 140 279 336 l 214 0 l 119 -21 l 83 0 q 149 297 129 181 q 183 581 168 414 l 68 586 l 68 640 l 297 700 l 329 672 q 278 436 306 594 q 414 622 333 544 q 586 700 494 700 z "},"o":{"ha":656,"x_min":44,"x_max":610,"o":"m 408 700 q 558 638 506 700 q 610 460 610 575 q 501 126 610 268 q 246 -15 393 -15 q 97 48 149 -15 q 44 226 44 111 q 153 558 44 417 q 408 700 261 700 m 475 456 q 475 538 475 456 q 385 621 475 621 q 237 508 294 621 q 179 229 179 394 q 269 64 179 64 q 417 177 360 64 q 475 456 475 290 z "},"p":{"ha":707,"x_min":32,"x_max":674,"o":"m 285 488 q 406 643 340 586 q 537 700 471 700 q 638 647 603 700 q 672 499 672 594 q 672 492 672 496 q 624 267 672 388 q 503 66 576 147 q 365 -15 431 -15 q 207 3 319 -15 q 161 -364 183 -167 l 68 -385 l 32 -364 q 122 111 78 -169 q 182 581 165 392 l 67 586 l 67 640 l 296 700 l 328 672 q 285 488 303 575 m 386 65 q 458 132 419 65 q 522 297 496 199 q 547 465 547 394 q 529 572 546 536 q 485 608 513 608 q 388 530 444 608 q 285 333 331 451 q 228 113 239 215 q 386 65 326 65 z "},"q":{"ha":707,"x_min":40,"x_max":635,"o":"m 179 -15 q 42 185 42 -15 q 42 193 42 189 q 90 417 42 297 q 210 619 138 538 q 349 700 283 700 q 447 690 375 700 q 519 681 518 681 l 601 700 l 635 678 q 547 233 589 515 q 486 -267 504 -50 l 610 -274 l 606 -324 l 378 -385 l 342 -364 l 406 -8 l 444 225 q 317 49 386 114 q 179 -15 247 -15 m 328 619 q 256 553 294 619 q 192 388 218 486 q 167 219 167 290 q 185 113 168 149 q 229 76 201 76 q 326 155 269 76 q 428 351 382 233 q 486 571 475 468 q 328 619 383 619 z "},"r":{"ha":554,"x_min":68,"x_max":599,"o":"m 543 700 q 575 694 569 700 l 599 661 l 536 426 l 485 431 l 476 597 q 325 417 397 553 q 233 144 253 282 l 214 0 l 119 -21 l 83 0 q 183 581 156 286 l 68 586 l 68 640 l 297 700 l 329 672 q 279 450 299 568 q 406 632 335 564 q 543 700 478 700 z "},"s":{"ha":504,"x_min":-3,"x_max":493,"o":"m 299 700 q 439 683 354 700 l 464 679 l 493 646 l 449 475 l 394 479 l 374 617 q 297 632 338 632 q 220 606 256 632 q 185 542 185 579 q 226 467 185 506 q 315 398 267 429 q 405 315 364 367 q 446 206 446 264 q 372 47 446 108 q 190 -15 299 -15 q 79 8 133 -15 q -1 60 25 31 l -3 104 l 67 242 l 118 226 l 104 96 q 208 56 151 56 q 298 83 264 56 q 332 157 332 111 q 292 240 332 203 q 206 305 253 276 q 120 388 160 333 q 81 516 81 442 q 144 645 81 590 q 299 700 208 700 z "},"t":{"ha":450,"x_min":65,"x_max":478,"o":"m 457 589 l 310 589 q 229 96 254 281 l 385 90 l 381 40 l 124 -21 l 89 0 q 192 589 156 269 l 65 589 l 71 650 q 200 692 179 679 q 276 800 233 710 l 290 829 l 347 813 q 333 729 340 778 q 324 667 326 681 l 478 667 l 457 589 z "},"u":{"ha":778,"x_min":57,"x_max":711,"o":"m 192 -15 q 117 21 143 -15 q 92 111 92 57 q 128 325 92 165 q 172 581 164 485 l 57 586 l 57 640 l 288 700 l 318 672 q 221 165 224 315 q 268 94 221 94 q 406 217 324 94 q 550 593 489 340 l 563 678 l 664 700 l 697 678 q 624 363 646 479 q 588 96 601 247 l 711 90 l 707 40 l 479 -21 l 443 0 q 499 257 469 93 q 355 59 435 133 q 192 -15 275 -15 z "},"v":{"ha":672,"x_min":39,"x_max":657,"o":"m 189 -15 q 101 79 101 -15 q 134 268 101 111 q 167 475 167 425 q 165 509 167 483 q 164 558 164 535 l 163 581 l 47 586 l 39 640 l 249 700 l 283 678 l 283 517 q 258 342 283 499 q 233 138 233 185 q 267 92 233 92 q 384 156 321 92 q 491 313 447 219 q 535 488 535 407 q 526 581 535 517 l 414 586 l 406 640 l 624 700 l 657 678 q 587 344 654 506 q 411 83 519 182 q 189 -15 303 -15 z "},"w":{"ha":1046,"x_min":42,"x_max":1036,"o":"m 533 488 l 513 674 l 610 699 l 643 678 l 649 517 q 626 341 649 499 q 604 138 604 183 q 639 92 604 92 q 721 126 674 92 q 810 215 768 161 q 883 343 853 269 q 913 488 913 417 q 904 581 913 513 l 793 586 l 783 640 l 1001 700 l 1036 678 q 990 397 1036 531 q 872 176 943 264 q 718 36 800 88 q 563 -15 636 -15 q 505 13 525 -15 q 485 72 485 40 q 500 186 485 104 q 349 38 431 90 q 192 -15 267 -15 q 106 79 106 -15 q 138 268 106 111 q 169 492 169 425 q 165 581 169 558 l 50 586 l 42 640 l 251 700 l 285 678 l 288 678 l 288 517 q 262 342 288 499 q 236 138 236 185 q 269 92 236 92 q 439 220 344 92 q 533 488 533 349 z "},"x":{"ha":675,"x_min":-17,"x_max":675,"o":"m 656 678 l 675 590 q 598 560 644 581 q 538 530 551 539 q 392 343 524 521 q 494 97 438 218 l 638 90 l 632 39 l 435 -21 l 403 0 l 314 257 q 165 69 179 85 l 47 -18 l 15 3 l -17 89 q 132 150 104 133 q 285 338 144 160 q 169 585 225 489 l 57 592 l 46 643 l 246 700 l 279 679 q 363 421 301 603 q 422 503 369 429 q 507 611 475 576 l 625 700 l 656 678 z "},"y":{"ha":733,"x_min":-4,"x_max":681,"o":"m 419 -256 q 390 -274 419 -256 q 301 -310 361 -293 q 185 -326 240 -326 q 74 -318 129 -326 q -4 -299 18 -310 l 40 -190 q 219 -226 139 -226 q 351 -209 300 -226 q 421 -176 403 -192 q 450 -78 435 -161 q 496 254 465 6 q 353 58 432 132 q 192 -15 275 -15 q 117 21 143 -15 q 92 111 92 57 q 128 325 92 165 q 172 581 164 485 l 57 586 l 57 640 l 288 700 l 318 672 q 221 165 221 297 q 268 94 221 94 q 412 226 329 94 q 547 581 494 357 l 436 586 l 428 640 l 647 700 l 681 678 q 594 231 624 456 q 571 19 588 168 q 519 -147 560 -76 q 419 -256 478 -218 z "},"z":{"ha":608,"x_min":-10,"x_max":610,"o":"m 557 211 l 522 14 l 481 -18 l 92 0 l 21 -18 l -10 8 q 238 326 153 207 q 415 596 322 444 q 172 572 299 594 l 136 460 l 83 464 l 76 667 l 99 700 l 513 676 l 594 697 l 610 671 q 353 334 439 453 q 186 78 268 215 q 433 96 353 78 q 508 228 507 222 q 533 220 510 228 q 557 211 556 213 z "},"{":{"ha":383,"x_min":69,"x_max":486,"o":"m 207 56 q 203 -13 203 25 q 204 -75 203 -51 l 206 -97 l 321 -118 l 311 -174 q 85 -168 181 -168 l 69 -150 q 164 367 118 61 q 81 429 140 415 l 86 461 q 186 522 149 471 q 238 1040 231 846 l 258 1058 l 486 1064 l 476 1008 l 358 988 q 318 835 326 904 l 268 494 q 182 442 228 457 l 181 436 q 253 381 226 418 l 207 56 z "},"|":{"ha":382,"x_min":85,"x_max":351,"o":"m 188 -169 l 85 -157 l 263 1056 l 351 1044 l 188 -169 z "},"}":{"ha":383,"x_min":-35,"x_max":382,"o":"m 243 835 q 247 903 247 865 q 246 964 247 942 l 244 988 l 129 1008 l 139 1064 q 367 1058 271 1058 l 382 1040 q 286 524 333 842 q 319 485 294 503 q 371 461 343 467 l 365 429 q 264 367 299 418 q 214 -150 218 36 l 193 -168 l -35 -174 l -26 -118 l 92 -97 q 132 56 124 -14 l 182 396 q 269 449 225 433 l 269 454 q 197 510 226 471 l 243 835 z "},"~":{"ha":778,"x_min":64,"x_max":724,"o":"m 636 290 q 610 266 636 290 q 547 243 583 243 q 385 285 510 243 q 233 326 260 326 q 131 269 186 326 l 113 250 l 64 296 q 151 394 99 347 q 235 440 204 440 q 408 399 286 440 q 556 357 529 357 q 656 414 601 357 l 675 433 l 724 388 q 636 290 689 336 z "}," ":{"ha":311,"x_min":0,"x_max":0,"o":""},"¡":{"ha":317,"x_min":-43,"x_max":256,"o":"m 108 386 l 199 369 q 100 -306 149 122 l -12 -326 l -43 -306 q 46 59 18 -74 q 93 372 74 192 l 108 386 m 192 699 q 256 629 256 699 q 231 553 256 588 q 168 519 206 519 q 106 588 106 519 q 130 664 106 629 q 192 699 154 699 z "},"¢":{"ha":651,"x_min":50,"x_max":622,"o":"m 50 381 q 142 682 50 564 q 403 806 235 800 l 431 957 l 475 953 l 447 804 q 622 757 496 801 l 582 583 l 506 588 l 513 638 q 513 651 513 642 q 510 685 513 660 q 433 725 474 718 l 333 183 q 426 196 379 183 q 499 221 474 208 l 524 233 l 551 168 q 445 116 513 139 q 317 93 378 93 l 289 -58 l 242 -54 l 269 96 q 106 183 161 108 q 50 381 50 258 m 176 388 q 286 188 176 217 l 388 725 q 230 613 283 715 q 176 388 176 511 z "},"£":{"ha":769,"x_min":42,"x_max":807,"o":"m 254 688 q 356 858 271 797 q 546 919 440 919 q 807 875 651 919 l 757 671 l 679 679 l 688 735 q 688 750 688 738 q 682 813 688 763 q 551 843 625 843 q 434 808 478 843 q 381 707 390 772 l 356 536 l 643 550 l 639 503 l 349 489 l 333 389 l 628 403 l 624 356 l 326 342 l 311 232 l 297 79 l 471 79 q 590 92 525 79 q 637 169 622 132 q 660 236 651 207 l 732 229 l 682 19 l 651 -6 q 500 0 526 0 l 186 0 l 42 -7 l 46 63 l 154 83 q 182 190 175 151 l 203 335 l 68 329 l 72 378 l 210 383 l 224 483 l 83 476 l 88 525 l 231 531 l 254 688 z "},"¥":{"ha":869,"x_min":78,"x_max":933,"o":"m 156 329 l 163 378 l 364 386 l 321 483 l 174 476 l 178 525 l 301 531 l 215 726 q 150 819 169 793 l 78 832 l 99 907 l 232 907 l 440 914 l 438 849 l 329 818 q 367 693 354 721 l 458 481 l 660 757 q 693 819 661 760 l 594 832 l 615 907 l 724 907 l 933 914 l 931 849 l 833 822 l 722 713 l 600 543 l 736 550 l 731 503 l 564 494 l 500 406 l 497 393 l 718 403 l 714 356 l 490 344 l 474 232 l 461 79 l 565 71 l 546 -6 q 332 0 428 0 l 203 -6 l 207 67 l 313 79 q 343 190 339 163 l 364 339 l 156 329 z "},"¦":{"ha":356,"x_min":72,"x_max":339,"o":"m 272 544 l 178 556 l 250 1056 l 339 1044 l 272 544 m 136 294 l 235 285 l 175 -169 l 72 -157 l 136 294 z "},"§":{"ha":713,"x_min":58,"x_max":672,"o":"m 181 13 l 182 -50 q 309 -76 244 -76 q 419 -40 374 -76 q 464 46 464 -3 q 429 131 464 94 q 344 197 394 168 q 244 254 294 225 q 160 323 194 283 q 125 408 125 363 q 232 571 125 497 l 256 554 q 235 488 235 522 q 273 419 235 454 q 366 352 311 385 q 476 283 421 319 q 569 194 531 246 q 607 82 607 143 q 517 -95 607 -31 q 301 -160 426 -160 q 173 -144 233 -160 q 86 -114 113 -129 l 58 -99 l 108 115 l 190 107 q 181 13 181 26 m 518 299 q 538 367 538 326 q 497 447 538 408 q 401 515 457 485 q 292 578 346 544 q 202 659 238 611 q 167 763 167 707 q 248 938 167 876 q 447 1000 329 1000 q 672 964 531 1000 l 624 760 l 549 768 q 557 824 556 810 l 557 835 q 551 901 557 851 q 438 924 494 924 q 344 895 381 924 q 307 819 307 867 q 342 736 307 772 q 426 669 376 700 q 526 608 476 639 q 610 536 575 576 q 644 453 644 496 q 542 282 644 360 l 518 299 z "},"¨":{"ha":485,"x_min":92,"x_max":557,"o":"m 496 990 q 557 924 557 990 q 535 852 557 879 q 472 825 514 825 q 410 890 410 825 q 432 963 410 935 q 496 990 454 990 m 178 990 q 240 924 240 990 q 217 852 240 879 q 154 825 194 825 q 92 890 92 825 q 114 963 92 935 q 178 990 136 990 z "},"©":{"ha":1174,"x_min":79,"x_max":1094,"o":"m 597 40 q 385 123 458 40 q 313 346 313 206 q 386 569 313 486 q 597 653 460 653 q 781 625 657 653 l 771 485 l 714 489 l 714 533 q 704 572 714 543 q 599 588 643 588 q 472 520 517 588 q 428 347 428 453 q 472 174 428 242 q 599 106 517 106 q 711 119 653 106 q 724 164 724 147 l 725 210 l 783 211 l 788 68 q 597 40 664 40 m 588 854 q 693 854 588 854 q 947 707 799 854 q 1094 350 1094 560 q 945 -10 1094 140 q 587 -160 796 -160 q 228 -12 378 -160 q 79 346 79 135 q 228 706 79 557 q 588 854 378 854 m 901 33 q 967 98 901 33 q 1032 347 1032 164 q 901 662 1032 531 q 585 793 769 793 q 271 663 401 793 q 140 349 140 533 q 272 33 140 164 q 587 -99 403 -99 q 901 33 771 -99 z "},"ª":{"ha":476,"x_min":96,"x_max":506,"o":"m 292 1054 q 401 1040 332 1054 l 463 1054 l 490 1036 q 433 690 439 835 l 506 686 l 503 647 l 350 611 l 324 625 q 364 793 353 714 q 275 663 325 713 q 181 613 225 613 q 96 742 96 613 q 160 951 96 847 q 292 1054 224 1054 m 226 697 q 310 783 261 697 q 372 958 360 868 q 278 983 310 983 q 223 910 250 983 q 196 767 196 838 q 226 697 196 697 z "},"«":{"ha":575,"x_min":46,"x_max":567,"o":"m 46 336 l 300 644 l 347 610 l 160 336 l 269 63 l 213 28 l 46 336 m 272 336 l 522 639 l 567 604 l 385 336 l 492 68 l 436 33 l 272 336 z "},"¬":{"ha":778,"x_min":83,"x_max":729,"o":"m 97 426 l 729 426 l 685 96 l 586 96 l 622 333 l 83 328 l 97 426 z "},"®":{"ha":1174,"x_min":79,"x_max":1094,"o":"m 588 854 q 693 854 588 854 q 947 707 799 854 q 1094 350 1094 560 q 945 -10 1094 140 q 587 -160 796 -160 q 228 -12 378 -160 q 79 346 79 135 q 228 706 79 557 q 588 854 378 854 m 901 33 q 967 98 901 33 q 1032 347 1032 164 q 901 662 1032 531 q 585 793 769 793 q 271 663 401 793 q 140 349 140 533 q 272 33 140 164 q 587 -99 403 -99 q 901 33 771 -99 m 417 649 l 590 657 q 728 614 679 657 q 778 486 778 571 q 668 331 778 375 q 753 183 725 219 q 794 124 761 168 l 851 117 l 846 65 l 697 65 l 681 111 q 656 171 657 168 l 581 314 l 507 314 l 507 211 q 511 125 507 183 l 572 117 l 567 65 l 506 65 l 347 61 l 339 107 l 408 125 l 410 125 l 417 186 l 417 535 l 410 596 l 408 596 l 343 601 l 349 649 l 417 649 m 556 361 l 571 361 q 689 485 689 371 q 653 578 689 546 q 556 610 618 610 q 511 604 547 610 q 507 511 507 542 l 507 364 q 556 361 525 361 z "},"¯":{"ha":485,"x_min":101,"x_max":547,"o":"m 529 842 l 101 842 l 113 915 l 547 915 l 529 842 z "},"°":{"ha":499,"x_min":117,"x_max":529,"o":"m 529 754 q 463 578 528 644 q 304 511 399 511 q 163 554 210 511 q 117 679 115 597 q 181 856 117 788 q 338 925 244 925 q 480 881 432 925 q 529 754 528 836 m 339 854 q 253 803 283 854 q 222 683 222 751 q 306 582 225 582 q 392 632 361 582 q 421 750 422 682 q 339 854 424 854 z "},"±":{"ha":758,"x_min":44,"x_max":728,"o":"m 456 422 l 421 151 l 324 151 l 361 421 l 103 418 l 117 515 l 375 515 l 413 781 l 503 781 l 468 515 l 728 515 l 714 425 l 456 422 m 56 92 l 669 99 l 656 0 l 44 0 l 56 92 z "},"²":{"ha":458,"x_min":72,"x_max":500,"o":"m 161 1174 q 329 1204 244 1204 q 457 1172 414 1204 q 500 1071 500 1139 q 438 928 500 1003 q 190 706 376 854 l 318 706 l 394 714 q 418 756 417 749 l 428 792 l 486 788 l 457 640 l 432 622 q 335 625 353 625 l 72 625 l 72 701 q 327 935 269 869 q 385 1061 385 1001 q 365 1116 385 1096 q 307 1136 344 1136 q 226 1114 269 1136 q 213 1075 214 1082 l 208 1036 l 149 1033 l 161 1174 z "},"³":{"ha":415,"x_min":53,"x_max":450,"o":"m 290 1186 q 450 1064 450 1186 q 333 907 450 960 q 406 863 379 896 q 433 786 433 829 q 326 622 433 693 q 61 536 219 551 l 53 590 q 244 659 171 607 q 317 782 317 711 q 233 860 317 860 l 179 857 l 175 911 q 340 1057 340 935 q 276 1124 340 1124 q 211 1110 246 1124 l 200 1076 l 194 1031 l 135 1026 l 143 1161 q 290 1186 221 1186 z "},"´":{"ha":485,"x_min":169,"x_max":475,"o":"m 413 1049 l 475 965 q 313 867 332 882 l 214 783 l 169 840 l 413 1049 z "},"µ":{"ha":761,"x_min":38,"x_max":733,"o":"m 231 -21 q 200 -17 213 -21 l 192 -83 q 175 -292 183 -158 l 160 -303 q 81 -297 115 -297 l 50 -297 l 38 -286 q 92 -107 86 -135 q 213 588 213 483 l 82 592 l 79 639 l 324 701 l 354 682 q 256 156 256 250 q 303 82 256 82 q 444 208 358 82 q 589 589 531 335 l 603 681 l 692 701 l 724 681 q 655 374 675 492 q 621 94 635 256 l 733 90 l 729 40 l 515 -21 l 482 0 q 535 249 510 114 q 392 52 471 125 q 231 -21 313 -21 z "},"¶":{"ha":754,"x_min":74,"x_max":790,"o":"m 418 993 q 483 989 447 993 l 407 439 l 365 404 q 156 469 239 404 q 74 653 74 533 q 170 900 74 807 q 418 993 267 993 m 568 982 q 622 979 590 979 q 765 988 690 979 l 790 990 l 778 908 l 678 900 q 583 346 653 854 q 543 97 553 124 q 375 -111 525 46 l 324 -164 l 285 -129 q 435 139 431 110 l 551 969 l 568 982 z "},"·":{"ha":281,"x_min":64,"x_max":226,"o":"m 156 592 q 226 515 226 592 q 200 435 226 471 q 133 399 174 399 q 64 474 64 399 q 90 555 64 518 q 156 592 115 592 z "},"¸":{"ha":485,"x_min":47,"x_max":319,"o":"m 199 -82 q 286 -111 253 -83 q 319 -194 319 -139 q 272 -287 319 -249 q 159 -326 224 -326 q 47 -301 94 -326 l 71 -253 q 152 -268 119 -268 q 208 -248 185 -268 q 231 -193 231 -228 q 176 -143 231 -143 l 147 -144 l 133 -131 l 167 14 l 232 14 l 199 -82 z "},"¹":{"ha":356,"x_min":110,"x_max":379,"o":"m 371 679 l 357 621 q 217 625 301 625 l 110 621 l 113 674 l 189 685 q 207 754 201 724 l 250 1049 l 154 1008 l 135 1054 q 264 1146 246 1132 l 313 1194 l 379 1185 q 343 986 349 1028 l 313 779 q 306 685 306 740 l 371 679 z "},"º":{"ha":424,"x_min":96,"x_max":467,"o":"m 333 1054 q 433 1015 399 1054 q 467 903 467 976 q 396 698 467 783 q 228 613 325 613 q 130 652 164 613 q 96 765 96 692 q 166 969 96 883 q 333 1054 236 1054 m 251 678 q 276 678 251 678 q 331 738 301 678 q 361 894 361 799 q 310 990 361 990 q 230 929 260 990 q 200 773 200 868 q 251 678 200 678 z "},"»":{"ha":578,"x_min":44,"x_max":568,"o":"m 568 335 l 310 26 l 264 61 l 449 333 l 340 608 l 397 643 l 568 335 m 342 335 l 89 32 l 44 67 l 225 333 l 119 603 l 174 638 l 342 335 z "},"¼":{"ha":950,"x_min":43,"x_max":874,"o":"m 329 471 l 315 413 q 175 417 260 417 l 68 413 l 71 465 l 147 476 q 165 546 160 515 l 208 840 l 113 800 l 93 846 q 222 938 204 924 l 271 986 l 338 976 q 301 778 307 819 l 271 571 q 264 476 264 532 l 329 471 m 776 1001 l 838 957 l 104 -68 l 43 -24 l 776 1001 m 808 626 l 874 567 q 750 450 765 469 l 558 225 l 694 225 l 708 324 l 811 357 l 793 232 l 871 236 l 860 161 l 782 161 l 779 138 q 774 60 774 103 l 833 54 l 821 -4 q 679 0 763 0 l 575 -4 l 578 47 l 663 60 q 679 128 676 103 l 685 161 l 494 161 l 451 225 l 808 626 z "},"½":{"ha":976,"x_min":43,"x_max":907,"o":"m 329 471 l 315 413 q 175 417 260 417 l 68 413 l 71 465 l 147 476 q 165 546 160 515 l 208 840 l 113 800 l 93 846 q 222 938 204 924 l 271 986 l 338 976 q 301 778 307 819 l 271 571 q 264 476 264 532 l 329 471 m 776 1001 l 838 957 l 104 -68 l 43 -24 l 776 1001 m 568 549 q 736 579 651 579 q 864 547 821 579 q 907 446 907 514 q 845 303 907 378 q 597 81 783 229 l 725 81 l 801 89 q 825 131 824 124 l 835 167 l 893 163 l 864 15 l 839 -3 q 742 0 760 0 l 483 0 l 483 76 q 735 309 678 242 q 792 436 792 376 q 772 491 792 471 q 714 511 751 511 q 633 489 676 511 q 619 450 621 457 l 615 411 l 556 408 l 568 549 z "},"¾":{"ha":996,"x_min":11,"x_max":919,"o":"m 249 978 q 408 856 408 978 q 292 699 408 751 q 365 654 338 688 q 392 578 392 621 q 285 414 392 485 q 19 328 178 343 l 11 382 q 202 451 129 399 q 275 574 275 503 q 192 651 275 651 l 138 649 l 133 703 q 299 849 299 726 q 235 915 299 915 q 169 901 204 915 l 158 868 l 153 822 l 93 818 l 101 953 q 249 978 178 978 m 822 1001 l 883 957 l 150 -68 l 89 -24 l 822 1001 m 854 626 l 919 567 q 796 450 811 469 l 604 225 l 740 225 l 754 324 l 857 357 l 839 232 l 917 236 l 906 161 l 828 161 l 825 138 q 819 60 819 103 l 879 54 l 867 -4 q 725 0 808 0 l 621 -4 l 624 47 l 708 60 q 725 128 722 103 l 731 161 l 540 161 l 497 225 l 854 626 z "},"¿":{"ha":560,"x_min":-28,"x_max":492,"o":"m 308 178 q 155 106 213 178 q 96 -76 97 35 q 131 -207 97 -158 q 227 -256 164 -256 q 328 -233 290 -256 l 393 -78 l 442 -89 l 436 -243 l 413 -279 q 221 -325 301 -325 q 38 -262 103 -325 q -28 -83 -28 -199 q 69 160 -28 67 q 315 253 167 253 q 324 253 319 253 l 335 372 l 351 386 l 440 369 l 421 196 l 376 172 q 308 178 335 178 m 428 699 q 492 629 492 699 q 467 553 492 588 q 404 519 442 519 q 342 588 342 519 q 366 664 342 629 q 428 699 390 699 z "},"À":{"ha":894,"x_min":-32,"x_max":850,"o":"m 850 75 l 833 0 l 697 0 l 500 -7 l 506 61 l 607 89 l 593 239 l 578 322 l 283 322 l 219 176 l 193 89 l 285 75 l 268 0 l 150 0 l -32 -7 l -28 61 l 60 85 l 138 222 l 485 979 l 568 993 l 735 207 l 769 89 l 850 75 m 492 774 l 318 392 l 561 397 l 492 774 m 343 1146 l 385 1247 l 693 1108 l 665 1042 l 547 1093 l 343 1146 z "},"Á":{"ha":894,"x_min":-32,"x_max":850,"o":"m 850 75 l 833 0 l 697 0 l 500 -7 l 506 61 l 607 89 l 593 239 l 578 322 l 283 322 l 219 176 l 193 89 l 285 75 l 268 0 l 150 0 l -32 -7 l -28 61 l 60 85 l 138 222 l 485 979 l 568 993 l 735 207 l 769 89 l 850 75 m 492 774 l 318 392 l 561 397 l 492 774 m 706 1247 l 746 1146 q 542 1093 568 1101 l 424 1042 l 396 1108 l 706 1247 z "},"Â":{"ha":894,"x_min":-32,"x_max":850,"o":"m 850 75 l 833 0 l 697 0 l 500 -7 l 506 61 l 607 89 l 593 239 l 578 322 l 283 322 l 219 176 l 193 89 l 285 75 l 268 0 l 150 0 l -32 -7 l -28 61 l 60 85 l 138 222 l 485 979 l 568 993 l 735 207 l 769 89 l 850 75 m 492 774 l 318 392 l 561 397 l 492 774 m 563 1240 l 775 1092 l 736 1038 l 626 1094 l 547 1129 q 514 1117 535 1125 q 478 1103 493 1108 q 456 1094 463 1097 l 329 1038 l 307 1092 l 563 1240 z "},"Ã":{"ha":894,"x_min":-32,"x_max":850,"o":"m 850 75 l 833 0 l 697 0 l 500 -7 l 506 61 l 607 89 l 593 239 l 578 322 l 283 322 l 219 176 l 193 89 l 285 75 l 268 0 l 150 0 l -32 -7 l -28 61 l 60 85 l 138 222 l 485 979 l 568 993 l 735 207 l 769 89 l 850 75 m 492 774 l 318 392 l 561 397 l 492 774 m 717 1103 q 697 1081 717 1103 q 651 1060 676 1060 q 546 1088 625 1060 q 444 1117 467 1117 q 371 1071 408 1117 l 358 1056 l 314 1085 q 361 1151 331 1118 q 444 1211 415 1211 q 551 1183 472 1211 q 653 1154 631 1154 q 728 1207 692 1154 l 740 1225 l 785 1196 q 717 1103 757 1146 z "},"Ä":{"ha":894,"x_min":-32,"x_max":850,"o":"m 850 75 l 833 0 l 697 0 l 500 -7 l 506 61 l 607 89 l 593 239 l 578 322 l 283 322 l 219 176 l 193 89 l 285 75 l 268 0 l 150 0 l -32 -7 l -28 61 l 60 85 l 138 222 l 485 979 l 568 993 l 735 207 l 769 89 l 850 75 m 492 774 l 318 392 l 561 397 l 492 774 m 719 1228 q 782 1161 782 1228 q 760 1090 782 1117 q 696 1063 738 1063 q 633 1128 633 1063 q 656 1200 633 1172 q 719 1228 678 1228 m 401 1228 q 465 1161 465 1228 q 442 1090 465 1117 q 378 1063 419 1063 q 315 1128 315 1063 q 338 1200 315 1172 q 401 1228 360 1228 z "},"Å":{"ha":894,"x_min":-32,"x_max":850,"o":"m 850 75 l 833 0 l 697 0 l 500 -7 l 506 61 l 607 89 l 593 239 l 578 322 l 283 322 l 219 176 l 193 89 l 285 75 l 268 0 l 150 0 l -32 -7 l -28 61 l 60 85 l 138 222 l 485 979 l 568 993 l 735 207 l 769 89 l 850 75 m 422 1133 q 459 1234 422 1196 q 556 1272 496 1272 q 667 1174 667 1272 q 631 1073 667 1111 q 536 1035 596 1035 q 422 1133 422 1035 m 492 774 l 318 392 l 561 397 l 492 774 m 556 1219 q 506 1196 522 1219 q 489 1140 489 1172 q 536 1088 489 1088 q 587 1111 571 1088 q 603 1167 603 1135 q 556 1219 603 1219 z "},"Æ":{"ha":1222,"x_min":-8,"x_max":1246,"o":"m 1017 900 l 774 900 q 765 751 768 832 l 767 536 q 868 531 842 531 l 933 531 l 1015 543 l 1042 635 l 1101 628 l 1085 517 l 1065 365 l 1000 357 l 1001 450 q 896 458 922 458 l 857 458 q 767 453 839 458 l 768 242 l 778 79 l 942 79 q 1063 92 990 79 q 1097 143 1090 128 q 1132 236 1124 207 l 1204 229 l 1153 19 l 1124 -6 q 971 0 999 0 l 678 0 l 517 -7 l 522 63 l 635 85 q 642 181 642 129 l 642 344 l 353 344 l 231 142 q 219 114 226 135 q 207 85 211 93 l 315 75 l 293 -7 q 118 0 226 0 l -8 -7 l -4 63 l 79 85 q 181 213 158 175 l 596 894 l 493 911 l 511 986 q 665 979 639 979 l 1068 979 l 1224 993 l 1246 968 l 1228 779 l 1149 772 q 1147 839 1149 817 q 1125 893 1144 861 q 1017 900 1051 900 m 397 415 l 642 419 l 640 772 l 636 811 l 397 415 z "},"Ç":{"ha":824,"x_min":68,"x_max":853,"o":"m 439 -82 q 526 -111 493 -83 q 560 -194 560 -139 q 512 -287 560 -249 q 399 -326 464 -326 q 288 -301 335 -326 l 311 -253 q 392 -268 360 -268 q 448 -248 425 -268 q 471 -193 471 -228 q 417 -143 471 -143 l 388 -144 l 374 -131 l 399 -18 q 154 106 240 -4 q 68 390 68 215 q 203 829 68 658 q 581 1000 339 1000 q 822 961 686 1000 q 853 953 847 954 l 810 747 l 729 753 l 739 818 q 739 833 739 821 q 733 888 739 844 q 569 919 644 919 q 375 844 458 919 q 251 651 292 768 q 211 390 211 533 q 276 153 211 246 q 456 60 340 60 q 629 90 528 60 q 660 168 657 154 l 672 233 l 753 236 l 731 26 q 460 -21 561 -18 l 439 -82 z "},"È":{"ha":794,"x_min":13,"x_max":796,"o":"m 314 979 l 618 979 l 774 993 l 796 968 l 778 779 l 699 772 q 697 840 699 817 q 675 894 694 863 q 567 901 603 901 l 392 901 q 360 747 368 804 l 331 550 q 388 547 375 547 l 485 547 l 567 560 l 592 651 l 654 644 q 636 528 640 556 l 618 376 l 551 368 l 553 461 q 447 469 474 469 l 376 469 q 318 465 353 469 l 285 232 q 272 79 272 149 l 464 79 q 583 92 514 79 q 618 143 614 131 q 653 236 644 207 l 726 229 l 675 19 l 646 -6 q 493 0 521 0 l 171 0 l 13 -7 l 15 63 l 125 85 q 153 190 146 154 l 240 789 q 243 894 243 813 l 142 911 l 160 986 q 314 979 286 979 m 306 1146 l 347 1247 l 656 1108 l 628 1042 l 510 1093 l 306 1146 z "},"É":{"ha":794,"x_min":13,"x_max":796,"o":"m 314 979 l 618 979 l 774 993 l 796 968 l 778 779 l 699 772 q 697 840 699 817 q 675 894 694 863 q 567 901 603 901 l 392 901 q 360 747 368 804 l 331 550 q 388 547 375 547 l 485 547 l 567 560 l 592 651 l 654 644 q 636 528 640 556 l 618 376 l 551 368 l 553 461 q 447 469 474 469 l 376 469 q 318 465 353 469 l 285 232 q 272 79 272 149 l 464 79 q 583 92 514 79 q 618 143 614 131 q 653 236 644 207 l 726 229 l 675 19 l 646 -6 q 493 0 521 0 l 171 0 l 13 -7 l 15 63 l 125 85 q 153 190 146 154 l 240 789 q 243 894 243 813 l 142 911 l 160 986 q 314 979 286 979 m 668 1247 l 708 1146 q 504 1093 531 1101 l 386 1042 l 358 1108 l 668 1247 z "},"Ê":{"ha":794,"x_min":13,"x_max":796,"o":"m 314 979 l 618 979 l 774 993 l 796 968 l 778 779 l 699 772 q 697 840 699 817 q 675 894 694 863 q 567 901 603 901 l 392 901 q 360 747 368 804 l 331 550 q 388 547 375 547 l 485 547 l 567 560 l 592 651 l 654 644 q 636 528 640 556 l 618 376 l 551 368 l 553 461 q 447 469 474 469 l 376 469 q 318 465 353 469 l 285 232 q 272 79 272 149 l 464 79 q 583 92 514 79 q 618 143 614 131 q 653 236 644 207 l 726 229 l 675 19 l 646 -6 q 493 0 521 0 l 171 0 l 13 -7 l 15 63 l 125 85 q 153 190 146 154 l 240 789 q 243 894 243 813 l 142 911 l 160 986 q 314 979 286 979 m 526 1240 l 739 1092 l 700 1038 l 590 1094 l 511 1129 q 478 1117 499 1125 q 442 1103 457 1108 q 419 1094 426 1097 l 293 1038 l 271 1092 l 526 1240 z "},"Ë":{"ha":794,"x_min":13,"x_max":796,"o":"m 314 979 l 618 979 l 774 993 l 796 968 l 778 779 l 699 772 q 697 840 699 817 q 675 894 694 863 q 567 901 603 901 l 392 901 q 360 747 368 804 l 331 550 q 388 547 375 547 l 485 547 l 567 560 l 592 651 l 654 644 q 636 528 640 556 l 618 376 l 551 368 l 553 461 q 447 469 474 469 l 376 469 q 318 465 353 469 l 285 232 q 272 79 272 149 l 464 79 q 583 92 514 79 q 618 143 614 131 q 653 236 644 207 l 726 229 l 675 19 l 646 -6 q 493 0 521 0 l 171 0 l 13 -7 l 15 63 l 125 85 q 153 190 146 154 l 240 789 q 243 894 243 813 l 142 911 l 160 986 q 314 979 286 979 m 683 1228 q 746 1161 746 1228 q 724 1090 746 1117 q 660 1063 701 1063 q 597 1128 597 1063 q 619 1200 597 1172 q 683 1228 642 1228 m 365 1228 q 429 1161 429 1228 q 406 1090 429 1117 q 342 1063 383 1063 q 279 1128 279 1063 q 301 1200 279 1172 q 365 1228 324 1228 z "},"Ì":{"ha":492,"x_min":21,"x_max":511,"o":"m 511 986 l 504 904 l 399 894 q 368 747 379 828 l 293 232 q 281 85 281 144 l 399 75 l 378 -7 q 179 0 289 0 l 21 -7 l 24 63 l 133 85 q 142 114 135 90 q 160 190 157 172 l 247 789 q 251 894 251 813 l 150 911 l 168 986 q 322 979 294 979 l 511 986 m 142 1146 l 183 1247 l 492 1108 l 464 1042 l 346 1093 l 142 1146 z "},"Í":{"ha":492,"x_min":21,"x_max":543,"o":"m 511 986 l 504 904 l 399 894 q 368 747 379 828 l 293 232 q 281 85 281 144 l 399 75 l 378 -7 q 179 0 289 0 l 21 -7 l 24 63 l 133 85 q 142 114 135 90 q 160 190 157 172 l 247 789 q 251 894 251 813 l 150 911 l 168 986 q 322 979 294 979 l 511 986 m 503 1247 l 543 1146 q 339 1093 365 1101 l 221 1042 l 193 1108 l 503 1247 z "},"Î":{"ha":492,"x_min":21,"x_max":574,"o":"m 511 986 l 504 904 l 399 894 q 368 747 379 828 l 293 232 q 281 85 281 144 l 399 75 l 378 -7 q 179 0 289 0 l 21 -7 l 24 63 l 133 85 q 142 114 135 90 q 160 190 157 172 l 247 789 q 251 894 251 813 l 150 911 l 168 986 q 322 979 294 979 l 511 986 m 361 1240 l 574 1092 l 535 1038 l 425 1094 l 346 1129 q 313 1117 333 1125 q 276 1103 292 1108 q 254 1094 261 1097 l 128 1038 l 106 1092 l 361 1240 z "},"Ï":{"ha":492,"x_min":21,"x_max":569,"o":"m 508 1228 q 569 1161 569 1228 q 548 1090 569 1117 q 485 1063 526 1063 q 422 1128 422 1063 q 444 1200 422 1172 q 508 1228 467 1228 m 271 1228 q 333 1161 333 1228 q 310 1090 333 1117 q 247 1063 288 1063 q 185 1128 185 1063 q 207 1200 185 1172 q 271 1228 229 1228 m 511 986 l 504 904 l 399 894 q 368 747 379 828 l 293 232 q 281 85 281 144 l 399 75 l 378 -7 q 179 0 289 0 l 21 -7 l 24 63 l 133 85 q 142 114 135 90 q 160 190 157 172 l 247 789 q 251 894 251 813 l 150 911 l 168 986 q 322 979 294 979 l 511 986 z "},"Ð":{"ha":972,"x_min":14,"x_max":946,"o":"m 400 -8 l 174 0 l 14 -7 l 18 63 l 126 85 q 154 190 151 165 l 194 468 l 76 468 l 85 528 l 203 528 l 242 789 q 244 894 244 813 l 144 911 l 163 986 q 293 979 247 982 q 412 987 328 981 q 546 993 496 993 q 843 883 740 993 q 946 579 946 774 q 795 156 946 319 q 400 -8 644 -8 m 414 74 q 707 219 601 74 q 813 571 813 364 q 743 815 813 721 q 536 910 674 910 q 390 903 446 910 q 357 747 367 814 l 325 528 l 518 528 l 503 468 l 317 468 l 282 232 q 269 79 269 146 q 414 74 339 74 z "},"Ñ":{"ha":1025,"x_min":13,"x_max":1094,"o":"m 1094 986 l 1090 913 l 982 890 q 939 733 949 801 l 829 -10 l 743 -10 l 331 772 l 253 232 q 240 85 240 157 l 347 75 l 325 -7 q 158 0 268 0 l 13 -7 l 15 63 l 125 85 q 153 190 146 154 l 240 789 q 243 894 243 811 l 139 911 l 156 986 q 311 979 282 979 l 374 981 l 396 951 q 494 736 479 767 l 771 226 l 851 775 q 856 890 856 808 l 751 899 l 771 982 l 882 979 l 1094 986 m 769 1103 q 749 1081 769 1103 q 703 1060 729 1060 q 599 1088 678 1060 q 497 1117 519 1117 q 424 1071 461 1117 l 411 1056 l 367 1085 q 414 1151 383 1118 q 497 1211 468 1211 q 604 1183 525 1211 q 706 1154 683 1154 q 781 1207 744 1154 l 793 1225 l 838 1196 q 769 1103 810 1146 z "},"Ò":{"ha":999,"x_min":68,"x_max":974,"o":"m 974 583 q 835 149 974 318 q 450 -21 697 -21 q 167 92 265 -21 q 68 394 68 204 q 206 831 68 661 q 592 1000 344 1000 q 875 887 776 1000 q 974 583 974 774 m 384 849 q 341 811 384 849 q 258 653 299 772 q 217 388 217 533 q 278 147 217 242 q 455 53 339 53 q 656 129 571 53 q 783 325 742 206 q 825 591 825 444 q 765 832 825 738 q 587 926 704 926 q 384 849 469 926 m 381 1146 l 422 1247 l 731 1108 l 703 1042 l 585 1093 l 381 1146 z "},"Ó":{"ha":999,"x_min":68,"x_max":974,"o":"m 974 583 q 835 149 974 318 q 450 -21 697 -21 q 167 92 265 -21 q 68 394 68 204 q 206 831 68 661 q 592 1000 344 1000 q 875 887 776 1000 q 974 583 974 774 m 384 849 q 341 811 384 849 q 258 653 299 772 q 217 388 217 533 q 278 147 217 242 q 455 53 339 53 q 656 129 571 53 q 783 325 742 206 q 825 591 825 444 q 765 832 825 738 q 587 926 704 926 q 384 849 469 926 m 743 1247 l 783 1146 q 579 1093 606 1101 l 461 1042 l 433 1108 l 743 1247 z "},"Ô":{"ha":999,"x_min":68,"x_max":974,"o":"m 974 583 q 835 149 974 318 q 450 -21 697 -21 q 167 92 265 -21 q 68 394 68 204 q 206 831 68 661 q 592 1000 344 1000 q 875 887 776 1000 q 974 583 974 774 m 384 849 q 341 811 384 849 q 258 653 299 772 q 217 388 217 533 q 278 147 217 242 q 455 53 339 53 q 656 129 571 53 q 783 325 742 206 q 825 591 825 444 q 765 832 825 738 q 587 926 704 926 q 384 849 469 926 m 600 1240 l 813 1092 l 774 1038 l 664 1094 l 585 1129 q 551 1117 572 1125 q 515 1103 531 1108 q 493 1094 500 1097 l 367 1038 l 344 1092 l 600 1240 z "},"Õ":{"ha":999,"x_min":68,"x_max":974,"o":"m 974 583 q 835 149 974 318 q 450 -21 697 -21 q 167 92 265 -21 q 68 394 68 204 q 206 831 68 661 q 592 1000 344 1000 q 875 887 776 1000 q 974 583 974 774 m 384 849 q 341 811 384 849 q 258 653 299 772 q 217 388 217 533 q 278 147 217 242 q 455 53 339 53 q 656 129 571 53 q 783 325 742 206 q 825 591 825 444 q 765 832 825 738 q 587 926 704 926 q 384 849 469 926 m 754 1103 q 734 1081 754 1103 q 689 1060 714 1060 q 585 1088 664 1060 q 483 1117 506 1117 q 408 1071 446 1117 l 396 1056 l 351 1085 q 399 1151 368 1118 q 481 1211 453 1211 q 589 1183 508 1211 q 692 1154 669 1154 q 765 1207 729 1154 l 778 1225 l 822 1196 q 754 1103 794 1146 z "},"Ö":{"ha":999,"x_min":68,"x_max":974,"o":"m 974 583 q 835 149 974 318 q 450 -21 697 -21 q 167 92 265 -21 q 68 394 68 204 q 206 831 68 661 q 592 1000 344 1000 q 875 887 776 1000 q 974 583 974 774 m 384 849 q 341 811 384 849 q 258 653 299 772 q 217 388 217 533 q 278 147 217 242 q 455 53 339 53 q 656 129 571 53 q 783 325 742 206 q 825 591 825 444 q 765 832 825 738 q 587 926 704 926 q 384 849 469 926 m 757 1228 q 819 1161 819 1228 q 797 1090 819 1117 q 733 1063 775 1063 q 671 1128 671 1063 q 693 1200 671 1172 q 757 1228 715 1228 m 439 1228 q 503 1161 503 1228 q 480 1090 503 1117 q 415 1063 457 1063 q 353 1128 353 1063 q 375 1200 353 1172 q 439 1228 397 1228 z "},"×":{"ha":751,"x_min":63,"x_max":699,"o":"m 390 417 l 636 635 l 699 561 l 453 344 l 642 131 l 557 57 l 371 272 l 122 56 l 63 125 l 308 344 l 121 563 l 200 632 l 390 417 z "},"Ø":{"ha":993,"x_min":60,"x_max":978,"o":"m 968 585 q 828 149 968 319 q 443 -21 689 -21 q 247 24 333 -21 l 108 -189 l 60 -157 l 199 56 q 67 393 67 163 q 206 830 67 660 q 592 1000 344 1000 q 788 954 704 1000 l 925 1164 l 978 1132 l 839 921 q 968 585 968 813 m 379 849 q 336 811 379 849 q 252 653 293 772 q 211 390 211 535 q 265 157 211 246 l 731 868 q 581 926 669 926 q 379 849 465 926 m 654 129 q 697 167 654 129 q 782 325 740 206 q 824 585 824 444 q 771 817 824 726 l 304 108 q 465 53 363 53 q 654 129 568 53 z "},"Ù":{"ha":982,"x_min":107,"x_max":1044,"o":"m 717 83 q 665 31 717 83 q 443 -21 614 -21 q 196 83 272 -21 q 139 285 139 163 q 144 369 139 325 l 206 782 q 210 894 210 817 l 107 911 l 124 986 q 278 979 250 979 l 476 986 l 469 904 l 363 894 q 331 740 344 829 l 276 369 q 271 294 271 329 q 304 150 271 208 q 465 68 351 68 q 652 151 579 68 q 744 369 725 233 l 806 782 q 808 894 808 806 l 706 911 l 724 986 q 865 979 836 979 l 1044 986 l 1039 904 l 932 894 q 899 740 915 846 l 844 369 q 717 83 819 188 m 401 1146 l 443 1247 l 751 1108 l 724 1042 l 606 1093 l 401 1146 z "},"Ú":{"ha":982,"x_min":107,"x_max":1044,"o":"m 717 83 q 665 31 717 83 q 443 -21 614 -21 q 196 83 272 -21 q 139 285 139 163 q 144 369 139 325 l 206 782 q 210 894 210 817 l 107 911 l 124 986 q 278 979 250 979 l 476 986 l 469 904 l 363 894 q 331 740 344 829 l 276 369 q 271 294 271 329 q 304 150 271 208 q 465 68 351 68 q 652 151 579 68 q 744 369 725 233 l 806 782 q 808 894 808 806 l 706 911 l 724 986 q 865 979 836 979 l 1044 986 l 1039 904 l 932 894 q 899 740 915 846 l 844 369 q 717 83 819 188 m 764 1247 l 804 1146 q 600 1093 626 1101 l 482 1042 l 454 1108 l 764 1247 z "},"Û":{"ha":982,"x_min":107,"x_max":1044,"o":"m 717 83 q 665 31 717 83 q 443 -21 614 -21 q 196 83 272 -21 q 139 285 139 163 q 144 369 139 325 l 206 782 q 210 894 210 817 l 107 911 l 124 986 q 278 979 250 979 l 476 986 l 469 904 l 363 894 q 331 740 344 829 l 276 369 q 271 294 271 329 q 304 150 271 208 q 465 68 351 68 q 652 151 579 68 q 744 369 725 233 l 806 782 q 808 894 808 806 l 706 911 l 724 986 q 865 979 836 979 l 1044 986 l 1039 904 l 932 894 q 899 740 915 846 l 844 369 q 717 83 819 188 m 621 1240 l 833 1092 l 794 1038 l 685 1094 l 606 1129 q 572 1117 593 1125 q 536 1103 551 1108 q 514 1094 521 1097 l 388 1038 l 365 1092 l 621 1240 z "},"Ü":{"ha":982,"x_min":107,"x_max":1044,"o":"m 717 83 q 665 31 717 83 q 443 -21 614 -21 q 196 83 272 -21 q 139 285 139 163 q 144 369 139 325 l 206 782 q 210 894 210 817 l 107 911 l 124 986 q 278 979 250 979 l 476 986 l 469 904 l 363 894 q 331 740 344 829 l 276 369 q 271 294 271 329 q 304 150 271 208 q 465 68 351 68 q 652 151 579 68 q 744 369 725 233 l 806 782 q 808 894 808 806 l 706 911 l 724 986 q 865 979 836 979 l 1044 986 l 1039 904 l 932 894 q 899 740 915 846 l 844 369 q 717 83 819 188 m 778 1228 q 840 1161 840 1228 q 818 1090 840 1117 q 754 1063 796 1063 q 692 1128 692 1063 q 714 1200 692 1172 q 778 1228 736 1228 m 460 1228 q 524 1161 524 1228 q 501 1090 524 1117 q 436 1063 478 1063 q 374 1128 374 1063 q 396 1200 374 1172 q 460 1228 418 1228 z "},"Ý":{"ha":896,"x_min":89,"x_max":961,"o":"m 957 918 l 863 894 q 757 757 803 829 l 513 381 l 492 232 q 479 85 479 144 l 597 75 l 576 -7 q 378 0 488 0 l 219 -7 l 222 63 l 332 85 q 339 114 333 90 q 358 190 356 172 l 383 358 l 233 772 q 186 874 218 819 l 176 890 l 89 904 l 107 979 l 253 979 l 456 986 l 451 918 l 342 890 q 376 740 347 822 l 475 478 l 676 803 l 725 890 l 628 904 l 644 979 l 767 979 l 961 986 l 957 918 m 719 1247 l 760 1146 q 556 1093 582 1101 l 438 1042 l 410 1108 l 719 1247 z "},"Þ":{"ha":788,"x_min":63,"x_max":825,"o":"m 564 796 q 757 734 689 796 q 825 553 825 672 q 715 299 825 392 q 447 207 604 207 q 328 210 406 207 q 319 85 319 146 l 439 75 l 418 -7 q 222 0 331 0 l 63 -7 l 67 63 l 175 85 q 203 190 200 165 l 290 789 q 293 894 293 813 l 193 911 l 211 986 q 365 979 339 979 l 551 986 l 544 904 l 438 894 q 414 788 429 872 q 564 796 517 796 m 429 276 q 624 344 551 276 q 697 539 697 413 q 644 678 697 631 q 496 726 592 726 q 401 718 476 726 l 339 283 q 429 276 394 276 z "},"ß":{"ha":701,"x_min":-269,"x_max":703,"o":"m 531 1069 q 571 1069 531 1069 q 657 1028 611 1069 q 703 906 703 986 q 676 807 703 853 q 613 728 650 761 q 539 665 575 696 q 449 532 449 590 q 521 421 449 481 q 581 367 551 396 q 653 208 653 299 q 585 52 653 118 q 437 -14 517 -14 q 307 14 357 -14 q 235 75 257 42 l 289 164 q 431 56 354 56 q 513 85 482 56 q 543 156 543 114 q 523 228 543 199 q 474 283 503 257 q 417 336 444 308 q 347 496 347 406 q 373 591 347 547 q 435 665 399 635 q 507 725 471 696 q 594 876 594 796 q 482 982 594 982 q 395 964 443 982 q 335 928 347 946 q 261 686 288 858 q 217 372 251 625 q 161 -13 182 119 q 39 -236 140 -146 q -231 -326 -62 -326 l -269 -325 l -235 -232 q -158 -239 -197 -239 q -63 -220 -119 -239 q 4 -183 -7 -201 q 133 492 69 -76 q 157 685 153 657 q 203 853 169 781 q 278 965 238 925 q 369 1031 318 1006 q 531 1069 451 1069 z "},"à":{"ha":735,"x_min":40,"x_max":668,"o":"m 456 247 q 325 56 397 128 q 182 -15 253 -15 q 42 186 42 -15 q 42 193 42 189 q 90 417 42 297 q 210 619 138 538 q 349 700 283 700 q 447 691 386 700 q 521 681 508 682 l 603 700 l 636 678 q 572 378 594 508 q 544 97 549 247 l 668 90 l 664 40 l 451 -21 l 415 0 q 456 247 436 94 m 229 76 q 326 154 269 76 q 428 350 382 232 q 488 571 475 468 q 329 619 379 619 q 258 553 296 619 q 194 388 219 486 q 168 220 168 290 q 185 113 168 150 q 229 76 201 76 m 571 840 l 526 783 l 428 867 l 265 965 l 329 1049 l 571 840 z "},"á":{"ha":735,"x_min":40,"x_max":668,"o":"m 456 247 q 325 56 397 128 q 182 -15 253 -15 q 42 186 42 -15 q 42 193 42 189 q 90 417 42 297 q 210 619 138 538 q 349 700 283 700 q 447 691 386 700 q 521 681 508 682 l 603 700 l 636 678 q 572 378 594 508 q 544 97 549 247 l 668 90 l 664 40 l 451 -21 l 415 0 q 456 247 436 94 m 229 76 q 326 154 269 76 q 428 350 382 232 q 488 571 475 468 q 329 619 379 619 q 258 553 296 619 q 194 388 219 486 q 168 220 168 290 q 185 113 168 150 q 229 76 201 76 m 558 1049 l 621 965 q 458 867 478 882 l 360 783 l 315 840 l 558 1049 z "},"â":{"ha":735,"x_min":40,"x_max":668,"o":"m 456 247 q 325 56 397 128 q 182 -15 253 -15 q 42 186 42 -15 q 42 193 42 189 q 90 417 42 297 q 210 619 138 538 q 349 700 283 700 q 447 691 386 700 q 521 681 508 682 l 603 700 l 636 678 q 572 378 594 508 q 544 97 549 247 l 668 90 l 664 40 l 451 -21 l 415 0 q 456 247 436 94 m 229 76 q 326 154 269 76 q 428 350 382 232 q 488 571 475 468 q 329 619 379 619 q 258 553 296 619 q 194 388 219 486 q 168 220 168 290 q 185 113 168 150 q 229 76 201 76 m 468 1063 l 657 828 l 606 783 l 518 868 l 447 928 q 394 892 426 914 q 358 868 363 871 l 247 783 l 210 828 l 468 1063 z "},"ã":{"ha":735,"x_min":40,"x_max":674,"o":"m 456 247 q 325 56 397 128 q 182 -15 253 -15 q 42 186 42 -15 q 42 193 42 189 q 90 417 42 297 q 210 619 138 538 q 349 700 283 700 q 447 691 386 700 q 521 681 508 682 l 603 700 l 636 678 q 572 378 594 508 q 544 97 549 247 l 668 90 l 664 40 l 451 -21 l 415 0 q 456 247 436 94 m 229 76 q 326 154 269 76 q 428 350 382 232 q 488 571 475 468 q 329 619 379 619 q 258 553 296 619 q 194 388 219 486 q 168 220 168 290 q 185 113 168 150 q 229 76 201 76 m 606 882 q 585 860 606 882 q 540 839 565 839 q 442 867 514 839 q 348 896 369 896 q 306 877 326 896 q 272 839 285 858 l 260 821 l 215 850 q 284 947 244 903 q 349 990 324 990 q 448 962 375 990 q 542 933 521 933 q 617 986 578 933 l 629 1004 l 674 975 q 606 882 646 925 z "},"ä":{"ha":735,"x_min":40,"x_max":676,"o":"m 456 247 q 325 56 397 128 q 182 -15 253 -15 q 42 186 42 -15 q 42 193 42 189 q 90 417 42 297 q 210 619 138 538 q 349 700 283 700 q 447 691 386 700 q 521 681 508 682 l 603 700 l 636 678 q 572 378 594 508 q 544 97 549 247 l 668 90 l 664 40 l 451 -21 l 415 0 q 456 247 436 94 m 229 76 q 326 154 269 76 q 428 350 382 232 q 488 571 475 468 q 329 619 379 619 q 258 553 296 619 q 194 388 219 486 q 168 220 168 290 q 185 113 168 150 q 229 76 201 76 m 615 990 q 676 924 676 990 q 655 852 676 879 q 592 825 633 825 q 529 890 529 825 q 551 963 529 935 q 615 990 574 990 m 297 990 q 360 924 360 990 q 337 852 360 879 q 274 825 314 825 q 211 890 211 825 q 233 963 211 935 q 297 990 256 990 z "},"å":{"ha":735,"x_min":40,"x_max":668,"o":"m 456 247 q 325 56 397 128 q 182 -15 253 -15 q 42 186 42 -15 q 42 193 42 189 q 90 417 42 297 q 210 619 138 538 q 349 700 283 700 q 447 691 386 700 q 521 681 508 682 l 603 700 l 636 678 q 572 378 594 508 q 544 97 549 247 l 668 90 l 664 40 l 451 -21 l 415 0 q 456 247 436 94 m 229 76 q 326 154 269 76 q 428 350 382 232 q 488 571 475 468 q 329 619 379 619 q 258 553 296 619 q 194 388 219 486 q 168 220 168 290 q 185 113 168 150 q 229 76 201 76 m 324 904 q 360 1005 324 967 q 457 1043 397 1043 q 568 944 568 1043 q 533 844 568 882 q 438 806 497 806 q 324 904 324 806 m 457 990 q 407 967 424 990 q 390 911 390 943 q 438 858 390 858 q 488 882 472 858 q 504 938 504 906 q 457 990 504 990 z "},"æ":{"ha":925,"x_min":40,"x_max":910,"o":"m 708 699 q 910 589 910 699 q 813 405 910 483 q 542 292 715 326 q 535 207 535 243 q 618 69 535 69 q 835 213 731 69 l 878 181 q 572 -14 760 -14 q 414 163 426 -14 q 185 -14 301 -14 q 40 193 40 -14 q 90 417 40 297 q 212 617 139 536 q 342 699 285 699 q 628 664 399 699 q 708 699 671 699 m 226 69 q 331 150 271 69 q 438 351 390 231 q 497 575 486 471 q 329 624 394 624 q 219 478 278 624 q 161 206 161 333 q 179 107 161 144 q 226 69 197 69 m 703 617 q 622 538 665 617 q 554 354 579 458 q 729 432 663 378 q 796 553 796 486 q 774 602 796 588 q 703 617 753 617 z "},"ç":{"ha":551,"x_min":39,"x_max":549,"o":"m 86 416 q 109 476 86 416 q 199 617 132 536 q 321 699 265 699 q 528 679 376 699 l 549 646 l 496 442 l 446 444 l 438 576 q 321 606 354 606 q 220 467 274 606 q 167 201 167 329 q 250 74 167 74 q 464 214 358 74 l 508 181 q 232 -12 400 4 l 208 -82 q 296 -111 263 -83 q 329 -194 329 -139 q 281 -287 329 -249 q 169 -326 233 -326 q 57 -301 104 -326 l 81 -253 q 162 -268 129 -268 q 217 -248 194 -268 q 240 -193 240 -228 q 186 -143 240 -143 l 157 -144 l 143 -131 l 169 -12 q 40 186 40 7 q 40 193 40 189 q 86 416 40 296 z "},"è":{"ha":558,"x_min":40,"x_max":560,"o":"m 339 699 q 543 588 543 699 q 445 403 543 482 q 172 290 347 325 q 167 207 167 251 q 250 72 167 72 q 464 214 360 72 l 510 179 q 372 35 451 86 q 207 -15 292 -15 q 40 193 38 -15 q 89 417 40 297 q 208 617 138 536 q 339 699 279 699 m 421 551 q 400 599 421 585 q 337 614 379 614 q 252 536 294 614 q 185 354 210 458 q 356 431 290 378 q 421 551 421 485 m 560 840 l 515 783 l 417 867 l 254 965 l 318 1049 l 560 840 z "},"é":{"ha":558,"x_min":40,"x_max":583,"o":"m 339 699 q 543 588 543 699 q 445 403 543 482 q 172 290 347 325 q 167 207 167 251 q 250 72 167 72 q 464 214 360 72 l 510 179 q 372 35 451 86 q 207 -15 292 -15 q 40 193 38 -15 q 89 417 40 297 q 208 617 138 536 q 339 699 279 699 m 421 551 q 400 599 421 585 q 337 614 379 614 q 252 536 294 614 q 185 354 210 458 q 356 431 290 378 q 421 551 421 485 m 521 1049 l 583 965 q 421 867 440 882 l 322 783 l 278 840 l 521 1049 z "},"ê":{"ha":558,"x_min":40,"x_max":619,"o":"m 339 699 q 543 588 543 699 q 445 403 543 482 q 172 290 347 325 q 167 207 167 251 q 250 72 167 72 q 464 214 360 72 l 510 179 q 372 35 451 86 q 207 -15 292 -15 q 40 193 38 -15 q 89 417 40 297 q 208 617 138 536 q 339 699 279 699 m 431 1063 l 619 828 l 568 783 l 481 868 l 410 928 q 357 892 389 914 q 321 868 325 871 l 210 783 l 172 828 l 431 1063 m 421 551 q 400 599 421 585 q 337 614 379 614 q 252 536 294 614 q 185 354 210 458 q 356 431 290 378 q 421 551 421 485 z "},"ë":{"ha":558,"x_min":40,"x_max":639,"o":"m 339 699 q 543 588 543 699 q 445 403 543 482 q 172 290 347 325 q 167 207 167 251 q 250 72 167 72 q 464 214 360 72 l 510 179 q 372 35 451 86 q 207 -15 292 -15 q 40 193 38 -15 q 89 417 40 297 q 208 617 138 536 q 339 699 279 699 m 421 551 q 400 599 421 585 q 337 614 379 614 q 252 536 294 614 q 185 354 210 458 q 356 431 290 378 q 421 551 421 485 m 260 990 q 322 924 322 990 q 299 852 322 879 q 236 825 276 825 q 174 890 174 825 q 196 963 174 935 q 260 990 218 990 m 578 990 q 639 924 639 990 q 617 852 639 879 q 554 825 596 825 q 492 890 492 825 q 514 963 492 935 q 578 990 536 990 z "},"ì":{"ha":411,"x_min":67,"x_max":408,"o":"m 293 699 l 322 672 q 221 96 279 519 l 346 89 l 342 40 l 119 -21 l 85 0 q 149 298 131 183 q 183 582 168 413 l 68 588 l 67 639 l 293 699 m 408 840 l 364 783 l 265 867 l 103 965 l 167 1049 l 408 840 z "},"í":{"ha":411,"x_min":67,"x_max":460,"o":"m 293 699 l 322 672 q 221 96 279 519 l 346 89 l 342 40 l 119 -21 l 85 0 q 149 298 131 183 q 183 582 168 413 l 68 588 l 67 639 l 293 699 m 397 1049 l 460 965 q 297 867 317 882 l 199 783 l 154 840 l 397 1049 z "},"î":{"ha":411,"x_min":49,"x_max":496,"o":"m 293 699 l 322 672 q 221 96 279 519 l 346 89 l 342 40 l 119 -21 l 85 0 q 149 298 131 183 q 183 582 168 413 l 68 588 l 67 639 l 293 699 m 307 1063 l 496 828 l 444 783 l 357 868 l 286 928 q 233 892 265 914 q 197 868 201 871 l 86 783 l 49 828 l 307 1063 z "},"ï":{"ha":411,"x_min":67,"x_max":501,"o":"m 440 990 q 501 924 501 990 q 480 852 501 879 q 417 825 458 825 q 354 890 354 825 q 376 963 354 935 q 440 990 399 990 m 203 990 q 265 924 265 990 q 242 852 265 879 q 179 825 219 825 q 117 890 117 825 q 139 963 117 935 q 203 990 161 990 m 293 699 l 322 672 q 221 96 279 519 l 346 89 l 342 40 l 119 -21 l 85 0 q 149 298 131 183 q 183 582 168 413 l 68 588 l 67 639 l 293 699 z "},"ð":{"ha":665,"x_min":44,"x_max":696,"o":"m 517 172 q 406 38 475 90 q 253 -14 338 -14 q 46 222 46 -14 q 140 542 46 396 q 251 655 185 611 q 385 699 318 699 q 492 679 451 699 q 449 850 481 771 l 269 764 l 246 813 l 426 900 q 340 1035 399 954 l 404 1063 q 497 933 461 994 l 674 1019 l 696 968 l 524 885 q 603 535 603 726 q 517 172 603 343 m 500 547 l 499 604 q 390 633 447 633 q 289 594 333 633 q 219 494 244 556 q 169 238 169 372 q 258 51 169 51 q 370 103 321 51 q 446 233 419 154 q 500 547 500 399 z "},"ñ":{"ha":796,"x_min":68,"x_max":740,"o":"m 586 700 q 686 586 686 700 q 652 354 686 524 q 613 97 618 185 l 740 90 l 736 40 l 499 -21 l 464 0 q 556 521 556 394 q 508 593 556 593 q 366 465 453 593 q 233 140 279 336 l 214 0 l 119 -21 l 83 0 q 149 297 129 181 q 183 581 168 414 l 68 586 l 68 640 l 297 700 l 329 672 q 278 436 306 594 q 414 622 333 544 q 586 700 494 700 m 667 882 q 647 860 667 882 q 601 839 626 839 q 503 867 575 839 q 409 896 431 896 q 367 877 388 896 q 333 839 346 858 l 321 821 l 276 850 q 345 947 306 903 q 410 990 385 990 q 509 962 436 990 q 603 933 582 933 q 646 951 625 933 q 678 986 667 969 l 690 1004 l 735 975 q 667 882 707 925 z "},"ò":{"ha":656,"x_min":44,"x_max":610,"o":"m 408 700 q 558 638 506 700 q 610 460 610 575 q 501 126 610 268 q 246 -15 393 -15 q 97 48 149 -15 q 44 226 44 111 q 153 558 44 417 q 408 700 261 700 m 475 456 q 475 538 475 456 q 385 621 475 621 q 237 508 294 621 q 179 229 179 394 q 269 64 179 64 q 417 177 360 64 q 475 456 475 290 m 583 840 l 539 783 l 440 867 l 278 965 l 342 1049 l 583 840 z "},"ó":{"ha":656,"x_min":44,"x_max":633,"o":"m 408 700 q 558 638 506 700 q 610 460 610 575 q 501 126 610 268 q 246 -15 393 -15 q 97 48 149 -15 q 44 226 44 111 q 153 558 44 417 q 408 700 261 700 m 475 456 q 475 538 475 456 q 385 621 475 621 q 237 508 294 621 q 179 229 179 394 q 269 64 179 64 q 417 177 360 64 q 475 456 475 290 m 571 1049 l 633 965 q 471 867 490 882 l 372 783 l 328 840 l 571 1049 z "},"ô":{"ha":656,"x_min":44,"x_max":669,"o":"m 408 700 q 558 638 506 700 q 610 460 610 575 q 501 126 610 268 q 246 -15 393 -15 q 97 48 149 -15 q 44 226 44 111 q 153 558 44 417 q 408 700 261 700 m 475 456 q 475 538 475 456 q 385 621 475 621 q 237 508 294 621 q 179 229 179 394 q 269 64 179 64 q 417 177 360 64 q 475 456 475 290 m 481 1063 l 669 828 l 618 783 l 531 868 l 460 928 q 407 892 439 914 q 371 868 375 871 l 260 783 l 222 828 l 481 1063 z "},"õ":{"ha":656,"x_min":44,"x_max":686,"o":"m 408 700 q 558 638 506 700 q 610 460 610 575 q 501 126 610 268 q 246 -15 393 -15 q 97 48 149 -15 q 44 226 44 111 q 153 558 44 417 q 408 700 261 700 m 475 456 q 475 538 475 456 q 385 621 475 621 q 237 508 294 621 q 179 229 179 394 q 269 64 179 64 q 417 177 360 64 q 475 456 475 290 m 618 882 q 598 860 618 882 q 552 839 578 839 q 454 867 526 839 q 360 896 382 896 q 318 877 339 896 q 285 839 297 858 l 272 821 l 228 850 q 297 947 257 903 q 362 990 336 990 q 460 962 388 990 q 556 933 533 933 q 629 986 590 933 l 642 1004 l 686 975 q 618 882 658 925 z "},"ö":{"ha":656,"x_min":44,"x_max":689,"o":"m 408 700 q 558 638 506 700 q 610 460 610 575 q 501 126 610 268 q 246 -15 393 -15 q 97 48 149 -15 q 44 226 44 111 q 153 558 44 417 q 408 700 261 700 m 475 456 q 475 538 475 456 q 385 621 475 621 q 237 508 294 621 q 179 229 179 394 q 269 64 179 64 q 417 177 360 64 q 475 456 475 290 m 628 990 q 689 924 689 990 q 667 852 689 879 q 604 825 646 825 q 542 890 542 825 q 564 963 542 935 q 628 990 586 990 m 310 990 q 372 924 372 990 q 349 852 372 879 q 286 825 326 825 q 224 890 224 825 q 246 963 224 935 q 310 990 268 990 z "},"÷":{"ha":757,"x_min":67,"x_max":685,"o":"m 79 388 l 685 394 l 671 296 l 67 296 l 79 388 m 357 165 q 421 96 418 165 q 396 20 421 54 q 333 -14 371 -14 q 269 54 272 -14 q 295 131 271 97 q 357 165 319 165 m 425 692 q 490 622 490 692 q 464 547 489 581 q 401 513 439 513 q 339 581 339 513 q 364 658 340 624 q 425 692 388 692 z "},"ø":{"ha":656,"x_min":-15,"x_max":667,"o":"m 408 700 q 511 676 467 700 l 614 831 l 667 803 l 557 639 q 610 460 610 575 q 501 126 610 268 q 246 -15 393 -15 q 136 13 183 -15 l 36 -137 l -15 -110 l 93 51 q 44 226 44 115 q 153 558 44 417 q 408 700 261 700 m 475 463 q 472 513 475 482 l 200 107 q 269 64 222 64 q 417 177 360 64 q 475 463 475 290 m 385 621 q 237 508 294 621 q 179 221 179 394 q 181 183 179 194 l 450 585 q 385 621 426 621 z "},"ù":{"ha":778,"x_min":57,"x_max":711,"o":"m 192 -15 q 117 21 143 -15 q 92 111 92 57 q 128 325 92 165 q 172 581 164 485 l 57 586 l 57 640 l 288 700 l 318 672 q 221 165 224 315 q 268 94 221 94 q 406 217 324 94 q 550 593 489 340 l 563 678 l 664 700 l 697 678 q 624 363 646 479 q 588 96 601 247 l 711 90 l 707 40 l 479 -21 l 443 0 q 499 257 469 93 q 355 59 435 133 q 192 -15 275 -15 m 578 840 l 533 783 l 435 867 l 272 965 l 336 1049 l 578 840 z "},"ú":{"ha":778,"x_min":57,"x_max":711,"o":"m 192 -15 q 117 21 143 -15 q 92 111 92 57 q 128 325 92 165 q 172 581 164 485 l 57 586 l 57 640 l 288 700 l 318 672 q 221 165 224 315 q 268 94 221 94 q 406 217 324 94 q 550 593 489 340 l 563 678 l 664 700 l 697 678 q 624 363 646 479 q 588 96 601 247 l 711 90 l 707 40 l 479 -21 l 443 0 q 499 257 469 93 q 355 59 435 133 q 192 -15 275 -15 m 567 1049 l 629 965 q 467 867 486 882 l 368 783 l 324 840 l 567 1049 z "},"û":{"ha":778,"x_min":57,"x_max":711,"o":"m 192 -15 q 117 21 143 -15 q 92 111 92 57 q 128 325 92 165 q 172 581 164 485 l 57 586 l 57 640 l 288 700 l 318 672 q 221 165 224 315 q 268 94 221 94 q 406 217 324 94 q 550 593 489 340 l 563 678 l 664 700 l 697 678 q 624 363 646 479 q 588 96 601 247 l 711 90 l 707 40 l 479 -21 l 443 0 q 499 257 469 93 q 355 59 435 133 q 192 -15 275 -15 m 475 1063 l 664 828 l 613 783 l 525 868 l 454 928 q 401 892 433 914 q 365 868 369 871 l 254 783 l 217 828 l 475 1063 z "},"ü":{"ha":778,"x_min":57,"x_max":711,"o":"m 192 -15 q 117 21 143 -15 q 92 111 92 57 q 128 325 92 165 q 172 581 164 485 l 57 586 l 57 640 l 288 700 l 318 672 q 221 165 224 315 q 268 94 221 94 q 406 217 324 94 q 550 593 489 340 l 563 678 l 664 700 l 697 678 q 624 363 646 479 q 588 96 601 247 l 711 90 l 707 40 l 479 -21 l 443 0 q 499 257 469 93 q 355 59 435 133 q 192 -15 275 -15 m 304 990 q 367 924 367 990 q 344 852 367 879 q 281 825 321 825 q 218 890 218 825 q 240 963 218 935 q 304 990 263 990 m 622 990 q 683 924 683 990 q 662 852 683 879 q 599 825 640 825 q 536 890 536 825 q 558 963 536 935 q 622 990 581 990 z "},"ý":{"ha":733,"x_min":-4,"x_max":681,"o":"m 419 -256 q 390 -274 419 -256 q 301 -310 361 -293 q 185 -326 240 -326 q 74 -318 129 -326 q -4 -299 18 -310 l 40 -190 q 219 -226 139 -226 q 351 -209 300 -226 q 421 -176 403 -192 q 450 -78 435 -161 q 496 254 465 6 q 353 58 432 132 q 192 -15 275 -15 q 117 21 143 -15 q 92 111 92 57 q 128 325 92 165 q 172 581 164 485 l 57 586 l 57 640 l 288 700 l 318 672 q 221 165 221 297 q 268 94 221 94 q 412 226 329 94 q 547 581 494 357 l 436 586 l 428 640 l 647 700 l 681 678 q 594 231 624 456 q 571 19 588 168 q 519 -147 560 -76 q 419 -256 478 -218 m 561 1049 l 624 965 q 461 867 481 882 l 363 783 l 318 840 l 561 1049 z "},"þ":{"ha":676,"x_min":6,"x_max":640,"o":"m 500 699 q 640 492 640 699 q 592 268 640 388 q 471 67 543 149 q 335 -14 399 -14 q 245 -6 311 -14 q 175 3 179 3 q 129 -364 142 -239 l 42 -385 l 6 -364 q 117 263 57 -175 q 203 961 178 700 l 86 979 l 83 1031 l 308 1069 l 339 1043 l 263 997 l 339 1043 q 244 469 303 854 q 367 637 301 575 q 500 699 433 699 m 457 615 q 358 535 417 615 q 252 333 300 454 q 194 108 204 211 q 354 61 294 61 q 463 206 406 61 q 519 479 519 350 q 502 578 519 540 q 457 615 485 615 z "},"ÿ":{"ha":733,"x_min":-4,"x_max":681,"o":"m 419 -256 q 390 -274 419 -256 q 301 -310 361 -293 q 185 -326 240 -326 q 74 -318 129 -326 q -4 -299 18 -310 l 40 -190 q 219 -226 139 -226 q 351 -209 300 -226 q 421 -176 403 -192 q 450 -78 435 -161 q 496 254 465 6 q 353 58 432 132 q 192 -15 275 -15 q 117 21 143 -15 q 92 111 92 57 q 128 325 92 165 q 172 581 164 485 l 57 586 l 57 640 l 288 700 l 318 672 q 221 165 221 297 q 268 94 221 94 q 412 226 329 94 q 547 581 494 357 l 436 586 l 428 640 l 647 700 l 681 678 q 594 231 624 456 q 571 19 588 168 q 519 -147 560 -76 q 419 -256 478 -218 m 617 990 q 678 924 678 990 q 656 852 678 879 q 593 825 635 825 q 531 890 531 825 q 553 963 531 935 q 617 990 575 990 m 299 990 q 361 924 361 990 q 338 852 361 879 q 275 825 315 825 q 213 890 213 825 q 235 963 213 935 q 299 990 257 990 z "},"Ā":{"ha":894,"x_min":-32,"x_max":850,"o":"m 850 75 l 833 0 l 697 0 l 500 -7 l 506 61 l 607 89 l 593 239 l 578 322 l 283 322 l 219 176 l 193 89 l 285 75 l 268 0 l 150 0 l -32 -7 l -28 61 l 60 85 l 138 222 l 485 979 l 568 993 l 735 207 l 769 89 l 850 75 m 492 774 l 318 392 l 561 397 l 492 774 m 747 1085 l 319 1085 l 331 1158 l 765 1158 l 747 1085 z "},"ā":{"ha":735,"x_min":40,"x_max":668,"o":"m 456 247 q 325 56 397 128 q 182 -15 253 -15 q 42 186 42 -15 q 42 193 42 189 q 90 417 42 297 q 210 619 138 538 q 349 700 283 700 q 447 691 386 700 q 521 681 508 682 l 603 700 l 636 678 q 572 378 594 508 q 544 97 549 247 l 668 90 l 664 40 l 451 -21 l 415 0 q 456 247 436 94 m 229 76 q 326 154 269 76 q 428 350 382 232 q 488 571 475 468 q 329 619 379 619 q 258 553 296 619 q 194 388 219 486 q 168 220 168 290 q 185 113 168 150 q 229 76 201 76 m 649 842 l 221 842 l 232 915 l 667 915 l 649 842 z "},"Ă":{"ha":894,"x_min":-32,"x_max":850,"o":"m 850 75 l 833 0 l 697 0 l 500 -7 l 506 61 l 607 89 l 593 239 l 578 322 l 283 322 l 219 176 l 193 89 l 285 75 l 268 0 l 150 0 l -32 -7 l -28 61 l 60 85 l 138 222 l 485 979 l 568 993 l 735 207 l 769 89 l 850 75 m 492 774 l 318 392 l 561 397 l 492 774 m 728 1247 q 659 1103 714 1153 q 513 1053 604 1053 q 381 1103 422 1053 q 350 1203 350 1140 q 354 1247 350 1224 l 429 1247 q 428 1226 428 1236 q 451 1159 428 1188 q 524 1131 474 1131 q 610 1163 575 1131 q 653 1247 646 1194 l 728 1247 z "},"ă":{"ha":735,"x_min":40,"x_max":668,"o":"m 456 247 q 325 56 397 128 q 182 -15 253 -15 q 42 186 42 -15 q 42 193 42 189 q 90 417 42 297 q 210 619 138 538 q 349 700 283 700 q 447 691 386 700 q 521 681 508 682 l 603 700 l 636 678 q 572 378 594 508 q 544 97 549 247 l 668 90 l 664 40 l 451 -21 l 415 0 q 456 247 436 94 m 229 76 q 326 154 269 76 q 428 350 382 232 q 488 571 475 468 q 329 619 379 619 q 258 553 296 619 q 194 388 219 486 q 168 220 168 290 q 185 113 168 150 q 229 76 201 76 m 646 1010 q 577 865 632 915 q 431 815 522 815 q 300 865 340 815 q 268 965 268 903 q 272 1010 268 986 l 347 1010 q 346 989 346 999 q 369 922 346 950 q 442 893 392 893 q 528 925 493 893 q 571 1010 564 957 l 646 1010 z "},"Ą":{"ha":890,"x_min":-36,"x_max":846,"o":"m 476 -153 q 493 -198 476 -181 q 542 -215 510 -215 q 618 -197 574 -215 l 631 -243 q 508 -274 561 -274 q 422 -247 454 -274 q 389 -169 389 -221 q 416 -83 389 -118 q 519 13 443 -49 q 596 163 596 74 q 590 239 596 186 l 575 322 l 279 322 l 215 176 l 188 89 l 281 75 l 263 0 l 147 0 l -36 -7 l -32 61 l 57 85 l 135 222 l 486 979 l 565 993 l 729 207 l 764 89 l 846 75 l 828 0 l 633 0 q 522 -56 567 -8 q 476 -153 476 -104 m 486 774 l 313 392 l 560 397 l 486 774 z "},"ą":{"ha":735,"x_min":40,"x_max":668,"o":"m 383 -160 q 447 -215 383 -215 q 526 -197 482 -215 l 538 -243 q 417 -274 472 -274 q 329 -247 363 -274 q 296 -169 296 -219 q 320 -85 296 -119 q 415 3 344 -51 q 456 247 446 169 q 325 56 397 128 q 182 -15 253 -15 q 42 186 42 -15 q 42 193 42 189 q 90 417 42 297 q 210 619 138 538 q 349 700 283 700 q 447 691 386 700 q 521 681 508 682 l 603 700 l 636 678 q 572 378 594 508 q 544 97 549 247 l 668 90 l 664 40 l 456 -19 q 383 -160 383 -99 m 229 76 q 326 154 269 76 q 428 350 382 232 q 488 571 475 468 q 329 619 379 619 q 258 553 296 619 q 194 388 219 486 q 168 220 168 290 q 185 113 168 150 q 229 76 201 76 z "},"Ć":{"ha":824,"x_min":68,"x_max":853,"o":"m 446 -21 q 167 91 267 -21 q 68 390 68 203 q 203 829 68 658 q 581 1000 339 1000 q 822 961 686 1000 q 853 953 847 954 l 810 747 l 729 753 l 739 818 q 739 833 739 821 q 733 888 739 844 q 569 919 644 919 q 375 844 458 919 q 251 651 292 768 q 211 390 211 533 q 276 153 211 246 q 456 60 340 60 q 629 90 528 60 q 660 168 657 154 l 672 233 l 753 236 l 731 26 q 670 10 694 14 q 617 -1 646 6 q 575 -10 589 -8 q 536 -14 561 -11 q 446 -21 492 -21 m 738 1247 l 778 1146 q 574 1093 600 1101 l 456 1042 l 428 1108 l 738 1247 z "},"ć":{"ha":551,"x_min":39,"x_max":586,"o":"m 86 416 q 109 476 86 416 q 199 617 132 536 q 321 699 265 699 q 528 679 376 699 l 549 646 l 496 442 l 446 444 l 438 576 q 321 606 354 606 q 220 467 274 606 q 167 201 167 329 q 250 74 167 74 q 464 214 358 74 l 508 181 q 200 -15 388 -15 q 80 38 121 -15 q 40 194 39 92 q 86 416 40 296 m 524 1049 l 586 965 q 424 867 443 882 l 325 783 l 281 840 l 524 1049 z "},"Ĉ":{"ha":824,"x_min":68,"x_max":853,"o":"m 446 -21 q 167 91 267 -21 q 68 390 68 203 q 203 829 68 658 q 581 1000 339 1000 q 822 961 686 1000 q 853 953 847 954 l 810 747 l 729 753 l 739 818 q 739 833 739 821 q 733 888 739 844 q 569 919 644 919 q 375 844 458 919 q 251 651 292 768 q 211 390 211 533 q 276 153 211 246 q 456 60 340 60 q 629 90 528 60 q 660 168 657 154 l 672 233 l 753 236 l 731 26 q 670 10 694 14 q 617 -1 646 6 q 575 -10 589 -8 q 536 -14 561 -11 q 446 -21 492 -21 m 596 1240 l 808 1092 l 769 1038 l 660 1094 l 581 1129 q 547 1117 568 1125 q 511 1103 526 1108 q 489 1094 496 1097 l 363 1038 l 340 1092 l 596 1240 z "},"ĉ":{"ha":551,"x_min":39,"x_max":621,"o":"m 86 416 q 109 476 86 416 q 199 617 132 536 q 321 699 265 699 q 528 679 376 699 l 549 646 l 496 442 l 446 444 l 438 576 q 321 606 354 606 q 220 467 274 606 q 167 201 167 329 q 250 74 167 74 q 464 214 358 74 l 508 181 q 200 -15 388 -15 q 80 38 121 -15 q 40 194 39 92 q 86 416 40 296 m 432 1063 l 621 828 l 569 783 l 482 868 l 411 928 q 358 892 390 914 q 322 868 326 871 l 211 783 l 174 828 l 432 1063 z "},"Ċ":{"ha":824,"x_min":68,"x_max":853,"o":"m 446 -21 q 167 91 267 -21 q 68 390 68 203 q 203 829 68 658 q 581 1000 339 1000 q 822 961 686 1000 q 853 953 847 954 l 810 747 l 729 753 l 739 818 q 739 833 739 821 q 733 888 739 844 q 569 919 644 919 q 375 844 458 919 q 251 651 292 768 q 211 390 211 533 q 276 153 211 246 q 456 60 340 60 q 629 90 528 60 q 660 168 657 154 l 672 233 l 753 236 l 731 26 q 670 10 694 14 q 617 -1 646 6 q 575 -10 589 -8 q 536 -14 561 -11 q 446 -21 492 -21 m 510 1131 q 535 1206 510 1176 q 599 1236 561 1236 q 672 1163 672 1236 q 646 1087 672 1117 q 582 1057 619 1057 q 510 1131 510 1057 z "},"ċ":{"ha":551,"x_min":39,"x_max":549,"o":"m 86 416 q 109 476 86 416 q 199 617 132 536 q 321 699 265 699 q 528 679 376 699 l 549 646 l 496 442 l 446 444 l 438 576 q 321 606 354 606 q 220 467 274 606 q 167 201 167 329 q 250 74 167 74 q 464 214 358 74 l 508 181 q 200 -15 388 -15 q 80 38 121 -15 q 40 194 39 92 q 86 416 40 296 m 328 894 q 353 970 328 940 q 417 1000 379 1000 q 490 926 490 1000 q 464 851 490 881 q 400 821 438 821 q 328 894 328 821 z "},"Č":{"ha":824,"x_min":68,"x_max":853,"o":"m 446 -21 q 167 91 267 -21 q 68 390 68 203 q 203 829 68 658 q 581 1000 339 1000 q 822 961 686 1000 q 853 953 847 954 l 810 747 l 729 753 l 739 818 q 739 833 739 821 q 733 888 739 844 q 569 919 644 919 q 375 844 458 919 q 251 651 292 768 q 211 390 211 533 q 276 153 211 246 q 456 60 340 60 q 629 90 528 60 q 660 168 657 154 l 672 233 l 753 236 l 731 26 q 670 10 694 14 q 617 -1 646 6 q 575 -10 589 -8 q 536 -14 561 -11 q 446 -21 492 -21 m 799 1240 l 822 1186 l 567 1038 l 354 1186 l 392 1240 l 503 1183 l 583 1149 q 674 1183 644 1174 l 799 1240 z "},"č":{"ha":551,"x_min":39,"x_max":649,"o":"m 86 416 q 109 476 86 416 q 199 617 132 536 q 321 699 265 699 q 528 679 376 699 l 549 646 l 496 442 l 446 444 l 438 576 q 321 606 354 606 q 220 467 274 606 q 167 201 167 329 q 250 74 167 74 q 464 214 358 74 l 508 181 q 200 -15 388 -15 q 80 38 121 -15 q 40 194 39 92 q 86 416 40 296 m 253 1063 l 339 978 q 408 918 340 976 l 499 978 l 611 1063 l 649 1018 l 390 783 l 201 1018 l 253 1063 z "},"Ď":{"ha":972,"x_min":13,"x_max":946,"o":"m 414 -8 l 171 0 l 13 -7 l 15 63 l 125 85 q 153 190 146 154 l 240 789 q 243 894 243 813 l 142 911 l 160 986 q 292 979 244 982 q 405 987 326 981 q 532 993 483 993 q 837 883 728 993 q 946 581 946 772 q 802 155 946 318 q 414 -8 658 -8 m 535 910 q 392 903 450 910 q 360 747 372 826 l 285 232 q 271 110 271 135 q 272 79 271 85 q 426 74 339 74 q 642 144 553 74 q 808 572 808 281 q 740 816 808 722 q 535 910 671 910 m 764 1240 l 788 1186 l 532 1038 l 319 1186 l 357 1240 l 468 1183 l 549 1149 q 639 1183 610 1174 l 764 1240 z "},"ď":{"ha":764,"x_min":42,"x_max":858,"o":"m 751 1050 l 858 1050 l 792 713 l 714 717 l 735 847 l 751 1050 m 179 -15 q 42 193 42 -15 q 90 417 42 297 q 212 619 139 538 q 349 700 285 700 q 504 682 364 700 q 533 960 526 865 l 417 976 l 414 1031 l 644 1069 l 676 1042 q 631 786 663 963 q 589 535 600 610 q 549 97 551 299 l 672 90 l 668 40 l 453 -21 l 417 0 q 456 247 450 186 q 324 56 397 128 q 179 -15 251 -15 m 329 619 q 258 553 296 619 q 194 388 219 486 q 168 220 168 290 q 185 113 168 150 q 229 76 201 76 q 326 155 269 76 q 430 351 383 233 q 488 571 476 468 q 329 619 385 619 z "},"Đ":{"ha":972,"x_min":14,"x_max":946,"o":"m 400 -8 l 174 0 l 14 -7 l 18 63 l 126 85 q 154 190 151 165 l 194 468 l 76 468 l 85 528 l 203 528 l 242 789 q 244 894 244 813 l 144 911 l 163 986 q 293 979 247 982 q 412 987 328 981 q 546 993 496 993 q 843 883 740 993 q 946 579 946 774 q 795 156 946 319 q 400 -8 644 -8 m 414 74 q 707 219 601 74 q 813 571 813 364 q 743 815 813 721 q 536 910 674 910 q 390 903 446 910 q 357 747 367 814 l 325 528 l 518 528 l 503 468 l 317 468 l 282 232 q 269 79 269 146 q 414 74 339 74 z "},"đ":{"ha":739,"x_min":42,"x_max":750,"o":"m 179 -15 q 42 193 42 -15 q 90 417 42 297 q 212 619 139 538 q 349 700 285 700 q 504 682 364 700 q 515 782 513 749 l 358 782 l 368 843 l 522 843 l 533 960 l 417 976 l 414 1031 l 644 1069 l 676 1042 l 642 843 l 750 843 l 740 782 l 629 782 q 569 408 589 556 q 549 97 550 261 l 672 90 l 668 40 l 453 -21 l 417 0 q 456 247 450 186 q 324 56 397 128 q 179 -15 251 -15 m 329 619 q 258 553 296 619 q 194 388 219 486 q 168 220 168 290 q 185 113 168 150 q 229 76 201 76 q 326 155 269 76 q 430 351 383 233 q 488 571 476 468 q 329 619 385 619 z "},"Ē":{"ha":794,"x_min":13,"x_max":796,"o":"m 314 979 l 618 979 l 774 993 l 796 968 l 778 779 l 699 772 q 697 840 699 817 q 675 894 694 863 q 567 901 603 901 l 392 901 q 360 747 368 804 l 331 550 q 388 547 375 547 l 485 547 l 567 560 l 592 651 l 654 644 q 636 528 640 556 l 618 376 l 551 368 l 553 461 q 447 469 474 469 l 376 469 q 318 465 353 469 l 285 232 q 272 79 272 149 l 464 79 q 583 92 514 79 q 618 143 614 131 q 653 236 644 207 l 726 229 l 675 19 l 646 -6 q 493 0 521 0 l 171 0 l 13 -7 l 15 63 l 125 85 q 153 190 146 154 l 240 789 q 243 894 243 813 l 142 911 l 160 986 q 314 979 286 979 m 718 1085 l 290 1085 l 301 1158 l 736 1158 l 718 1085 z "},"ē":{"ha":558,"x_min":40,"x_max":629,"o":"m 339 699 q 543 588 543 699 q 445 403 543 482 q 172 290 347 325 q 167 207 167 251 q 250 72 167 72 q 464 214 360 72 l 510 179 q 372 35 451 86 q 207 -15 292 -15 q 40 193 38 -15 q 89 417 40 297 q 208 617 138 536 q 339 699 279 699 m 421 551 q 400 599 421 585 q 337 614 379 614 q 252 536 294 614 q 185 354 210 458 q 356 431 290 378 q 421 551 421 485 m 611 842 l 183 842 l 194 915 l 629 915 l 611 842 z "},"Ĕ":{"ha":794,"x_min":13,"x_max":796,"o":"m 314 979 l 618 979 l 774 993 l 796 968 l 778 779 l 699 772 q 697 840 699 817 q 675 894 694 863 q 567 901 603 901 l 392 901 q 360 747 368 804 l 331 550 q 388 547 375 547 l 485 547 l 567 560 l 592 651 l 654 644 q 636 528 640 556 l 618 376 l 551 368 l 553 461 q 447 469 474 469 l 376 469 q 318 465 353 469 l 285 232 q 272 79 272 149 l 464 79 q 583 92 514 79 q 618 143 614 131 q 653 236 644 207 l 726 229 l 675 19 l 646 -6 q 493 0 521 0 l 171 0 l 13 -7 l 15 63 l 125 85 q 153 190 146 154 l 240 789 q 243 894 243 813 l 142 911 l 160 986 q 314 979 286 979 m 714 1247 q 645 1103 700 1153 q 499 1053 590 1053 q 367 1103 408 1053 q 336 1203 336 1140 q 340 1247 336 1224 l 415 1247 q 414 1226 414 1236 q 437 1159 414 1188 q 510 1131 460 1131 q 597 1163 561 1131 q 639 1247 632 1194 l 714 1247 z "},"ĕ":{"ha":558,"x_min":40,"x_max":608,"o":"m 339 699 q 543 588 543 699 q 445 403 543 482 q 172 290 347 325 q 167 207 167 251 q 250 72 167 72 q 464 214 360 72 l 510 179 q 372 35 451 86 q 207 -15 292 -15 q 40 193 38 -15 q 89 417 40 297 q 208 617 138 536 q 339 699 279 699 m 608 1010 q 540 865 594 915 q 394 815 485 815 q 261 865 303 815 q 231 965 231 903 q 235 1010 231 986 l 310 1010 q 308 989 308 999 q 331 922 308 950 q 405 893 354 893 q 491 925 456 893 q 533 1010 526 957 l 608 1010 m 421 551 q 400 599 421 585 q 337 614 379 614 q 252 536 294 614 q 185 354 210 458 q 356 431 290 378 q 421 551 421 485 z "},"Ė":{"ha":794,"x_min":13,"x_max":796,"o":"m 314 979 l 618 979 l 774 993 l 796 968 l 778 779 l 699 772 q 697 840 699 817 q 675 894 694 863 q 567 901 603 901 l 392 901 q 360 747 368 804 l 331 550 q 388 547 375 547 l 485 547 l 567 560 l 592 651 l 654 644 q 636 528 640 556 l 618 376 l 551 368 l 553 461 q 447 469 474 469 l 376 469 q 318 465 353 469 l 285 232 q 272 79 272 149 l 464 79 q 583 92 514 79 q 618 143 614 131 q 653 236 644 207 l 726 229 l 675 19 l 646 -6 q 493 0 521 0 l 171 0 l 13 -7 l 15 63 l 125 85 q 153 190 146 154 l 240 789 q 243 894 243 813 l 142 911 l 160 986 q 314 979 286 979 m 440 1131 q 466 1206 440 1176 q 529 1236 492 1236 q 603 1163 603 1236 q 576 1087 603 1117 q 513 1057 550 1057 q 440 1131 440 1057 z "},"ė":{"ha":558,"x_min":40,"x_max":543,"o":"m 339 699 q 543 588 543 699 q 445 403 543 482 q 172 290 347 325 q 167 207 167 251 q 250 72 167 72 q 464 214 360 72 l 510 179 q 372 35 451 86 q 207 -15 292 -15 q 40 193 38 -15 q 89 417 40 297 q 208 617 138 536 q 339 699 279 699 m 421 551 q 400 599 421 585 q 337 614 379 614 q 252 536 294 614 q 185 354 210 458 q 356 431 290 378 q 421 551 421 485 m 326 894 q 352 970 326 940 q 415 1000 378 1000 q 489 926 489 1000 q 463 851 489 881 q 399 821 436 821 q 326 894 326 821 z "},"Ę":{"ha":794,"x_min":13,"x_max":796,"o":"m 314 979 l 618 979 l 774 993 l 796 968 l 778 779 l 699 772 q 697 840 699 817 q 675 894 694 863 q 567 901 603 901 l 392 901 q 360 747 368 804 l 331 550 q 388 547 375 547 l 485 547 l 567 560 l 592 651 l 654 644 q 636 528 640 556 l 618 376 l 551 368 l 553 461 q 447 469 474 469 l 376 469 q 318 465 353 469 l 285 232 q 272 79 272 149 l 464 79 q 583 92 514 79 q 618 143 614 131 q 653 236 644 207 l 726 229 l 675 19 l 653 0 l 694 -6 l 672 -6 q 532 -53 582 -6 q 482 -153 482 -101 q 499 -198 482 -181 q 547 -215 515 -215 q 624 -197 579 -215 l 636 -243 q 515 -274 571 -274 q 427 -247 460 -274 q 394 -171 394 -221 q 418 -87 394 -121 q 508 0 442 -54 l 171 0 l 13 -7 l 15 63 l 125 85 q 153 190 146 154 l 240 789 q 243 894 243 813 l 142 911 l 160 986 q 314 979 286 979 z "},"ę":{"ha":558,"x_min":39,"x_max":543,"o":"m 339 699 q 543 588 543 699 q 445 403 543 482 q 172 290 347 325 q 167 207 167 251 q 250 72 167 72 q 464 214 360 72 l 510 179 q 293 -1 422 39 q 200 -161 200 -79 q 264 -215 200 -215 q 342 -197 297 -215 l 353 -243 q 233 -274 288 -274 q 144 -247 178 -274 q 111 -172 111 -219 q 131 -92 111 -124 q 207 -15 151 -61 l 201 -15 q 81 38 122 -15 q 40 194 39 90 q 89 417 40 297 q 208 617 138 536 q 339 699 279 699 m 421 551 q 400 599 421 585 q 337 614 379 614 q 252 536 294 614 q 185 354 210 458 q 356 431 290 378 q 421 551 421 485 z "},"Ě":{"ha":794,"x_min":13,"x_max":796,"o":"m 314 979 l 618 979 l 774 993 l 796 968 l 778 779 l 699 772 q 697 840 699 817 q 675 894 694 863 q 567 901 603 901 l 392 901 q 360 747 368 804 l 331 550 q 388 547 375 547 l 485 547 l 567 560 l 592 651 l 654 644 q 636 528 640 556 l 618 376 l 551 368 l 553 461 q 447 469 474 469 l 376 469 q 318 465 353 469 l 285 232 q 272 79 272 149 l 464 79 q 583 92 514 79 q 618 143 614 131 q 653 236 644 207 l 726 229 l 675 19 l 646 -6 q 493 0 521 0 l 171 0 l 13 -7 l 15 63 l 125 85 q 153 190 146 154 l 240 789 q 243 894 243 813 l 142 911 l 160 986 q 314 979 286 979 m 729 1240 l 753 1186 l 497 1038 l 285 1186 l 322 1240 l 433 1183 l 514 1149 q 604 1183 575 1174 l 729 1240 z "},"ě":{"ha":558,"x_min":40,"x_max":647,"o":"m 339 699 q 543 588 543 699 q 445 403 543 482 q 172 290 347 325 q 167 207 167 251 q 250 72 167 72 q 464 214 360 72 l 510 179 q 372 35 451 86 q 207 -15 292 -15 q 40 193 38 -15 q 89 417 40 297 q 208 617 138 536 q 339 699 279 699 m 251 1063 l 338 978 q 407 918 339 976 l 497 978 l 610 1063 l 647 1018 l 389 783 l 200 1018 l 251 1063 m 421 551 q 400 599 421 585 q 337 614 379 614 q 252 536 294 614 q 185 354 210 458 q 356 431 290 378 q 421 551 421 485 z "},"Ĝ":{"ha":897,"x_min":68,"x_max":893,"o":"m 603 1000 q 893 953 710 1000 l 849 747 l 771 756 l 779 818 q 781 835 781 822 q 774 886 781 847 q 588 919 668 919 q 310 767 411 919 q 210 399 210 615 q 280 154 210 249 q 476 60 350 60 q 653 88 549 60 q 682 178 679 165 l 696 272 l 696 371 l 556 382 l 574 463 l 724 463 l 822 467 l 843 443 q 800 231 810 300 l 771 26 q 736 18 763 25 q 699 9 710 11 q 665 1 689 7 q 627 -6 640 -4 q 591 -12 614 -8 q 550 -17 568 -15 q 468 -21 499 -21 q 173 92 278 -21 q 68 394 68 206 q 210 831 68 661 q 603 1000 351 1000 m 628 1240 l 840 1092 l 801 1038 l 692 1094 l 613 1129 q 579 1117 600 1125 q 543 1103 558 1108 q 521 1094 528 1097 l 394 1038 l 372 1092 l 628 1240 z "},"ĝ":{"ha":703,"x_min":-31,"x_max":650,"o":"m 392 -256 q 363 -274 392 -256 q 273 -310 333 -293 q 158 -326 213 -326 q 47 -318 103 -326 q -31 -299 -8 -310 l 13 -190 q 194 -226 114 -226 q 326 -209 274 -226 q 392 -177 378 -192 q 418 -115 407 -162 q 431 -35 429 -67 q 438 37 432 -3 q 452 138 443 76 q 467 246 461 200 q 338 56 410 126 q 194 -15 265 -15 q 54 188 54 -15 q 102 414 54 293 q 223 617 150 535 q 361 700 296 700 q 461 690 388 700 l 533 681 l 617 700 l 650 678 q 590 403 608 521 q 544 19 557 169 q 492 -147 533 -76 q 392 -256 451 -218 m 342 619 q 235 477 292 619 q 179 208 179 335 q 197 113 179 150 q 242 76 214 76 q 338 154 282 76 q 441 350 394 232 q 500 571 488 468 q 342 619 397 619 m 461 1063 l 650 828 l 599 783 l 511 868 l 440 928 q 388 892 419 914 q 351 868 356 871 l 240 783 l 203 828 l 461 1063 z "},"Ğ":{"ha":897,"x_min":68,"x_max":893,"o":"m 603 1000 q 893 953 710 1000 l 849 747 l 771 756 l 779 818 q 781 835 781 822 q 774 886 781 847 q 588 919 668 919 q 310 767 411 919 q 210 399 210 615 q 280 154 210 249 q 476 60 350 60 q 653 88 549 60 q 682 178 679 165 l 696 272 l 696 371 l 556 382 l 574 463 l 724 463 l 822 467 l 843 443 q 800 231 810 300 l 771 26 q 736 18 763 25 q 699 9 710 11 q 665 1 689 7 q 627 -6 640 -4 q 591 -12 614 -8 q 550 -17 568 -15 q 468 -21 499 -21 q 173 92 278 -21 q 68 394 68 206 q 210 831 68 661 q 603 1000 351 1000 m 815 1247 q 747 1103 801 1153 q 601 1053 692 1053 q 469 1103 510 1053 q 438 1203 438 1140 q 442 1247 438 1224 l 517 1247 q 515 1226 515 1236 q 538 1159 515 1188 q 612 1131 561 1131 q 698 1163 663 1131 q 740 1247 733 1194 l 815 1247 z "},"ğ":{"ha":703,"x_min":-31,"x_max":650,"o":"m 392 -256 q 363 -274 392 -256 q 273 -310 333 -293 q 158 -326 213 -326 q 47 -318 103 -326 q -31 -299 -8 -310 l 13 -190 q 194 -226 114 -226 q 326 -209 274 -226 q 392 -177 378 -192 q 418 -115 407 -162 q 431 -35 429 -67 q 438 37 432 -3 q 452 138 443 76 q 467 246 461 200 q 338 56 410 126 q 194 -15 265 -15 q 54 188 54 -15 q 102 414 54 293 q 223 617 150 535 q 361 700 296 700 q 461 690 388 700 l 533 681 l 617 700 l 650 678 q 590 403 608 521 q 544 19 557 169 q 492 -147 533 -76 q 392 -256 451 -218 m 342 619 q 235 477 292 619 q 179 208 179 335 q 197 113 179 150 q 242 76 214 76 q 338 154 282 76 q 441 350 394 232 q 500 571 488 468 q 342 619 397 619 m 639 1010 q 570 865 625 915 q 424 815 515 815 q 292 865 333 815 q 261 965 261 903 q 265 1010 261 986 l 340 1010 q 339 989 339 999 q 362 922 339 950 q 435 893 385 893 q 522 925 486 893 q 564 1010 557 957 l 639 1010 z "},"Ġ":{"ha":897,"x_min":68,"x_max":893,"o":"m 603 1000 q 893 953 710 1000 l 849 747 l 771 756 l 779 818 q 781 835 781 822 q 774 886 781 847 q 588 919 668 919 q 310 767 411 919 q 210 399 210 615 q 280 154 210 249 q 476 60 350 60 q 653 88 549 60 q 682 178 679 165 l 696 272 l 696 371 l 556 382 l 574 463 l 724 463 l 822 467 l 843 443 q 800 231 810 300 l 771 26 q 736 18 763 25 q 699 9 710 11 q 665 1 689 7 q 627 -6 640 -4 q 591 -12 614 -8 q 550 -17 568 -15 q 468 -21 499 -21 q 173 92 278 -21 q 68 394 68 206 q 210 831 68 661 q 603 1000 351 1000 m 542 1131 q 567 1206 542 1176 q 631 1236 593 1236 q 704 1163 704 1236 q 678 1087 704 1117 q 614 1057 651 1057 q 542 1131 542 1057 z "},"ġ":{"ha":703,"x_min":-31,"x_max":650,"o":"m 392 -256 q 363 -274 392 -256 q 273 -310 333 -293 q 158 -326 213 -326 q 47 -318 103 -326 q -31 -299 -8 -310 l 13 -190 q 194 -226 114 -226 q 326 -209 274 -226 q 392 -177 378 -192 q 418 -115 407 -162 q 431 -35 429 -67 q 438 37 432 -3 q 452 138 443 76 q 467 246 461 200 q 338 56 410 126 q 194 -15 265 -15 q 54 188 54 -15 q 102 414 54 293 q 223 617 150 535 q 361 700 296 700 q 461 690 388 700 l 533 681 l 617 700 l 650 678 q 590 403 608 521 q 544 19 557 169 q 492 -147 533 -76 q 392 -256 451 -218 m 342 619 q 235 477 292 619 q 179 208 179 335 q 197 113 179 150 q 242 76 214 76 q 338 154 282 76 q 441 350 394 232 q 500 571 488 468 q 342 619 397 619 m 357 894 q 383 970 357 940 q 446 1000 408 1000 q 519 926 519 1000 q 493 851 519 881 q 429 821 467 821 q 357 894 357 821 z "},"Ģ":{"ha":897,"x_min":68,"x_max":893,"o":"m 603 1000 q 893 953 710 1000 l 849 747 l 771 756 l 779 818 q 781 835 781 822 q 774 886 781 847 q 588 919 668 919 q 310 767 411 919 q 210 399 210 615 q 280 154 210 249 q 476 60 350 60 q 653 88 549 60 q 682 178 679 165 l 696 272 l 696 371 l 556 382 l 574 463 l 724 463 l 822 467 l 843 443 q 800 231 810 300 l 771 26 q 736 18 763 25 q 699 9 710 11 q 665 1 689 7 q 627 -6 640 -4 q 591 -12 614 -8 q 550 -17 568 -15 q 468 -21 499 -21 q 173 92 278 -21 q 68 394 68 206 q 210 831 68 661 q 603 1000 351 1000 m 440 -233 q 406 -174 406 -217 q 431 -106 406 -131 q 486 -81 456 -81 q 543 -151 543 -81 q 520 -241 543 -189 q 475 -326 497 -293 l 451 -360 l 404 -343 q 440 -233 436 -269 z "},"ģ":{"ha":703,"x_min":-31,"x_max":650,"o":"m 392 -256 q 363 -274 392 -256 q 273 -310 333 -293 q 158 -326 213 -326 q 47 -318 103 -326 q -31 -299 -8 -310 l 13 -190 q 194 -226 114 -226 q 326 -209 274 -226 q 392 -177 378 -192 q 418 -115 407 -162 q 431 -35 429 -67 q 438 37 432 -3 q 452 138 443 76 q 467 246 461 200 q 338 56 410 126 q 194 -15 265 -15 q 54 188 54 -15 q 102 414 54 293 q 223 617 150 535 q 361 700 296 700 q 461 690 388 700 l 533 681 l 617 700 l 650 678 q 590 403 608 521 q 544 19 557 169 q 492 -147 533 -76 q 392 -256 451 -218 m 342 619 q 235 477 292 619 q 179 208 179 335 q 197 113 179 150 q 242 76 214 76 q 338 154 282 76 q 441 350 394 232 q 500 571 488 468 q 342 619 397 619 m 469 924 q 504 863 504 906 q 479 796 504 821 q 424 771 454 771 q 367 842 367 771 q 390 931 367 879 q 436 1017 413 983 l 458 1050 l 506 1033 q 469 924 474 960 z "},"Ĥ":{"ha":1044,"x_min":13,"x_max":1072,"o":"m 1072 986 l 1065 904 l 960 894 q 929 747 940 828 l 854 232 q 842 85 842 144 l 960 75 l 939 -7 q 740 0 850 0 l 582 -7 l 585 63 l 694 85 q 703 114 696 90 q 721 190 718 172 l 760 454 l 317 454 l 285 232 q 272 85 272 144 l 392 75 l 369 -7 q 171 0 281 0 l 13 -7 l 15 63 l 125 85 q 153 190 146 154 l 240 789 q 243 894 243 813 l 142 911 l 160 986 q 314 979 286 979 l 503 986 l 497 904 l 390 894 q 360 747 371 828 l 328 525 l 771 532 l 808 789 q 813 894 813 813 l 711 911 l 729 986 q 883 979 856 979 l 1072 986 m 651 1240 l 864 1092 l 825 1038 l 715 1094 l 636 1129 q 603 1117 624 1125 q 567 1103 582 1108 q 544 1094 551 1097 l 418 1038 l 396 1092 l 651 1240 z "},"ĥ":{"ha":765,"x_min":38,"x_max":711,"o":"m 557 700 q 657 586 657 700 q 623 354 657 524 q 583 97 589 185 l 711 90 l 707 40 l 469 -21 l 435 0 q 526 521 526 394 q 481 593 526 593 q 339 470 425 593 q 206 161 253 347 q 185 0 201 132 l 90 -21 l 54 0 q 143 461 100 169 q 203 960 186 753 l 88 976 l 83 1031 l 314 1069 l 346 1042 q 242 433 267 599 q 381 621 299 542 q 557 700 464 700 m 293 1283 l 506 1135 l 467 1081 l 357 1138 l 278 1172 q 244 1160 265 1168 q 208 1146 224 1151 q 186 1138 193 1140 l 60 1081 l 38 1135 l 293 1283 z "},"Ħ":{"ha":1044,"x_min":13,"x_max":1072,"o":"m 1072 986 l 1065 904 l 960 894 q 931 754 942 832 l 1063 754 l 1054 693 l 921 693 l 854 232 q 842 85 842 144 l 960 75 l 939 -7 q 740 0 850 0 l 582 -7 l 585 63 l 694 85 q 703 114 696 90 q 721 190 718 172 l 760 454 l 317 454 l 285 232 q 272 85 272 144 l 392 75 l 369 -7 q 171 0 281 0 l 13 -7 l 15 63 l 125 85 q 153 190 146 154 l 226 693 l 106 693 l 114 754 l 235 754 l 240 789 q 243 894 243 813 l 142 911 l 160 986 q 314 979 286 979 l 503 986 l 497 904 l 390 894 q 361 754 372 832 l 803 754 l 808 789 q 813 894 813 813 l 711 911 l 729 986 q 883 979 856 979 l 1072 986 m 328 525 l 771 532 l 794 693 l 351 693 l 328 525 z "},"ħ":{"ha":765,"x_min":53,"x_max":710,"o":"m 556 700 q 656 586 656 700 q 622 354 656 524 q 582 97 588 185 l 710 90 l 706 40 l 468 -21 l 433 0 q 525 521 525 394 q 479 593 525 593 q 338 470 424 593 q 204 161 251 347 q 183 0 200 132 l 89 -21 l 53 0 q 183 782 129 288 l 72 782 l 82 843 l 190 843 l 201 960 l 86 976 l 82 1031 l 313 1069 l 344 1042 l 308 843 l 464 843 l 454 782 l 297 782 q 240 433 256 536 q 380 621 297 542 q 556 700 463 700 z "},"Ĩ":{"ha":492,"x_min":21,"x_max":583,"o":"m 511 986 l 504 904 l 399 894 q 368 747 379 828 l 293 232 q 281 85 281 144 l 399 75 l 378 -7 q 179 0 289 0 l 21 -7 l 24 63 l 133 85 q 142 114 135 90 q 160 190 157 172 l 247 789 q 251 894 251 813 l 150 911 l 168 986 q 322 979 294 979 l 511 986 m 515 1103 q 495 1081 515 1103 q 450 1060 475 1060 q 346 1088 425 1060 q 244 1117 267 1117 q 169 1071 207 1117 l 157 1056 l 113 1085 q 160 1151 129 1118 q 242 1211 214 1211 q 350 1183 269 1211 q 453 1154 431 1154 q 526 1207 490 1154 l 539 1225 l 583 1196 q 515 1103 556 1146 z "},"ĩ":{"ha":411,"x_min":54,"x_max":457,"o":"m 391 882 q 371 860 391 882 q 327 839 351 839 q 253 867 303 839 q 183 896 204 896 q 111 839 149 896 l 99 821 l 54 850 q 122 947 83 903 q 184 990 161 990 q 258 962 207 990 q 328 933 308 933 q 369 951 349 933 q 400 986 389 969 l 413 1004 l 457 975 q 391 882 431 925 m 299 699 l 328 672 q 226 96 285 519 l 351 89 l 347 40 l 125 -21 l 90 0 q 155 298 136 183 q 189 582 174 413 l 74 588 l 72 639 l 299 699 z "},"Ī":{"ha":492,"x_min":21,"x_max":585,"o":"m 567 1085 l 225 1085 l 236 1158 l 585 1158 l 567 1085 m 511 986 l 504 904 l 399 894 q 368 747 379 828 l 293 232 q 281 85 281 144 l 399 75 l 378 -7 q 179 0 289 0 l 21 -7 l 24 63 l 133 85 q 142 114 135 90 q 160 190 157 172 l 247 789 q 251 894 251 813 l 150 911 l 168 986 q 322 979 294 979 l 511 986 z "},"ī":{"ha":411,"x_min":60,"x_max":492,"o":"m 474 842 l 132 842 l 143 915 l 492 915 l 474 842 m 286 699 l 315 672 q 214 96 272 519 l 339 89 l 335 40 l 113 -21 l 78 0 q 142 298 124 183 q 176 582 161 413 l 61 588 l 60 639 l 286 699 z "},"Ĭ":{"ha":492,"x_min":21,"x_max":549,"o":"m 511 986 l 504 904 l 399 894 q 368 747 379 828 l 293 232 q 281 85 281 144 l 399 75 l 378 -7 q 179 0 289 0 l 21 -7 l 24 63 l 133 85 q 142 114 135 90 q 160 190 157 172 l 247 789 q 251 894 251 813 l 150 911 l 168 986 q 322 979 294 979 l 511 986 m 549 1247 q 480 1103 535 1153 q 334 1053 425 1053 q 203 1103 243 1053 q 171 1203 171 1140 q 175 1247 171 1224 l 250 1247 q 249 1226 249 1236 q 272 1159 249 1188 q 345 1131 294 1131 q 431 1163 396 1131 q 474 1247 467 1194 l 549 1247 z "},"ĭ":{"ha":411,"x_min":67,"x_max":485,"o":"m 293 699 l 322 672 q 221 96 279 519 l 346 89 l 342 40 l 119 -21 l 85 0 q 149 298 131 183 q 183 582 168 413 l 68 588 l 67 639 l 293 699 m 485 1010 q 416 865 471 915 q 270 815 361 815 q 139 865 179 815 q 107 965 107 903 q 111 1010 107 986 l 186 1010 q 185 989 185 999 q 208 922 185 950 q 281 893 231 893 q 367 925 332 893 q 410 1010 403 957 l 485 1010 z "},"Į":{"ha":486,"x_min":-42,"x_max":508,"o":"m 46 -153 q 63 -198 46 -181 q 113 -215 81 -215 q 189 -197 144 -215 l 201 -243 q 79 -274 133 -274 q -8 -247 25 -274 q -42 -169 -42 -219 q -28 -108 -42 -128 q -10 -81 -15 -87 q 10 -60 -4 -74 q 33 -38 25 -46 q 64 -11 42 -31 l 97 18 q 135 74 124 42 q 160 188 147 107 l 160 190 l 247 789 q 250 894 250 813 l 149 911 l 167 986 q 322 979 294 979 l 508 986 l 501 904 l 394 894 q 363 747 376 832 l 288 232 q 276 85 276 154 l 396 75 l 374 -7 q 203 0 297 0 q 91 -56 136 -8 q 46 -153 46 -104 z "},"į":{"ha":418,"x_min":-54,"x_max":360,"o":"m 33 -154 q 49 -198 33 -181 q 93 -215 64 -215 q 163 -197 122 -215 l 175 -243 q 59 -274 110 -274 q -23 -247 8 -274 q -54 -169 -54 -219 q -17 -69 -54 -114 q 33 -17 7 -43 q 74 24 58 8 q 101 67 89 40 q 183 581 156 294 l 69 586 l 68 640 l 297 700 l 329 672 q 228 97 282 501 l 351 90 l 347 40 l 183 -3 l 183 -4 q 33 -154 33 -40 m 293 1003 q 360 932 360 1003 q 334 855 360 889 q 269 821 308 821 q 206 890 206 821 q 231 967 206 932 q 293 1003 256 1003 z "},"İ":{"ha":492,"x_min":21,"x_max":511,"o":"m 511 986 l 504 904 l 399 894 q 368 747 379 828 l 293 232 q 281 85 281 144 l 399 75 l 378 -7 q 179 0 289 0 l 21 -7 l 24 63 l 133 85 q 142 114 135 90 q 160 190 157 172 l 247 789 q 251 894 251 813 l 150 911 l 168 986 q 322 979 294 979 l 511 986 m 275 1131 q 301 1206 275 1176 q 364 1236 326 1236 q 438 1163 438 1236 q 411 1087 438 1117 q 347 1057 385 1057 q 275 1131 275 1057 z "},"ı":{"ha":417,"x_min":69,"x_max":349,"o":"m 296 699 l 325 672 q 224 96 282 519 l 349 89 l 344 40 l 122 -21 l 88 0 q 152 298 133 183 q 186 582 171 413 l 71 588 l 69 639 l 296 699 z "},"Ĳ":{"ha":813,"x_min":4,"x_max":863,"o":"m 308 979 l 676 979 l 863 986 l 854 904 l 749 894 q 717 747 731 832 l 607 -14 q 383 -278 601 -51 l 342 -247 q 489 15 485 -12 l 601 789 q 604 894 604 813 l 494 911 l 381 894 q 349 747 363 832 l 274 232 q 263 85 263 154 l 382 75 l 360 -7 q 165 0 272 0 l 4 -7 l 10 63 l 118 85 q 146 190 143 165 l 233 789 q 236 894 236 813 l 135 911 l 153 986 q 308 979 281 979 z "},"ĳ":{"ha":740,"x_min":60,"x_max":708,"o":"m 290 1000 q 354 931 354 1000 q 329 855 354 889 q 267 821 304 821 q 204 889 204 821 q 228 965 204 931 q 290 1000 253 1000 m 644 1000 q 708 931 708 1000 q 683 855 708 889 q 621 821 658 821 q 558 889 558 821 q 583 965 558 931 q 644 1000 607 1000 m 194 -14 q 103 96 103 -14 q 135 319 103 157 q 176 582 168 481 l 60 588 l 60 639 l 286 699 l 315 672 q 218 161 218 290 q 267 89 218 89 q 395 196 319 89 q 524 489 471 303 l 549 582 l 436 588 l 428 640 l 643 699 l 676 678 q 607 322 644 568 q 553 -21 569 75 q 343 -326 543 -81 l 303 -290 q 464 18 457 -32 q 494 250 475 92 q 353 58 432 129 q 194 -14 275 -14 z "},"Ĵ":{"ha":450,"x_min":-25,"x_max":551,"o":"m 490 904 l 385 894 q 354 747 365 828 l 243 -14 q 18 -278 238 -56 l -25 -247 q 121 15 117 -12 l 233 789 q 238 894 238 813 l 136 911 l 154 986 q 308 979 281 979 l 497 986 l 490 904 m 339 1240 l 551 1092 l 513 1038 l 403 1094 l 324 1129 q 290 1117 311 1125 q 254 1103 269 1108 q 232 1094 239 1097 l 106 1038 l 83 1092 l 339 1240 z "},"ĵ":{"ha":365,"x_min":-69,"x_max":481,"o":"m 272 699 l 301 672 q 233 319 269 557 q 181 -21 197 82 q -29 -326 172 -74 l -69 -290 q 20 -119 -26 -215 q 76 19 67 -22 q 163 582 138 274 l 47 588 l 46 639 l 272 699 m 292 1063 l 481 828 l 429 783 l 342 868 l 271 928 q 218 892 250 914 q 182 868 186 871 l 71 783 l 33 828 l 292 1063 z "},"Ķ":{"ha":943,"x_min":13,"x_max":954,"o":"m 892 75 l 871 -7 q 678 0 788 0 l 507 -7 l 510 63 l 592 82 q 518 228 542 192 l 336 490 l 625 801 l 690 896 l 621 911 l 639 986 q 781 979 751 979 l 954 986 l 949 904 l 846 894 q 690 758 781 840 l 476 514 q 578 369 490 493 q 711 179 667 244 q 800 85 728 157 l 892 75 m 503 986 l 496 904 l 390 894 q 360 747 371 828 l 285 232 q 272 85 272 144 l 390 75 l 369 -7 q 171 0 281 0 l 13 -7 l 17 63 l 125 85 q 153 190 146 154 l 240 789 q 243 894 243 813 l 143 911 l 160 986 q 314 979 286 979 l 503 986 m 426 -233 q 392 -174 392 -217 q 417 -106 392 -131 q 472 -81 442 -81 q 529 -151 529 -81 q 506 -241 529 -189 q 461 -326 483 -293 l 438 -360 l 390 -343 q 426 -233 422 -269 z "},"ķ":{"ha":686,"x_min":51,"x_max":661,"o":"m 554 700 q 647 589 650 700 q 576 418 647 496 q 383 296 506 340 q 533 97 451 181 l 661 90 l 657 39 l 456 -28 l 275 267 l 275 319 q 469 418 400 357 q 538 550 539 479 q 500 593 540 593 q 333 470 419 593 q 206 171 247 347 q 182 0 193 97 l 88 -21 l 51 0 q 138 444 93 154 q 200 960 182 733 l 83 976 l 82 1031 l 313 1069 l 344 1042 q 242 440 261 574 q 386 631 303 563 q 554 700 469 700 m 347 -233 q 313 -174 313 -217 q 338 -106 313 -131 q 393 -81 363 -81 q 450 -151 450 -81 q 427 -241 450 -189 q 381 -326 404 -293 l 358 -360 l 311 -343 q 347 -233 343 -269 z "},"ĸ":{"ha":790,"x_min":4,"x_max":797,"o":"m 549 607 l 492 618 l 510 690 q 625 686 599 686 l 797 693 l 789 613 l 688 601 q 540 508 576 543 l 414 388 l 568 179 q 675 83 574 171 l 758 75 l 736 -7 q 564 0 672 0 l 426 -3 l 431 67 l 510 82 l 292 368 l 549 607 m 229 686 l 307 686 l 329 661 q 289 449 299 518 l 257 232 l 246 85 l 349 75 l 328 -7 q 154 0 263 0 l 4 -7 l 8 63 l 114 85 q 142 190 138 163 l 185 490 l 189 596 l 89 618 l 107 692 q 229 686 203 686 z "},"Ĺ":{"ha":721,"x_min":13,"x_max":692,"o":"m 272 79 l 429 79 q 549 92 481 79 q 583 143 581 132 q 617 236 610 210 l 692 229 l 640 19 l 611 -6 q 458 0 485 0 l 171 0 l 13 -7 l 15 63 l 125 85 q 153 190 146 154 l 240 789 q 243 894 243 813 l 142 911 l 160 986 q 314 979 286 979 l 503 986 l 497 904 l 390 894 q 360 747 371 828 l 285 232 q 272 79 272 147 m 497 1247 l 538 1146 q 333 1093 360 1101 l 215 1042 l 188 1108 l 497 1247 z "},"ĺ":{"ha":385,"x_min":53,"x_max":461,"o":"m 313 1069 l 344 1042 q 194 97 236 431 l 318 90 l 314 40 l 89 -21 l 53 0 q 142 461 99 169 q 201 960 185 753 l 86 976 l 82 1031 l 313 1069 m 421 1318 l 461 1217 q 257 1164 283 1172 l 139 1113 l 111 1179 l 421 1318 z "},"Ļ":{"ha":721,"x_min":13,"x_max":692,"o":"m 272 79 l 429 79 q 549 92 481 79 q 583 143 581 132 q 617 236 610 210 l 692 229 l 640 19 l 611 -6 q 458 0 485 0 l 171 0 l 13 -7 l 15 63 l 125 85 q 153 190 146 154 l 240 789 q 243 894 243 813 l 142 911 l 160 986 q 314 979 286 979 l 503 986 l 497 904 l 390 894 q 360 747 371 828 l 285 232 q 272 79 272 147 m 332 -233 q 297 -174 297 -217 q 322 -106 297 -131 q 378 -81 347 -81 q 435 -151 435 -81 q 412 -241 435 -189 q 367 -326 389 -293 l 343 -360 l 296 -343 q 332 -233 328 -269 z "},"ļ":{"ha":385,"x_min":53,"x_max":344,"o":"m 313 1069 l 344 1042 q 194 97 236 431 l 318 90 l 314 40 l 89 -21 l 53 0 q 142 461 99 169 q 201 960 185 753 l 86 976 l 82 1031 l 313 1069 m 142 -233 q 107 -174 107 -217 q 132 -106 107 -131 q 188 -81 157 -81 q 244 -151 244 -81 q 222 -241 244 -189 q 175 -326 199 -293 l 153 -360 l 106 -343 q 142 -233 138 -269 z "},"Ľ":{"ha":719,"x_min":13,"x_max":713,"o":"m 593 843 l 713 843 l 644 506 l 568 510 l 588 640 l 593 843 m 272 79 l 429 79 q 549 92 481 79 q 583 143 581 132 q 617 236 610 210 l 692 229 l 640 19 l 611 -6 q 458 0 485 0 l 171 0 l 13 -7 l 15 63 l 125 85 q 153 190 146 154 l 240 789 q 243 894 243 813 l 142 911 l 160 986 q 314 979 286 979 l 503 986 l 497 904 l 390 894 q 360 747 371 828 l 285 232 q 272 79 272 147 z "},"ľ":{"ha":426,"x_min":53,"x_max":526,"o":"m 421 1050 l 526 1050 l 461 713 l 382 717 l 403 847 l 421 1050 m 313 1069 l 344 1042 q 194 97 236 431 l 318 90 l 314 40 l 89 -21 l 53 0 q 142 461 99 169 q 201 960 185 753 l 86 976 l 82 1031 l 313 1069 z "},"Ŀ":{"ha":719,"x_min":13,"x_max":692,"o":"m 510 560 q 510 581 510 560 q 538 635 510 603 q 607 667 567 667 q 686 588 686 667 q 658 506 686 538 q 590 474 631 474 q 529 495 549 474 q 510 560 510 517 m 272 79 l 429 79 q 549 92 481 79 q 583 143 581 132 q 617 236 610 210 l 692 229 l 640 19 l 611 -6 q 458 0 485 0 l 171 0 l 13 -7 l 15 63 l 125 85 q 153 190 146 154 l 240 789 q 243 894 243 813 l 142 911 l 160 986 q 314 979 286 979 l 503 986 l 497 904 l 390 894 q 360 747 371 828 l 285 232 q 272 79 272 147 z "},"ŀ":{"ha":431,"x_min":-39,"x_max":475,"o":"m 240 1050 l 319 1050 l 342 1025 q 300 813 318 933 l 215 232 q 203 85 203 140 l 307 75 l 285 -7 q 113 0 221 0 l -39 -7 l -35 63 l 72 85 q 101 190 96 157 l 199 854 l 200 960 l 100 982 l 118 1056 q 240 1050 214 1050 m 401 513 q 475 433 475 513 q 447 351 475 383 q 378 319 419 319 q 318 341 338 319 q 299 405 299 363 q 326 480 299 447 q 401 513 354 513 z "},"Ł":{"ha":719,"x_min":13,"x_max":692,"o":"m 272 79 l 429 79 q 549 92 481 79 q 583 143 581 132 q 617 236 610 210 l 692 229 l 640 19 l 611 -6 q 458 0 485 0 l 171 0 l 13 -7 l 15 63 l 125 85 q 153 190 146 154 l 197 494 l 129 471 l 117 528 l 207 560 l 240 789 q 243 894 243 813 l 142 911 l 160 986 q 314 979 286 979 l 503 986 l 497 904 l 390 894 q 360 747 371 828 l 339 607 l 586 694 l 599 638 l 329 542 l 285 232 q 272 79 272 147 z "},"ł":{"ha":385,"x_min":11,"x_max":419,"o":"m 313 1069 l 344 1042 q 275 647 282 688 l 408 694 l 419 638 l 264 582 q 194 97 222 326 l 318 90 l 314 40 l 89 -21 l 53 0 q 153 543 104 194 l 24 497 l 11 554 l 163 607 q 201 960 185 771 l 86 976 l 82 1031 l 313 1069 z "},"Ń":{"ha":1025,"x_min":13,"x_max":1094,"o":"m 1094 986 l 1090 913 l 982 890 q 939 733 949 801 l 829 -10 l 743 -10 l 331 772 l 253 232 q 240 85 240 157 l 347 75 l 325 -7 q 158 0 268 0 l 13 -7 l 15 63 l 125 85 q 153 190 146 154 l 240 789 q 243 894 243 811 l 139 911 l 156 986 q 311 979 282 979 l 374 981 l 396 951 q 494 736 479 767 l 771 226 l 851 775 q 856 890 856 808 l 751 899 l 771 982 l 882 979 l 1094 986 m 757 1247 l 797 1146 q 593 1093 619 1101 l 475 1042 l 447 1108 l 757 1247 z "},"ń":{"ha":796,"x_min":68,"x_max":740,"o":"m 586 700 q 686 586 686 700 q 652 354 686 524 q 613 97 618 185 l 740 90 l 736 40 l 499 -21 l 464 0 q 556 521 556 394 q 508 593 556 593 q 366 465 453 593 q 233 140 279 336 l 214 0 l 119 -21 l 83 0 q 149 297 129 181 q 183 581 168 414 l 68 586 l 68 640 l 297 700 l 329 672 q 278 436 306 594 q 414 622 333 544 q 586 700 494 700 m 649 1049 l 711 965 q 549 867 568 882 l 450 783 l 406 840 l 649 1049 z "},"Ņ":{"ha":1025,"x_min":13,"x_max":1094,"o":"m 1094 986 l 1090 913 l 982 890 q 939 733 949 801 l 829 -10 l 743 -10 l 331 772 l 253 232 q 240 85 240 157 l 347 75 l 325 -7 q 158 0 268 0 l 13 -7 l 15 63 l 125 85 q 153 190 146 154 l 240 789 q 243 894 243 811 l 139 911 l 156 986 q 311 979 282 979 l 374 981 l 396 951 q 494 736 479 767 l 771 226 l 851 775 q 856 890 856 808 l 751 899 l 771 982 l 882 979 l 1094 986 m 454 -233 q 419 -174 419 -217 q 444 -106 419 -131 q 500 -81 469 -81 q 557 -151 557 -81 q 534 -241 557 -189 q 489 -326 511 -293 l 465 -360 l 418 -343 q 454 -233 450 -269 z "},"ņ":{"ha":796,"x_min":68,"x_max":740,"o":"m 586 700 q 686 586 686 700 q 652 354 686 524 q 613 97 618 185 l 740 90 l 736 40 l 499 -21 l 464 0 q 556 521 556 394 q 508 593 556 593 q 366 465 453 593 q 233 140 279 336 l 214 0 l 119 -21 l 83 0 q 149 297 129 181 q 183 581 168 414 l 68 586 l 68 640 l 297 700 l 329 672 q 278 436 306 594 q 414 622 333 544 q 586 700 494 700 m 325 -233 q 290 -174 290 -217 q 315 -106 290 -131 q 371 -81 340 -81 q 428 -151 428 -81 q 405 -241 428 -189 q 358 -326 382 -293 l 336 -360 l 289 -343 q 325 -233 321 -269 z "},"Ň":{"ha":1025,"x_min":13,"x_max":1094,"o":"m 1094 986 l 1090 913 l 982 890 q 939 733 949 801 l 829 -10 l 743 -10 l 331 772 l 253 232 q 240 85 240 157 l 347 75 l 325 -7 q 158 0 268 0 l 13 -7 l 15 63 l 125 85 q 153 190 146 154 l 240 789 q 243 894 243 811 l 139 911 l 156 986 q 311 979 282 979 l 374 981 l 396 951 q 494 736 479 767 l 771 226 l 851 775 q 856 890 856 808 l 751 899 l 771 982 l 882 979 l 1094 986 m 818 1240 l 842 1186 l 586 1038 l 374 1186 l 411 1240 l 522 1183 l 603 1149 q 693 1183 664 1174 l 818 1240 z "},"ň":{"ha":796,"x_min":68,"x_max":746,"o":"m 586 700 q 686 586 686 700 q 652 354 686 524 q 613 97 618 185 l 740 90 l 736 40 l 499 -21 l 464 0 q 556 521 556 394 q 508 593 556 593 q 366 465 453 593 q 233 140 279 336 l 214 0 l 119 -21 l 83 0 q 149 297 129 181 q 183 581 168 414 l 68 586 l 68 640 l 297 700 l 329 672 q 278 436 306 594 q 414 622 333 544 q 586 700 494 700 m 350 1063 l 436 978 q 506 918 438 976 l 596 978 l 708 1063 l 746 1018 l 488 783 l 299 1018 l 350 1063 z "},"Ŋ":{"ha":1024,"x_min":13,"x_max":1093,"o":"m 1093 986 l 1089 913 l 979 890 q 935 733 944 794 l 825 -10 q 636 -278 819 -54 l 594 -247 q 738 6 714 -47 l 328 772 l 249 232 q 238 85 238 154 l 344 75 l 324 -7 q 158 0 267 0 l 13 -7 l 17 63 l 125 85 q 153 190 150 165 l 240 789 q 243 894 243 811 l 139 911 l 157 986 l 311 981 l 371 981 l 393 951 q 492 736 478 767 l 771 226 l 850 775 q 857 890 857 813 l 750 899 l 771 982 l 881 979 l 1093 986 z "},"ŋ":{"ha":768,"x_min":68,"x_max":686,"o":"m 556 521 q 508 593 556 593 q 366 465 453 593 q 233 140 279 336 l 214 0 l 119 -21 l 83 0 q 149 297 129 181 q 183 581 168 414 l 68 586 l 68 640 l 297 700 l 329 672 q 278 436 306 594 q 414 622 333 544 q 586 700 494 700 q 686 586 686 700 q 635 251 686 507 q 581 -21 583 -6 q 367 -326 569 -75 l 324 -289 q 412 -119 365 -217 q 468 19 458 -22 q 556 521 556 396 z "},"Ō":{"ha":999,"x_min":68,"x_max":974,"o":"m 974 583 q 835 149 974 318 q 450 -21 697 -21 q 167 92 265 -21 q 68 394 68 204 q 206 831 68 661 q 592 1000 344 1000 q 875 887 776 1000 q 974 583 974 774 m 384 849 q 341 811 384 849 q 258 653 299 772 q 217 388 217 533 q 278 147 217 242 q 455 53 339 53 q 656 129 571 53 q 783 325 742 206 q 825 591 825 444 q 765 832 825 738 q 587 926 704 926 q 384 849 469 926 m 813 1085 l 385 1085 l 396 1158 l 831 1158 l 813 1085 z "},"ō":{"ha":656,"x_min":44,"x_max":679,"o":"m 408 700 q 558 638 506 700 q 610 460 610 575 q 501 126 610 268 q 246 -15 393 -15 q 97 48 149 -15 q 44 226 44 111 q 153 558 44 417 q 408 700 261 700 m 475 456 q 475 538 475 456 q 385 621 475 621 q 237 508 294 621 q 179 229 179 394 q 269 64 179 64 q 417 177 360 64 q 475 456 475 290 m 661 842 l 233 842 l 244 915 l 679 915 l 661 842 z "},"Ŏ":{"ha":999,"x_min":68,"x_max":974,"o":"m 974 583 q 835 149 974 318 q 450 -21 697 -21 q 167 92 265 -21 q 68 394 68 204 q 206 831 68 661 q 592 1000 344 1000 q 875 887 776 1000 q 974 583 974 774 m 384 849 q 341 811 384 849 q 258 653 299 772 q 217 388 217 533 q 278 147 217 242 q 455 53 339 53 q 656 129 571 53 q 783 325 742 206 q 825 591 825 444 q 765 832 825 738 q 587 926 704 926 q 384 849 469 926 m 815 1247 q 747 1103 801 1153 q 601 1053 692 1053 q 469 1103 510 1053 q 438 1203 438 1140 q 442 1247 438 1224 l 517 1247 q 515 1226 515 1236 q 538 1159 515 1188 q 612 1131 561 1131 q 698 1163 663 1131 q 740 1247 733 1194 l 815 1247 z "},"ŏ":{"ha":656,"x_min":44,"x_max":658,"o":"m 408 700 q 558 638 506 700 q 610 460 610 575 q 501 126 610 268 q 246 -15 393 -15 q 97 48 149 -15 q 44 226 44 111 q 153 558 44 417 q 408 700 261 700 m 475 456 q 475 538 475 456 q 385 621 475 621 q 237 508 294 621 q 179 229 179 394 q 269 64 179 64 q 417 177 360 64 q 475 456 475 290 m 658 1010 q 590 865 644 915 q 444 815 535 815 q 311 865 353 815 q 281 965 281 903 q 285 1010 281 986 l 360 1010 q 358 989 358 999 q 381 922 358 950 q 455 893 404 893 q 541 925 506 893 q 583 1010 576 957 l 658 1010 z "},"Ő":{"ha":999,"x_min":68,"x_max":974,"o":"m 974 583 q 835 149 974 318 q 450 -21 697 -21 q 167 92 265 -21 q 68 394 68 204 q 206 831 68 661 q 592 1000 344 1000 q 875 887 776 1000 q 974 583 974 774 m 384 849 q 341 811 384 849 q 258 653 299 772 q 217 388 217 533 q 278 147 217 242 q 455 53 339 53 q 656 129 571 53 q 783 325 742 206 q 825 591 825 444 q 765 832 825 738 q 587 926 704 926 q 384 849 469 926 m 624 1268 l 679 1175 q 486 1089 513 1101 l 376 1019 l 340 1079 l 624 1268 m 913 1268 l 968 1175 q 775 1089 800 1101 l 665 1019 l 629 1079 l 913 1268 z "},"ő":{"ha":656,"x_min":44,"x_max":811,"o":"m 408 700 q 558 638 506 700 q 610 460 610 575 q 501 126 610 268 q 246 -15 393 -15 q 97 48 149 -15 q 44 226 44 111 q 153 558 44 417 q 408 700 261 700 m 475 456 q 475 538 475 456 q 385 621 475 621 q 237 508 294 621 q 179 229 179 394 q 269 64 179 64 q 417 177 360 64 q 475 456 475 290 m 746 1063 l 811 976 q 631 868 653 883 l 531 783 l 486 840 l 746 1063 m 475 1063 l 540 976 q 360 868 382 883 l 261 783 l 217 840 l 475 1063 z "},"Œ":{"ha":1322,"x_min":68,"x_max":1324,"o":"m 1019 0 l 700 0 q 576 -6 660 0 q 444 -21 511 -21 q 164 91 260 -21 q 68 393 68 203 q 207 830 68 660 q 593 1000 346 1000 q 721 985 660 1000 q 843 979 801 979 l 1146 979 l 1300 993 l 1324 968 l 1304 779 l 1225 772 q 1223 840 1225 817 q 1201 894 1221 863 q 1093 901 1129 901 l 917 901 q 885 747 900 836 l 856 547 q 913 544 900 544 l 1011 544 l 1093 557 l 1119 649 l 1181 642 l 1164 531 l 1146 379 l 1079 371 l 1081 464 q 975 472 1001 472 l 903 472 q 844 468 878 472 l 810 232 q 796 79 800 151 l 990 79 q 1110 92 1042 79 q 1144 140 1140 128 q 1162 188 1149 151 q 1179 236 1175 224 l 1253 229 l 1201 19 l 1172 -6 q 1019 0 1047 0 m 774 826 q 586 926 706 926 q 381 849 467 926 q 253 653 294 772 q 213 388 213 535 q 274 147 213 242 q 458 53 335 53 q 675 150 582 53 l 774 826 z "},"œ":{"ha":963,"x_min":46,"x_max":947,"o":"m 746 699 q 947 589 947 699 q 849 405 947 483 q 578 292 751 326 q 572 207 572 253 q 656 69 572 69 q 872 213 768 69 l 915 181 q 610 -14 797 -14 q 464 90 497 -14 q 253 -14 374 -14 q 46 229 46 -14 q 88 443 46 336 q 213 624 131 550 q 394 699 296 699 q 583 575 542 699 q 746 699 672 699 m 389 619 q 235 499 294 619 q 175 238 175 378 q 194 117 175 169 q 261 65 214 65 q 379 126 328 65 q 455 270 431 186 q 479 438 479 354 q 479 447 479 443 q 389 619 479 619 m 740 617 q 659 538 703 617 q 590 354 615 458 q 767 432 700 378 q 833 553 833 486 q 812 602 833 588 q 740 617 790 617 z "},"Ŕ":{"ha":875,"x_min":13,"x_max":824,"o":"m 297 979 l 535 993 q 738 932 663 993 q 813 752 813 871 q 747 551 813 633 q 572 436 681 468 q 660 213 635 265 q 728 85 686 161 l 824 75 l 803 -7 q 588 0 697 0 q 538 161 550 128 l 442 418 q 314 421 394 418 l 286 232 q 274 85 274 144 l 394 75 l 372 -7 q 172 0 283 0 l 13 -7 l 15 63 l 126 85 q 154 190 147 154 l 243 789 q 246 894 246 813 l 143 911 l 161 986 q 297 979 251 982 m 481 924 q 399 915 468 924 q 363 747 378 844 l 325 494 q 429 488 390 488 q 615 552 550 488 q 681 742 681 617 q 628 877 681 831 q 481 924 575 924 m 650 1247 l 690 1146 q 486 1093 513 1101 l 368 1042 l 340 1108 l 650 1247 z "},"ŕ":{"ha":554,"x_min":68,"x_max":599,"o":"m 543 700 q 575 694 569 700 l 599 661 l 536 426 l 485 431 l 476 597 q 325 417 397 553 q 233 144 253 282 l 214 0 l 119 -21 l 83 0 q 183 581 156 286 l 68 586 l 68 640 l 297 700 l 329 672 q 279 450 299 568 q 406 632 335 564 q 543 700 478 700 m 508 1049 l 571 965 q 408 867 428 882 l 310 783 l 265 840 l 508 1049 z "},"Ŗ":{"ha":875,"x_min":13,"x_max":824,"o":"m 297 979 l 535 993 q 738 932 663 993 q 813 752 813 871 q 747 551 813 633 q 572 436 681 468 q 660 213 635 265 q 728 85 686 161 l 824 75 l 803 -7 q 588 0 697 0 q 538 161 550 128 l 442 418 q 314 421 394 418 l 286 232 q 274 85 274 144 l 394 75 l 372 -7 q 172 0 283 0 l 13 -7 l 15 63 l 126 85 q 154 190 147 154 l 243 789 q 246 894 246 813 l 143 911 l 161 986 q 297 979 251 982 m 481 924 q 399 915 468 924 q 363 747 378 844 l 325 494 q 429 488 390 488 q 615 552 550 488 q 681 742 681 617 q 628 877 681 831 q 481 924 575 924 m 440 -233 q 406 -174 406 -217 q 431 -106 406 -131 q 486 -81 456 -81 q 543 -151 543 -81 q 520 -241 543 -189 q 475 -326 497 -293 l 451 -360 l 404 -343 q 440 -233 436 -269 z "},"ŗ":{"ha":554,"x_min":61,"x_max":599,"o":"m 543 700 q 575 694 569 700 l 599 661 l 536 426 l 485 431 l 476 597 q 325 417 397 553 q 233 144 253 282 l 214 0 l 119 -21 l 83 0 q 183 581 156 286 l 68 586 l 68 640 l 297 700 l 329 672 q 279 450 299 568 q 406 632 335 564 q 543 700 478 700 m 97 -233 q 63 -174 63 -217 q 88 -106 63 -131 q 143 -81 113 -81 q 200 -151 200 -81 q 177 -241 200 -189 q 131 -326 154 -293 l 108 -360 l 61 -343 q 97 -233 93 -269 z "},"Ř":{"ha":875,"x_min":13,"x_max":824,"o":"m 297 979 l 535 993 q 738 932 663 993 q 813 752 813 871 q 747 551 813 633 q 572 436 681 468 q 660 213 635 265 q 728 85 686 161 l 824 75 l 803 -7 q 588 0 697 0 q 538 161 550 128 l 442 418 q 314 421 394 418 l 286 232 q 274 85 274 144 l 394 75 l 372 -7 q 172 0 283 0 l 13 -7 l 15 63 l 126 85 q 154 190 147 154 l 243 789 q 246 894 246 813 l 143 911 l 161 986 q 297 979 251 982 m 481 924 q 399 915 468 924 q 363 747 378 844 l 325 494 q 429 488 390 488 q 615 552 550 488 q 681 742 681 617 q 628 877 681 831 q 481 924 575 924 m 711 1240 l 735 1186 l 479 1038 l 267 1186 l 304 1240 l 415 1183 l 496 1149 q 586 1183 557 1174 l 711 1240 z "},"ř":{"ha":554,"x_min":68,"x_max":633,"o":"m 543 700 q 575 694 569 700 l 599 661 l 536 426 l 485 431 l 476 597 q 325 417 397 553 q 233 144 253 282 l 214 0 l 119 -21 l 83 0 q 183 581 156 286 l 68 586 l 68 640 l 297 700 l 329 672 q 279 450 299 568 q 406 632 335 564 q 543 700 478 700 m 238 1063 l 324 978 q 393 918 325 976 l 483 978 l 596 1063 l 633 1018 l 375 783 l 186 1018 l 238 1063 z "},"Ś":{"ha":754,"x_min":31,"x_max":732,"o":"m 171 258 q 160 164 160 189 q 163 100 160 139 q 334 63 246 63 q 478 115 422 63 q 533 256 533 167 q 392 428 533 349 q 274 496 333 461 q 174 585 215 531 q 132 711 132 640 q 225 922 132 844 q 461 1000 318 1000 q 732 956 565 1000 l 682 746 l 603 754 q 613 822 613 815 q 606 893 613 828 q 460 924 543 924 q 326 878 378 924 q 275 753 275 832 q 419 583 275 661 q 539 514 479 550 q 641 420 599 478 q 683 288 683 363 q 580 60 683 140 q 321 -21 476 -21 q 168 -2 240 -21 q 64 35 96 17 l 31 53 l 82 267 l 171 258 m 617 1247 l 657 1146 q 453 1093 479 1101 l 335 1042 l 307 1108 l 617 1247 z "},"ś":{"ha":504,"x_min":-3,"x_max":543,"o":"m 299 700 q 439 683 354 700 l 464 679 l 493 646 l 449 475 l 394 479 l 374 617 q 297 632 338 632 q 220 606 256 632 q 185 542 185 579 q 226 467 185 506 q 315 398 267 429 q 405 315 364 367 q 446 206 446 264 q 372 47 446 108 q 190 -15 299 -15 q 79 8 133 -15 q -1 60 25 31 l -3 104 l 67 242 l 118 226 l 104 96 q 208 56 151 56 q 298 83 264 56 q 332 157 332 111 q 292 240 332 203 q 206 305 253 276 q 120 388 160 333 q 81 516 81 442 q 144 645 81 590 q 299 700 208 700 m 481 1049 l 543 965 q 381 867 400 882 l 282 783 l 238 840 l 481 1049 z "},"Ŝ":{"ha":754,"x_min":31,"x_max":732,"o":"m 171 258 q 160 164 160 189 q 163 100 160 139 q 334 63 246 63 q 478 115 422 63 q 533 256 533 167 q 392 428 533 349 q 274 496 333 461 q 174 585 215 531 q 132 711 132 640 q 225 922 132 844 q 461 1000 318 1000 q 732 956 565 1000 l 682 746 l 603 754 q 613 822 613 815 q 606 893 613 828 q 460 924 543 924 q 326 878 378 924 q 275 753 275 832 q 419 583 275 661 q 539 514 479 550 q 641 420 599 478 q 683 288 683 363 q 580 60 683 140 q 321 -21 476 -21 q 168 -2 240 -21 q 64 35 96 17 l 31 53 l 82 267 l 171 258 m 489 1240 l 701 1092 l 663 1038 l 553 1094 l 474 1129 q 440 1117 461 1125 q 404 1103 419 1108 q 382 1094 389 1097 l 256 1038 l 233 1092 l 489 1240 z "},"ŝ":{"ha":504,"x_min":-3,"x_max":579,"o":"m 299 700 q 439 683 354 700 l 464 679 l 493 646 l 449 475 l 394 479 l 374 617 q 297 632 338 632 q 220 606 256 632 q 185 542 185 579 q 226 467 185 506 q 315 398 267 429 q 405 315 364 367 q 446 206 446 264 q 372 47 446 108 q 190 -15 299 -15 q 79 8 133 -15 q -1 60 25 31 l -3 104 l 67 242 l 118 226 l 104 96 q 208 56 151 56 q 298 83 264 56 q 332 157 332 111 q 292 240 332 203 q 206 305 253 276 q 120 388 160 333 q 81 516 81 442 q 144 645 81 590 q 299 700 208 700 m 390 1063 l 579 828 l 528 783 l 440 868 l 369 928 q 317 892 349 914 q 281 868 285 871 l 169 783 l 132 828 l 390 1063 z "},"Ş":{"ha":754,"x_min":31,"x_max":732,"o":"m 171 258 q 160 164 160 189 q 163 100 160 139 q 334 63 246 63 q 478 115 422 63 q 533 256 533 167 q 392 428 533 349 q 274 496 333 461 q 174 585 215 531 q 132 711 132 640 q 225 922 132 844 q 461 1000 318 1000 q 732 956 565 1000 l 682 746 l 603 754 q 613 822 613 815 q 606 893 613 828 q 460 924 543 924 q 326 878 378 924 q 275 753 275 832 q 419 583 275 661 q 539 514 479 550 q 641 420 599 478 q 683 288 683 363 q 585 63 683 143 q 335 -21 486 -17 l 314 -82 q 401 -111 368 -83 q 435 -194 435 -139 q 387 -287 435 -249 q 274 -326 339 -326 q 163 -301 210 -326 l 186 -253 q 267 -268 235 -268 q 323 -248 300 -268 q 346 -193 346 -228 q 292 -143 346 -143 l 263 -144 l 249 -131 l 274 -18 q 145 5 206 -12 q 58 38 85 22 l 31 53 l 82 267 l 171 258 z "},"ş":{"ha":504,"x_min":-3,"x_max":493,"o":"m 299 700 q 439 683 354 700 l 464 679 l 493 646 l 449 475 l 394 479 l 374 617 q 297 632 338 632 q 220 606 256 632 q 185 542 185 579 q 226 467 185 506 q 315 398 267 429 q 405 315 364 367 q 446 206 446 264 q 381 55 446 115 q 218 -14 317 -6 l 194 -82 q 282 -111 249 -83 q 315 -194 315 -139 q 267 -287 315 -249 q 155 -326 219 -326 q 43 -301 90 -326 l 67 -253 q 148 -268 115 -268 q 203 -248 181 -268 q 226 -193 226 -228 q 172 -143 226 -143 l 143 -144 l 129 -131 l 156 -12 q -1 60 44 4 l -3 104 l 67 242 l 118 226 l 104 96 q 208 56 151 56 q 298 83 264 56 q 332 157 332 111 q 292 240 332 203 q 206 305 253 276 q 120 388 160 333 q 81 516 81 442 q 144 645 81 590 q 299 700 208 700 z "},"Š":{"ha":754,"x_min":31,"x_max":732,"o":"m 171 258 q 160 164 160 189 q 163 100 160 139 q 334 63 246 63 q 478 115 422 63 q 533 256 533 167 q 392 428 533 349 q 274 496 333 461 q 174 585 215 531 q 132 711 132 640 q 225 922 132 844 q 461 1000 318 1000 q 732 956 565 1000 l 682 746 l 603 754 q 613 822 613 815 q 606 893 613 828 q 460 924 543 924 q 326 878 378 924 q 275 753 275 832 q 419 583 275 661 q 539 514 479 550 q 641 420 599 478 q 683 288 683 363 q 580 60 683 140 q 321 -21 476 -21 q 168 -2 240 -21 q 64 35 96 17 l 31 53 l 82 267 l 171 258 m 692 1240 l 715 1186 l 460 1038 l 247 1186 l 285 1240 l 396 1183 l 476 1149 q 567 1183 538 1174 l 692 1240 z "},"š":{"ha":504,"x_min":-3,"x_max":583,"o":"m 299 700 q 439 683 354 700 l 464 679 l 493 646 l 449 475 l 394 479 l 374 617 q 297 632 338 632 q 220 606 256 632 q 185 542 185 579 q 226 467 185 506 q 315 398 267 429 q 405 315 364 367 q 446 206 446 264 q 372 47 446 108 q 190 -15 299 -15 q 79 8 133 -15 q -1 60 25 31 l -3 104 l 67 242 l 118 226 l 104 96 q 208 56 151 56 q 298 83 264 56 q 332 157 332 111 q 292 240 332 203 q 206 305 253 276 q 120 388 160 333 q 81 516 81 442 q 144 645 81 590 q 299 700 208 700 m 188 1063 l 274 978 q 343 918 275 976 l 433 978 l 546 1063 l 583 1018 l 325 783 l 136 1018 l 188 1063 z "},"Ţ":{"ha":803,"x_min":75,"x_max":872,"o":"m 643 901 l 556 901 q 524 747 535 819 l 449 232 q 436 85 444 204 l 556 75 l 533 -7 q 379 0 467 -1 l 351 -82 q 439 -111 406 -83 q 472 -194 472 -139 q 424 -287 472 -249 q 312 -326 376 -326 q 200 -301 247 -326 l 224 -253 q 305 -268 272 -268 q 360 -248 338 -268 q 383 -193 383 -228 q 329 -143 383 -143 l 300 -144 l 286 -131 l 315 0 l 176 -7 l 181 63 l 289 85 q 317 190 310 154 l 404 789 q 408 901 408 826 l 324 901 q 214 894 290 901 q 180 849 183 860 q 153 761 176 838 l 75 768 l 114 968 l 143 993 q 294 979 268 979 l 694 979 l 850 993 l 872 968 l 851 768 l 772 761 q 771 844 772 826 q 750 894 769 863 q 643 901 678 901 z "},"ţ":{"ha":450,"x_min":64,"x_max":478,"o":"m 215 -82 q 303 -111 269 -83 q 336 -194 336 -139 q 288 -287 336 -249 q 176 -326 240 -326 q 64 -301 111 -326 l 88 -253 q 169 -268 136 -268 q 224 -248 201 -268 q 247 -193 247 -228 q 193 -143 247 -143 l 164 -144 l 150 -131 l 178 -7 l 124 -21 l 89 0 q 192 589 156 269 l 65 589 l 71 650 q 200 692 179 679 q 276 800 233 710 l 290 829 l 347 813 q 333 729 340 778 q 324 667 326 681 l 478 667 l 457 589 l 310 589 q 229 96 254 281 l 385 90 l 381 40 l 246 8 l 215 -82 z "},"Ť":{"ha":803,"x_min":75,"x_max":872,"o":"m 643 901 l 556 901 q 524 747 535 819 l 449 232 q 436 85 444 204 l 556 75 l 533 -7 q 336 0 444 0 l 176 -7 l 181 63 l 289 85 q 317 190 310 154 l 404 789 q 408 901 408 826 l 324 901 q 214 894 290 901 q 180 849 183 860 q 153 761 176 838 l 75 768 l 114 968 l 143 993 q 294 979 268 979 l 694 979 l 850 993 l 872 968 l 851 768 l 772 761 q 771 844 772 826 q 750 894 769 863 q 643 901 678 901 m 733 1240 l 757 1186 l 501 1038 l 289 1186 l 326 1240 l 438 1183 l 518 1149 q 608 1183 579 1174 l 733 1240 z "},"ť":{"ha":450,"x_min":65,"x_max":564,"o":"m 457 589 l 310 589 q 229 96 254 281 l 385 90 l 381 40 l 124 -21 l 89 0 q 192 589 156 269 l 65 589 l 71 650 q 200 692 179 679 q 276 800 233 710 l 290 829 l 347 813 q 333 729 340 778 q 324 667 326 681 l 478 667 l 457 589 m 457 1050 l 564 1050 l 503 754 l 426 758 l 444 872 l 457 1050 z "},"Ŧ":{"ha":803,"x_min":75,"x_max":872,"o":"m 643 901 l 556 901 q 524 747 535 819 l 494 551 l 703 551 l 693 490 l 486 490 l 449 232 q 436 85 444 204 l 556 75 l 533 -7 q 336 0 444 0 l 176 -7 l 181 63 l 289 85 q 317 190 310 154 l 360 490 l 154 490 l 164 551 l 369 551 l 404 789 q 408 901 408 826 l 324 901 q 214 894 290 901 q 180 849 183 860 q 153 761 176 838 l 75 768 l 114 968 l 143 993 q 294 979 268 979 l 694 979 l 850 993 l 872 968 l 851 768 l 772 761 q 771 844 772 826 q 750 894 769 863 q 643 901 678 901 z "},"ŧ":{"ha":450,"x_min":46,"x_max":478,"o":"m 457 589 l 310 589 l 289 472 l 439 472 l 429 411 l 278 411 q 229 96 242 192 l 385 90 l 381 40 l 124 -21 l 89 0 q 169 411 146 225 l 46 411 l 56 472 l 178 472 l 192 589 l 65 589 l 71 650 q 200 692 179 679 q 276 800 233 710 l 290 829 l 347 813 q 333 729 340 778 q 324 667 326 681 l 478 667 l 457 589 z "},"Ũ":{"ha":982,"x_min":107,"x_max":1044,"o":"m 717 83 q 665 31 717 83 q 443 -21 614 -21 q 196 83 272 -21 q 139 285 139 163 q 144 369 139 325 l 206 782 q 210 894 210 817 l 107 911 l 124 986 q 278 979 250 979 l 476 986 l 469 904 l 363 894 q 331 740 344 829 l 276 369 q 271 294 271 329 q 304 150 271 208 q 465 68 351 68 q 652 151 579 68 q 744 369 725 233 l 806 782 q 808 894 808 806 l 706 911 l 724 986 q 865 979 836 979 l 1044 986 l 1039 904 l 932 894 q 899 740 915 846 l 844 369 q 717 83 819 188 m 775 1103 q 755 1081 775 1103 q 709 1060 735 1060 q 604 1088 683 1060 q 503 1117 525 1117 q 429 1071 467 1117 l 417 1056 l 372 1085 q 419 1151 389 1118 q 502 1211 474 1211 q 610 1183 531 1211 q 711 1154 689 1154 q 786 1207 750 1154 l 799 1225 l 843 1196 q 775 1103 815 1146 z "},"ũ":{"ha":778,"x_min":57,"x_max":711,"o":"m 192 -15 q 117 21 143 -15 q 92 111 92 57 q 128 325 92 165 q 172 581 164 485 l 57 586 l 57 640 l 288 700 l 318 672 q 221 165 224 315 q 268 94 221 94 q 406 217 324 94 q 550 593 489 340 l 563 678 l 664 700 l 697 678 q 624 363 646 479 q 588 96 601 247 l 711 90 l 707 40 l 479 -21 l 443 0 q 499 257 469 93 q 355 59 435 133 q 192 -15 275 -15 m 613 882 q 592 860 613 882 q 547 839 572 839 q 450 867 522 839 q 356 896 378 896 q 313 877 333 896 q 279 839 292 858 l 267 821 l 222 850 q 291 947 251 903 q 356 990 331 990 q 455 962 382 990 q 550 933 528 933 q 624 986 585 933 l 636 1004 l 681 975 q 613 882 653 925 z "},"Ū":{"ha":982,"x_min":107,"x_max":1044,"o":"m 717 83 q 665 31 717 83 q 443 -21 614 -21 q 196 83 272 -21 q 139 285 139 163 q 144 369 139 325 l 206 782 q 210 894 210 817 l 107 911 l 124 986 q 278 979 250 979 l 476 986 l 469 904 l 363 894 q 331 740 344 829 l 276 369 q 271 294 271 329 q 304 150 271 208 q 465 68 351 68 q 652 151 579 68 q 744 369 725 233 l 806 782 q 808 894 808 806 l 706 911 l 724 986 q 865 979 836 979 l 1044 986 l 1039 904 l 932 894 q 899 740 915 846 l 844 369 q 717 83 819 188 m 819 1085 l 392 1085 l 403 1158 l 838 1158 l 819 1085 z "},"ū":{"ha":778,"x_min":57,"x_max":711,"o":"m 192 -15 q 117 21 143 -15 q 92 111 92 57 q 128 325 92 165 q 172 581 164 485 l 57 586 l 57 640 l 288 700 l 318 672 q 221 165 224 315 q 268 94 221 94 q 406 217 324 94 q 550 593 489 340 l 563 678 l 664 700 l 697 678 q 624 363 646 479 q 588 96 601 247 l 711 90 l 707 40 l 479 -21 l 443 0 q 499 257 469 93 q 355 59 435 133 q 192 -15 275 -15 m 656 842 l 228 842 l 239 915 l 674 915 l 656 842 z "},"Ŭ":{"ha":982,"x_min":107,"x_max":1044,"o":"m 717 83 q 665 31 717 83 q 443 -21 614 -21 q 196 83 272 -21 q 139 285 139 163 q 144 369 139 325 l 206 782 q 210 894 210 817 l 107 911 l 124 986 q 278 979 250 979 l 476 986 l 469 904 l 363 894 q 331 740 344 829 l 276 369 q 271 294 271 329 q 304 150 271 208 q 465 68 351 68 q 652 151 579 68 q 744 369 725 233 l 806 782 q 808 894 808 806 l 706 911 l 724 986 q 865 979 836 979 l 1044 986 l 1039 904 l 932 894 q 899 740 915 846 l 844 369 q 717 83 819 188 m 808 1247 q 740 1103 794 1153 q 594 1053 685 1053 q 461 1103 503 1053 q 431 1203 431 1140 q 435 1247 431 1224 l 510 1247 q 508 1226 508 1236 q 531 1159 508 1188 q 605 1131 554 1131 q 691 1163 656 1131 q 733 1247 726 1194 l 808 1247 z "},"ŭ":{"ha":778,"x_min":57,"x_max":711,"o":"m 192 -15 q 117 21 143 -15 q 92 111 92 57 q 128 325 92 165 q 172 581 164 485 l 57 586 l 57 640 l 288 700 l 318 672 q 221 165 224 315 q 268 94 221 94 q 406 217 324 94 q 550 593 489 340 l 563 678 l 664 700 l 697 678 q 624 363 646 479 q 588 96 601 247 l 711 90 l 707 40 l 479 -21 l 443 0 q 499 257 469 93 q 355 59 435 133 q 192 -15 275 -15 m 653 1010 q 584 865 639 915 q 438 815 529 815 q 306 865 347 815 q 275 965 275 903 q 279 1010 275 986 l 354 1010 q 353 989 353 999 q 376 922 353 950 q 449 893 399 893 q 535 925 500 893 q 578 1010 571 957 l 653 1010 z "},"Ů":{"ha":982,"x_min":107,"x_max":1044,"o":"m 717 83 q 665 31 717 83 q 443 -21 614 -21 q 196 83 272 -21 q 139 285 139 163 q 144 369 139 325 l 206 782 q 210 894 210 817 l 107 911 l 124 986 q 278 979 250 979 l 476 986 l 469 904 l 363 894 q 331 740 344 829 l 276 369 q 271 294 271 329 q 304 150 271 208 q 465 68 351 68 q 652 151 579 68 q 744 369 725 233 l 806 782 q 808 894 808 806 l 706 911 l 724 986 q 865 979 836 979 l 1044 986 l 1039 904 l 932 894 q 899 740 915 846 l 844 369 q 717 83 819 188 m 494 1133 q 531 1234 494 1196 q 628 1272 568 1272 q 739 1174 739 1272 q 703 1073 739 1111 q 608 1035 668 1035 q 494 1133 494 1035 m 628 1219 q 578 1196 594 1219 q 561 1140 561 1172 q 608 1088 561 1088 q 659 1111 643 1088 q 675 1167 675 1135 q 628 1219 675 1219 z "},"ů":{"ha":778,"x_min":57,"x_max":711,"o":"m 192 -15 q 117 21 143 -15 q 92 111 92 57 q 128 325 92 165 q 172 581 164 485 l 57 586 l 57 640 l 288 700 l 318 672 q 221 165 224 315 q 268 94 221 94 q 406 217 324 94 q 550 593 489 340 l 563 678 l 664 700 l 697 678 q 624 363 646 479 q 588 96 601 247 l 711 90 l 707 40 l 479 -21 l 443 0 q 499 257 469 93 q 355 59 435 133 q 192 -15 275 -15 m 331 904 q 367 1005 331 967 q 464 1043 404 1043 q 575 944 575 1043 q 540 844 575 882 q 444 806 504 806 q 331 904 331 806 m 464 990 q 414 967 431 990 q 397 911 397 943 q 444 858 397 858 q 495 882 479 858 q 511 938 511 906 q 464 990 511 990 z "},"Ű":{"ha":982,"x_min":107,"x_max":1044,"o":"m 717 83 q 665 31 717 83 q 443 -21 614 -21 q 196 83 272 -21 q 139 285 139 163 q 144 369 139 325 l 206 782 q 210 894 210 817 l 107 911 l 124 986 q 278 979 250 979 l 476 986 l 469 904 l 363 894 q 331 740 344 829 l 276 369 q 271 294 271 329 q 304 150 271 208 q 465 68 351 68 q 652 151 579 68 q 744 369 725 233 l 806 782 q 808 894 808 806 l 706 911 l 724 986 q 865 979 836 979 l 1044 986 l 1039 904 l 932 894 q 899 740 915 846 l 844 369 q 717 83 819 188 m 631 1268 l 686 1175 q 493 1089 519 1101 l 383 1019 l 347 1079 l 631 1268 m 919 1268 l 975 1175 q 782 1089 807 1101 l 672 1019 l 636 1079 l 919 1268 z "},"ű":{"ha":778,"x_min":57,"x_max":807,"o":"m 192 -15 q 117 21 143 -15 q 92 111 92 57 q 128 325 92 165 q 172 581 164 485 l 57 586 l 57 640 l 288 700 l 318 672 q 221 165 224 315 q 268 94 221 94 q 406 217 324 94 q 550 593 489 340 l 563 678 l 664 700 l 697 678 q 624 363 646 479 q 588 96 601 247 l 711 90 l 707 40 l 479 -21 l 443 0 q 499 257 469 93 q 355 59 435 133 q 192 -15 275 -15 m 742 1063 l 807 976 q 626 868 649 883 l 526 783 l 482 840 l 742 1063 m 471 1063 l 536 976 q 356 868 378 883 l 257 783 l 213 840 l 471 1063 z "},"Ų":{"ha":982,"x_min":107,"x_max":1044,"o":"m 419 -160 q 483 -215 419 -215 q 563 -197 518 -215 l 574 -243 q 453 -274 508 -274 q 365 -247 399 -274 q 332 -172 332 -219 q 351 -94 332 -125 q 422 -21 371 -62 q 190 89 261 -14 q 138 282 138 167 q 144 369 138 324 l 206 782 q 210 894 210 817 l 107 911 l 124 986 q 278 979 250 979 l 476 986 l 469 904 l 363 894 q 331 740 344 829 l 276 369 q 271 294 271 329 q 304 150 271 208 q 465 68 351 68 q 652 151 579 68 q 744 369 725 233 l 806 782 q 808 894 808 806 l 706 911 l 724 986 q 865 979 836 979 l 1044 986 l 1039 904 l 932 894 q 899 740 915 846 l 844 369 q 731 99 821 201 q 493 -18 642 -3 q 419 -160 419 -99 z "},"ų":{"ha":778,"x_min":57,"x_max":711,"o":"m 411 -160 q 475 -215 411 -215 q 554 -197 510 -215 l 565 -243 q 445 -274 500 -274 q 357 -247 390 -274 q 324 -170 324 -219 q 348 -87 324 -121 q 444 3 372 -54 q 499 257 467 83 q 355 59 435 133 q 192 -15 275 -15 q 117 21 143 -15 q 92 111 92 57 q 128 325 92 165 q 172 581 164 485 l 57 586 l 57 640 l 288 700 l 318 672 q 221 165 224 315 q 268 94 221 94 q 406 217 324 94 q 550 593 489 340 l 563 678 l 664 700 l 697 678 q 624 363 646 479 q 588 96 601 247 l 711 90 l 707 40 l 483 -19 q 411 -160 411 -99 z "},"Ŵ":{"ha":1363,"x_min":83,"x_max":1449,"o":"m 1444 918 l 1350 894 q 1268 757 1293 811 l 939 0 l 854 0 l 731 703 l 428 0 l 342 0 l 206 772 q 176 874 197 822 l 169 890 l 83 904 l 101 979 l 247 979 l 450 986 l 444 918 l 335 890 q 349 740 339 811 l 424 206 l 744 951 l 819 951 l 936 206 l 1188 803 l 1214 890 l 1115 904 l 1132 979 l 1254 979 l 1449 986 l 1444 918 m 811 1240 l 1024 1092 l 985 1038 l 875 1094 l 796 1129 q 763 1117 783 1125 q 726 1103 742 1108 q 704 1094 711 1097 l 578 1038 l 556 1092 l 811 1240 z "},"ŵ":{"ha":1046,"x_min":42,"x_max":1036,"o":"m 533 488 l 513 674 l 610 699 l 643 678 l 649 517 q 626 341 649 499 q 604 138 604 183 q 639 92 604 92 q 721 126 674 92 q 810 215 768 161 q 883 343 853 269 q 913 488 913 417 q 904 581 913 513 l 793 586 l 783 640 l 1001 700 l 1036 678 q 990 397 1036 531 q 872 176 943 264 q 718 36 800 88 q 563 -15 636 -15 q 505 13 525 -15 q 485 72 485 40 q 500 186 485 104 q 349 38 431 90 q 192 -15 267 -15 q 106 79 106 -15 q 138 268 106 111 q 169 492 169 425 q 165 581 169 558 l 50 586 l 42 640 l 251 700 l 285 678 l 288 678 l 288 517 q 262 342 288 499 q 236 138 236 185 q 269 92 236 92 q 439 220 344 92 q 533 488 533 349 m 644 1063 l 833 828 l 782 783 l 694 868 l 624 928 q 571 892 603 914 q 535 868 539 871 l 424 783 l 386 828 l 644 1063 z "},"Ŷ":{"ha":896,"x_min":89,"x_max":961,"o":"m 957 918 l 863 894 q 757 757 803 829 l 513 381 l 492 232 q 479 85 479 144 l 597 75 l 576 -7 q 378 0 488 0 l 219 -7 l 222 63 l 332 85 q 339 114 333 90 q 358 190 356 172 l 383 358 l 233 772 q 186 874 218 819 l 176 890 l 89 904 l 107 979 l 253 979 l 456 986 l 451 918 l 342 890 q 376 740 347 822 l 475 478 l 676 803 l 725 890 l 628 904 l 644 979 l 767 979 l 961 986 l 957 918 m 576 1240 l 789 1092 l 750 1038 l 640 1094 l 561 1129 q 528 1117 549 1125 q 492 1103 507 1108 q 469 1094 476 1097 l 343 1038 l 321 1092 l 576 1240 z "},"ŷ":{"ha":733,"x_min":-4,"x_max":681,"o":"m 419 -256 q 390 -274 419 -256 q 301 -310 361 -293 q 185 -326 240 -326 q 74 -318 129 -326 q -4 -299 18 -310 l 40 -190 q 219 -226 139 -226 q 351 -209 300 -226 q 421 -176 403 -192 q 450 -78 435 -161 q 496 254 465 6 q 353 58 432 132 q 192 -15 275 -15 q 117 21 143 -15 q 92 111 92 57 q 128 325 92 165 q 172 581 164 485 l 57 586 l 57 640 l 288 700 l 318 672 q 221 165 221 297 q 268 94 221 94 q 412 226 329 94 q 547 581 494 357 l 436 586 l 428 640 l 647 700 l 681 678 q 594 231 624 456 q 571 19 588 168 q 519 -147 560 -76 q 419 -256 478 -218 m 469 1063 l 658 828 l 607 783 l 519 868 l 449 928 q 396 892 428 914 q 360 868 364 871 l 249 783 l 211 828 l 469 1063 z "},"Ÿ":{"ha":896,"x_min":89,"x_max":961,"o":"m 957 918 l 863 894 q 757 757 803 829 l 513 381 l 492 232 q 479 85 479 144 l 597 75 l 576 -7 q 378 0 488 0 l 219 -7 l 222 63 l 332 85 q 339 114 333 90 q 358 190 356 172 l 383 358 l 233 772 q 186 874 218 819 l 176 890 l 89 904 l 107 979 l 253 979 l 456 986 l 451 918 l 342 890 q 376 740 347 822 l 475 478 l 676 803 l 725 890 l 628 904 l 644 979 l 767 979 l 961 986 l 957 918 m 415 1228 q 479 1161 479 1228 q 456 1090 479 1117 q 392 1063 433 1063 q 329 1128 329 1063 q 351 1200 329 1172 q 415 1228 374 1228 m 733 1228 q 796 1161 796 1228 q 774 1090 796 1117 q 710 1063 751 1063 q 647 1128 647 1063 q 669 1200 647 1172 q 733 1228 692 1228 z "},"Ź":{"ha":754,"x_min":0,"x_max":775,"o":"m 361 897 q 244 890 317 897 l 215 843 q 183 726 193 775 l 106 733 l 146 968 l 175 993 q 326 979 300 979 l 775 979 l 775 901 l 600 686 l 292 265 l 171 82 l 442 82 q 561 94 492 82 q 601 156 589 125 q 628 250 613 188 l 703 243 l 654 19 l 624 -6 q 471 0 499 0 l 0 0 l 1 79 q 181 304 132 238 l 490 722 l 606 897 l 361 897 m 606 1247 l 646 1146 q 442 1093 468 1101 l 324 1042 l 296 1108 l 606 1247 z "},"ź":{"ha":608,"x_min":-10,"x_max":610,"o":"m 557 211 l 522 14 l 481 -18 l 92 0 l 21 -18 l -10 8 q 238 326 153 207 q 415 596 322 444 q 172 572 299 594 l 136 460 l 83 464 l 76 667 l 99 700 l 513 676 l 594 697 l 610 671 q 353 334 439 453 q 186 78 268 215 q 433 96 353 78 q 508 228 507 222 q 533 220 510 228 q 557 211 556 213 m 507 1049 l 569 965 q 407 867 426 882 l 308 783 l 264 840 l 507 1049 z "},"Ż":{"ha":754,"x_min":0,"x_max":775,"o":"m 361 897 q 244 890 317 897 l 215 843 q 183 726 193 775 l 106 733 l 146 968 l 175 993 q 326 979 300 979 l 775 979 l 775 901 l 600 686 l 292 265 l 171 82 l 442 82 q 561 94 492 82 q 601 156 589 125 q 628 250 613 188 l 703 243 l 654 19 l 624 -6 q 471 0 499 0 l 0 0 l 1 79 q 181 304 132 238 l 490 722 l 606 897 l 361 897 m 406 1131 q 431 1206 406 1176 q 494 1236 457 1236 q 568 1163 568 1236 q 542 1087 568 1117 q 478 1057 515 1057 q 406 1131 406 1057 z "},"ż":{"ha":608,"x_min":-10,"x_max":610,"o":"m 557 211 l 522 14 l 481 -18 l 92 0 l 21 -18 l -10 8 q 238 326 153 207 q 415 596 322 444 q 172 572 299 594 l 136 460 l 83 464 l 76 667 l 99 700 l 513 676 l 594 697 l 610 671 q 353 334 439 453 q 186 78 268 215 q 433 96 353 78 q 508 228 507 222 q 533 220 510 228 q 557 211 556 213 m 311 894 q 337 970 311 940 q 400 1000 363 1000 q 474 926 474 1000 q 447 851 474 881 q 383 821 421 821 q 311 894 311 821 z "},"Ž":{"ha":754,"x_min":0,"x_max":775,"o":"m 361 897 q 244 890 317 897 l 215 843 q 183 726 193 775 l 106 733 l 146 968 l 175 993 q 326 979 300 979 l 775 979 l 775 901 l 600 686 l 292 265 l 171 82 l 442 82 q 561 94 492 82 q 601 156 589 125 q 628 250 613 188 l 703 243 l 654 19 l 624 -6 q 471 0 499 0 l 0 0 l 1 79 q 181 304 132 238 l 490 722 l 606 897 l 361 897 m 694 1240 l 718 1186 l 463 1038 l 250 1186 l 288 1240 l 399 1183 l 479 1149 q 569 1183 540 1174 l 694 1240 z "},"ž":{"ha":608,"x_min":-10,"x_max":632,"o":"m 557 211 l 522 14 l 481 -18 l 92 0 l 21 -18 l -10 8 q 238 326 153 207 q 415 596 322 444 q 172 572 299 594 l 136 460 l 83 464 l 76 667 l 99 700 l 513 676 l 594 697 l 610 671 q 353 334 439 453 q 186 78 268 215 q 433 96 353 78 q 508 228 507 222 q 533 220 510 228 q 557 211 556 213 m 236 1063 l 322 978 q 392 918 324 976 l 482 978 l 594 1063 l 632 1018 l 374 783 l 185 1018 l 236 1063 z "},"ƒ":{"ha":510,"x_min":-83,"x_max":663,"o":"m 547 993 q 497 996 528 996 q 435 982 465 996 q 388 936 406 968 q 361 873 369 904 q 343 786 353 842 l 325 686 l 519 686 l 500 611 l 313 611 l 200 -29 q 106 -205 179 -140 q -83 -269 32 -269 l -71 -196 q 44 -147 13 -196 q 94 14 76 -97 l 200 611 l 93 611 l 99 669 q 140 681 113 674 q 217 710 189 694 l 238 829 q 332 1005 258 940 q 524 1069 406 1069 q 629 1061 571 1069 l 649 1058 l 663 1036 l 618 846 l 543 854 q 551 915 551 908 l 547 993 z "},"Ǻ":{"ha":894,"x_min":-32,"x_max":850,"o":"m 850 75 l 833 0 l 697 0 l 500 -7 l 506 61 l 607 89 l 593 239 l 578 322 l 283 322 l 219 176 l 193 89 l 285 75 l 268 0 l 150 0 l -32 -7 l -28 61 l 60 85 l 138 222 l 485 979 l 568 993 l 735 207 l 769 89 l 850 75 m 492 774 l 318 392 l 561 397 l 492 774 m 557 1214 q 644 1131 644 1214 q 614 1045 644 1078 q 533 1013 583 1013 q 436 1096 436 1013 q 467 1182 436 1150 q 557 1214 499 1214 m 550 1169 q 508 1149 522 1169 q 493 1103 493 1129 q 533 1057 493 1057 q 576 1077 563 1057 q 589 1125 589 1097 q 550 1169 589 1169 m 647 1385 l 683 1294 q 500 1246 524 1254 l 393 1200 l 368 1260 l 647 1385 z "},"ǻ":{"ha":735,"x_min":40,"x_max":668,"o":"m 456 247 q 325 56 397 128 q 182 -15 253 -15 q 42 186 42 -15 q 42 193 42 189 q 90 417 42 297 q 210 619 138 538 q 349 700 283 700 q 447 691 386 700 q 521 681 508 682 l 603 700 l 636 678 q 572 378 594 508 q 544 97 549 247 l 668 90 l 664 40 l 451 -21 l 415 0 q 456 247 436 94 m 229 76 q 326 154 269 76 q 428 350 382 232 q 488 571 475 468 q 329 619 379 619 q 258 553 296 619 q 194 388 219 486 q 168 220 168 290 q 185 113 168 150 q 229 76 201 76 m 565 1129 l 601 1039 q 418 990 442 999 l 311 944 l 286 1004 l 565 1129 m 446 958 q 533 875 533 958 q 503 790 533 822 q 422 757 472 757 q 325 840 325 757 q 356 926 325 894 q 446 958 388 958 m 439 914 q 397 894 411 914 q 382 847 382 874 q 422 801 382 801 q 465 822 451 801 q 478 869 478 842 q 439 914 478 914 z "},"Ǽ":{"ha":1222,"x_min":-8,"x_max":1246,"o":"m 1017 900 l 774 900 q 765 751 768 832 l 767 536 q 868 531 842 531 l 933 531 l 1015 543 l 1042 635 l 1101 628 l 1085 517 l 1065 365 l 1000 357 l 1001 450 q 896 458 922 458 l 857 458 q 767 453 839 458 l 768 242 l 778 79 l 942 79 q 1063 92 990 79 q 1097 143 1090 128 q 1132 236 1124 207 l 1204 229 l 1153 19 l 1124 -6 q 971 0 999 0 l 678 0 l 517 -7 l 522 63 l 635 85 q 642 181 642 129 l 642 344 l 353 344 l 231 142 q 219 114 226 135 q 207 85 211 93 l 315 75 l 293 -7 q 118 0 226 0 l -8 -7 l -4 63 l 79 85 q 181 213 158 175 l 596 894 l 493 911 l 511 986 q 665 979 639 979 l 1068 979 l 1224 993 l 1246 968 l 1228 779 l 1149 772 q 1147 839 1149 817 q 1125 893 1144 861 q 1017 900 1051 900 m 397 415 l 642 419 l 640 772 l 636 811 l 397 415 m 1007 1247 l 1047 1146 q 843 1093 869 1101 l 725 1042 l 697 1108 l 1007 1247 z "},"ǽ":{"ha":925,"x_min":40,"x_max":910,"o":"m 708 699 q 910 589 910 699 q 813 405 910 483 q 542 292 715 326 q 535 207 535 243 q 618 69 535 69 q 835 213 731 69 l 878 181 q 572 -14 760 -14 q 414 163 426 -14 q 185 -14 301 -14 q 40 193 40 -14 q 90 417 40 297 q 212 617 139 536 q 342 699 285 699 q 628 664 399 699 q 708 699 671 699 m 226 69 q 331 150 271 69 q 438 351 390 231 q 497 575 486 471 q 329 624 394 624 q 219 478 278 624 q 161 206 161 333 q 179 107 161 144 q 226 69 197 69 m 703 617 q 622 538 665 617 q 554 354 579 458 q 729 432 663 378 q 796 553 796 486 q 774 602 796 588 q 703 617 753 617 m 744 1049 l 807 965 q 644 867 664 882 l 546 783 l 501 840 l 744 1049 z "},"Ǿ":{"ha":993,"x_min":60,"x_max":978,"o":"m 968 585 q 828 149 968 319 q 443 -21 689 -21 q 247 24 333 -21 l 108 -189 l 60 -157 l 199 56 q 67 393 67 163 q 206 830 67 660 q 592 1000 344 1000 q 788 954 704 1000 l 925 1164 l 978 1132 l 839 921 q 968 585 968 813 m 379 849 q 336 811 379 849 q 252 653 293 772 q 211 390 211 535 q 265 157 211 246 l 731 868 q 581 926 669 926 q 379 849 465 926 m 654 129 q 697 167 654 129 q 782 325 740 206 q 824 585 824 444 q 771 817 824 726 l 304 108 q 465 53 363 53 q 654 129 568 53 m 743 1247 l 783 1146 q 579 1093 606 1101 l 461 1042 l 433 1108 l 743 1247 z "},"ǿ":{"ha":656,"x_min":-15,"x_max":667,"o":"m 408 700 q 511 676 467 700 l 614 831 l 667 803 l 557 639 q 610 460 610 575 q 501 126 610 268 q 246 -15 393 -15 q 136 13 183 -15 l 36 -137 l -15 -110 l 93 51 q 44 226 44 115 q 153 558 44 417 q 408 700 261 700 m 475 463 q 472 513 475 482 l 200 107 q 269 64 222 64 q 417 177 360 64 q 475 463 475 290 m 385 621 q 237 508 294 621 q 179 221 179 394 q 181 183 179 194 l 450 585 q 385 621 426 621 m 567 1049 l 629 965 q 467 867 486 882 l 368 783 l 324 840 l 567 1049 z "},"Ș":{"ha":754,"x_min":31,"x_max":732,"o":"m 171 258 q 160 164 160 189 q 163 100 160 139 q 334 63 246 63 q 478 115 422 63 q 533 256 533 167 q 392 428 533 349 q 274 496 333 461 q 174 585 215 531 q 132 711 132 640 q 225 922 132 844 q 461 1000 318 1000 q 732 956 565 1000 l 682 746 l 603 754 q 613 822 613 815 q 606 893 613 828 q 460 924 543 924 q 326 878 378 924 q 275 753 275 832 q 419 583 275 661 q 539 514 479 550 q 641 420 599 478 q 683 288 683 363 q 580 60 683 140 q 321 -21 476 -21 q 168 -2 240 -21 q 64 35 96 17 l 31 53 l 82 267 l 171 258 m 313 -233 q 278 -174 278 -217 q 303 -106 278 -131 q 358 -81 328 -81 q 415 -151 415 -81 q 392 -241 415 -189 q 347 -326 369 -293 l 324 -360 l 276 -343 q 313 -233 308 -269 z "},"ș":{"ha":504,"x_min":-3,"x_max":493,"o":"m 299 700 q 439 683 354 700 l 464 679 l 493 646 l 449 475 l 394 479 l 374 617 q 297 632 338 632 q 220 606 256 632 q 185 542 185 579 q 226 467 185 506 q 315 398 267 429 q 405 315 364 367 q 446 206 446 264 q 372 47 446 108 q 190 -15 299 -15 q 79 8 133 -15 q -1 60 25 31 l -3 104 l 67 242 l 118 226 l 104 96 q 208 56 151 56 q 298 83 264 56 q 332 157 332 111 q 292 240 332 203 q 206 305 253 276 q 120 388 160 333 q 81 516 81 442 q 144 645 81 590 q 299 700 208 700 m 161 -233 q 126 -174 126 -217 q 151 -106 126 -131 q 207 -81 176 -81 q 264 -151 264 -81 q 241 -241 264 -189 q 194 -326 218 -293 l 172 -360 l 125 -343 q 161 -233 157 -269 z "},"Ț":{"ha":803,"x_min":75,"x_max":872,"o":"m 643 901 l 556 901 q 524 747 535 819 l 449 232 q 436 85 444 204 l 556 75 l 533 -7 q 336 0 444 0 l 176 -7 l 181 63 l 289 85 q 317 190 310 154 l 404 789 q 408 901 408 826 l 324 901 q 214 894 290 901 q 180 849 183 860 q 153 761 176 838 l 75 768 l 114 968 l 143 993 q 294 979 268 979 l 694 979 l 850 993 l 872 968 l 851 768 l 772 761 q 771 844 772 826 q 750 894 769 863 q 643 901 678 901 m 350 -233 q 315 -174 315 -217 q 340 -106 315 -131 q 396 -81 365 -81 q 453 -151 453 -81 q 430 -241 453 -189 q 383 -326 407 -293 l 361 -360 l 314 -343 q 350 -233 346 -269 z "},"ț":{"ha":450,"x_min":65,"x_max":478,"o":"m 457 589 l 310 589 q 229 96 254 281 l 385 90 l 381 40 l 124 -21 l 89 0 q 192 589 156 269 l 65 589 l 71 650 q 200 692 179 679 q 276 800 233 710 l 290 829 l 347 813 q 333 729 340 778 q 324 667 326 681 l 478 667 l 457 589 m 196 -233 q 161 -174 161 -217 q 186 -106 161 -131 q 242 -81 211 -81 q 299 -151 299 -81 q 276 -241 299 -189 q 231 -326 253 -293 l 207 -360 l 160 -343 q 196 -233 192 -269 z "},"ȷ":{"ha":368,"x_min":-68,"x_max":303,"o":"m 274 699 l 303 672 q 235 319 271 557 q 182 -21 199 82 q -28 -326 174 -74 l -68 -290 q 22 -119 -25 -215 q 78 19 68 -22 q 164 582 139 274 l 49 588 l 47 639 l 274 699 z "},"ˆ":{"ha":485,"x_min":90,"x_max":538,"o":"m 349 1063 l 538 828 l 486 783 l 399 868 l 328 928 q 275 892 307 914 q 239 868 243 871 l 128 783 l 90 828 l 349 1063 z "},"ˇ":{"ha":485,"x_min":118,"x_max":565,"o":"m 169 1063 l 256 978 q 325 918 257 976 l 415 978 l 528 1063 l 565 1018 l 307 783 l 118 1018 l 169 1063 z "},"˘":{"ha":485,"x_min":149,"x_max":526,"o":"m 526 1010 q 458 865 513 915 q 312 815 403 815 q 181 865 221 815 q 149 965 149 903 q 153 1010 149 986 l 228 1010 q 226 989 226 999 q 249 922 226 950 q 323 893 272 893 q 409 925 374 893 q 451 1010 444 957 l 526 1010 z "},"˙":{"ha":485,"x_min":244,"x_max":407,"o":"m 244 894 q 270 970 244 940 q 333 1000 296 1000 q 407 926 407 1000 q 381 851 407 881 q 317 821 354 821 q 244 894 244 821 z "},"˚":{"ha":485,"x_min":204,"x_max":449,"o":"m 204 904 q 241 1005 204 967 q 338 1043 278 1043 q 449 944 449 1043 q 413 844 449 882 q 318 806 378 806 q 204 904 204 806 m 338 990 q 288 967 304 990 q 271 911 271 943 q 318 858 271 858 q 369 882 353 858 q 385 938 385 906 q 338 990 385 990 z "},"˛":{"ha":485,"x_min":149,"x_max":390,"o":"m 236 -160 q 300 -215 236 -215 q 379 -197 335 -215 l 390 -243 q 270 -274 325 -274 q 182 -247 215 -274 q 149 -169 149 -219 q 176 -83 149 -118 q 288 18 203 -49 l 347 18 q 268 -74 300 -24 q 236 -160 236 -124 z "},"˜":{"ha":485,"x_min":96,"x_max":554,"o":"m 486 882 q 466 860 486 882 q 420 839 446 839 q 322 867 394 839 q 228 896 250 896 q 186 877 207 896 q 153 839 165 858 l 140 821 l 96 850 q 165 947 125 903 q 230 990 204 990 q 328 962 256 990 q 423 933 401 933 q 465 951 444 933 q 497 986 486 969 l 510 1004 l 554 975 q 486 882 526 925 z "},"˝":{"ha":485,"x_min":58,"x_max":653,"o":"m 588 1063 l 653 976 q 472 868 494 883 l 372 783 l 328 840 l 588 1063 m 317 1063 l 382 976 q 201 868 224 883 l 103 783 l 58 840 l 317 1063 z "},"̃":{"ha":485,"x_min":96,"x_max":554,"o":"m 486 882 q 466 860 486 882 q 420 839 446 839 q 322 867 394 839 q 228 896 250 896 q 186 877 207 896 q 153 839 165 858 l 140 821 l 96 850 q 165 947 125 903 q 230 990 204 990 q 328 962 256 990 q 423 933 401 933 q 465 951 444 933 q 497 986 486 969 l 510 1004 l 554 975 q 486 882 526 925 z "},"̣":{"ha":485,"x_min":83,"x_max":246,"o":"m 83 -204 q 109 -128 83 -158 q 172 -99 135 -99 q 246 -172 246 -99 q 220 -248 246 -218 q 153 -278 194 -278 q 83 -204 83 -278 z "},"Δ":{"ha":944,"x_min":32,"x_max":907,"o":"m 853 -21 l 64 -21 l 32 69 q 146 231 128 192 l 550 976 l 628 994 q 860 189 851 219 l 907 74 l 853 -21 m 160 64 q 344 61 271 61 q 743 69 418 61 q 725 186 735 147 l 547 813 l 200 164 l 160 64 z "},"Ω":{"ha":1103,"x_min":15,"x_max":1057,"o":"m 358 92 q 135 433 135 185 q 274 841 135 682 q 649 1000 414 1000 q 932 903 832 1000 q 1032 620 1032 807 q 940 291 1032 433 q 683 89 849 149 l 682 74 l 789 79 q 911 92 842 79 q 949 143 943 129 q 982 236 968 192 l 1057 229 l 1006 10 l 990 -6 q 819 0 847 0 l 724 0 l 593 -6 l 604 129 q 811 313 739 176 q 883 626 883 450 q 822 844 883 763 q 639 926 761 926 q 481 882 551 926 q 369 764 411 838 q 282 421 282 613 q 449 129 282 210 l 432 -6 q 301 0 357 0 l 197 0 l 28 -6 l 15 10 l 25 229 l 101 236 q 109 151 106 179 q 131 92 113 124 q 250 79 200 79 l 357 74 l 358 92 z "},"π":{"ha":844,"x_min":43,"x_max":874,"o":"m 214 714 l 725 690 q 814 729 754 690 l 832 742 l 874 689 q 785 607 835 646 q 710 568 735 568 q 669 344 696 522 q 643 134 643 165 q 658 83 643 103 q 714 38 672 64 l 679 -21 q 613 5 651 -14 q 566 31 574 24 q 547 50 558 39 q 529 106 529 69 l 606 571 l 331 586 l 281 232 q 254 6 281 203 l 239 -6 q 160 0 194 0 l 129 0 l 118 11 q 171 190 165 163 q 243 590 225 479 q 206 592 225 592 q 111 542 168 592 l 92 524 l 43 569 q 134 665 79 617 q 214 714 189 714 z "},"Ẁ":{"ha":1363,"x_min":83,"x_max":1449,"o":"m 1444 918 l 1350 894 q 1268 757 1293 811 l 939 0 l 854 0 l 731 703 l 428 0 l 342 0 l 206 772 q 176 874 197 822 l 169 890 l 83 904 l 101 979 l 247 979 l 450 986 l 444 918 l 335 890 q 349 740 339 811 l 424 206 l 744 951 l 819 951 l 936 206 l 1188 803 l 1214 890 l 1115 904 l 1132 979 l 1254 979 l 1449 986 l 1444 918 m 592 1146 l 633 1247 l 942 1108 l 914 1042 l 796 1093 l 592 1146 z "},"ẁ":{"ha":1046,"x_min":42,"x_max":1036,"o":"m 533 488 l 513 674 l 610 699 l 643 678 l 649 517 q 626 341 649 499 q 604 138 604 183 q 639 92 604 92 q 721 126 674 92 q 810 215 768 161 q 883 343 853 269 q 913 488 913 417 q 904 581 913 513 l 793 586 l 783 640 l 1001 700 l 1036 678 q 990 397 1036 531 q 872 176 943 264 q 718 36 800 88 q 563 -15 636 -15 q 505 13 525 -15 q 485 72 485 40 q 500 186 485 104 q 349 38 431 90 q 192 -15 267 -15 q 106 79 106 -15 q 138 268 106 111 q 169 492 169 425 q 165 581 169 558 l 50 586 l 42 640 l 251 700 l 285 678 l 288 678 l 288 517 q 262 342 288 499 q 236 138 236 185 q 269 92 236 92 q 439 220 344 92 q 533 488 533 349 m 747 840 l 703 783 l 604 867 l 442 965 l 506 1049 l 747 840 z "},"Ẃ":{"ha":1363,"x_min":83,"x_max":1449,"o":"m 1444 918 l 1350 894 q 1268 757 1293 811 l 939 0 l 854 0 l 731 703 l 428 0 l 342 0 l 206 772 q 176 874 197 822 l 169 890 l 83 904 l 101 979 l 247 979 l 450 986 l 444 918 l 335 890 q 349 740 339 811 l 424 206 l 744 951 l 819 951 l 936 206 l 1188 803 l 1214 890 l 1115 904 l 1132 979 l 1254 979 l 1449 986 l 1444 918 m 940 1247 l 981 1146 q 776 1093 803 1101 l 658 1042 l 631 1108 l 940 1247 z "},"ẃ":{"ha":1046,"x_min":42,"x_max":1036,"o":"m 533 488 l 513 674 l 610 699 l 643 678 l 649 517 q 626 341 649 499 q 604 138 604 183 q 639 92 604 92 q 721 126 674 92 q 810 215 768 161 q 883 343 853 269 q 913 488 913 417 q 904 581 913 513 l 793 586 l 783 640 l 1001 700 l 1036 678 q 990 397 1036 531 q 872 176 943 264 q 718 36 800 88 q 563 -15 636 -15 q 505 13 525 -15 q 485 72 485 40 q 500 186 485 104 q 349 38 431 90 q 192 -15 267 -15 q 106 79 106 -15 q 138 268 106 111 q 169 492 169 425 q 165 581 169 558 l 50 586 l 42 640 l 251 700 l 285 678 l 288 678 l 288 517 q 262 342 288 499 q 236 138 236 185 q 269 92 236 92 q 439 220 344 92 q 533 488 533 349 m 736 1049 l 799 965 q 636 867 656 882 l 538 783 l 493 840 l 736 1049 z "},"Ẅ":{"ha":1363,"x_min":83,"x_max":1449,"o":"m 1444 918 l 1350 894 q 1268 757 1293 811 l 939 0 l 854 0 l 731 703 l 428 0 l 342 0 l 206 772 q 176 874 197 822 l 169 890 l 83 904 l 101 979 l 247 979 l 450 986 l 444 918 l 335 890 q 349 740 339 811 l 424 206 l 744 951 l 819 951 l 936 206 l 1188 803 l 1214 890 l 1115 904 l 1132 979 l 1254 979 l 1449 986 l 1444 918 m 968 1228 q 1031 1161 1031 1228 q 1008 1090 1031 1117 q 944 1063 986 1063 q 882 1128 882 1063 q 904 1200 882 1172 q 968 1228 926 1228 m 650 1228 q 714 1161 714 1228 q 691 1090 714 1117 q 626 1063 668 1063 q 564 1128 564 1063 q 586 1200 564 1172 q 650 1228 608 1228 z "},"ẅ":{"ha":1046,"x_min":42,"x_max":1036,"o":"m 533 488 l 513 674 l 610 699 l 643 678 l 649 517 q 626 341 649 499 q 604 138 604 183 q 639 92 604 92 q 721 126 674 92 q 810 215 768 161 q 883 343 853 269 q 913 488 913 417 q 904 581 913 513 l 793 586 l 783 640 l 1001 700 l 1036 678 q 990 397 1036 531 q 872 176 943 264 q 718 36 800 88 q 563 -15 636 -15 q 505 13 525 -15 q 485 72 485 40 q 500 186 485 104 q 349 38 431 90 q 192 -15 267 -15 q 106 79 106 -15 q 138 268 106 111 q 169 492 169 425 q 165 581 169 558 l 50 586 l 42 640 l 251 700 l 285 678 l 288 678 l 288 517 q 262 342 288 499 q 236 138 236 185 q 269 92 236 92 q 439 220 344 92 q 533 488 533 349 m 792 990 q 853 924 853 990 q 831 852 853 879 q 768 825 810 825 q 706 890 706 825 q 728 963 706 935 q 792 990 750 990 m 474 990 q 536 924 536 990 q 513 852 536 879 q 450 825 490 825 q 388 890 388 825 q 410 963 388 935 q 474 990 432 990 z "},"Ẽ":{"ha":794,"x_min":13,"x_max":796,"o":"m 314 979 l 618 979 l 774 993 l 796 968 l 778 779 l 699 772 q 697 840 699 817 q 675 894 694 863 q 567 901 603 901 l 392 901 q 360 747 368 804 l 331 550 q 388 547 375 547 l 485 547 l 567 560 l 592 651 l 654 644 q 636 528 640 556 l 618 376 l 551 368 l 553 461 q 447 469 474 469 l 376 469 q 318 465 353 469 l 285 232 q 272 79 272 149 l 464 79 q 583 92 514 79 q 618 143 614 131 q 653 236 644 207 l 726 229 l 675 19 l 646 -6 q 493 0 521 0 l 171 0 l 13 -7 l 15 63 l 125 85 q 153 190 146 154 l 240 789 q 243 894 243 813 l 142 911 l 160 986 q 314 979 286 979 m 681 1103 q 660 1081 681 1103 q 615 1060 640 1060 q 510 1088 589 1060 q 408 1117 431 1117 q 335 1071 372 1117 l 322 1056 l 278 1085 q 325 1151 294 1118 q 407 1211 379 1211 q 515 1183 435 1211 q 617 1154 594 1154 q 692 1207 656 1154 l 704 1225 l 749 1196 q 681 1103 721 1146 z "},"ẽ":{"ha":558,"x_min":40,"x_max":636,"o":"m 339 699 q 543 588 543 699 q 445 403 543 482 q 172 290 347 325 q 167 207 167 251 q 250 72 167 72 q 464 214 360 72 l 510 179 q 372 35 451 86 q 207 -15 292 -15 q 40 193 38 -15 q 89 417 40 297 q 208 617 138 536 q 339 699 279 699 m 568 882 q 548 860 568 882 q 503 839 528 839 q 406 867 478 839 q 311 896 333 896 q 268 877 289 896 q 235 839 247 858 l 222 821 l 178 850 q 247 947 207 903 q 312 990 286 990 q 410 962 338 990 q 506 933 483 933 q 579 986 540 933 l 592 1004 l 636 975 q 568 882 608 925 m 421 551 q 400 599 421 585 q 337 614 379 614 q 252 536 294 614 q 185 354 210 458 q 356 431 290 378 q 421 551 421 485 z "},"Ỳ":{"ha":896,"x_min":89,"x_max":961,"o":"m 957 918 l 863 894 q 757 757 803 829 l 513 381 l 492 232 q 479 85 479 144 l 597 75 l 576 -7 q 378 0 488 0 l 219 -7 l 222 63 l 332 85 q 339 114 333 90 q 358 190 356 172 l 383 358 l 233 772 q 186 874 218 819 l 176 890 l 89 904 l 107 979 l 253 979 l 456 986 l 451 918 l 342 890 q 376 740 347 822 l 475 478 l 676 803 l 725 890 l 628 904 l 644 979 l 767 979 l 961 986 l 957 918 m 357 1146 l 399 1247 l 707 1108 l 679 1042 l 561 1093 l 357 1146 z "},"ỳ":{"ha":733,"x_min":-4,"x_max":681,"o":"m 419 -256 q 390 -274 419 -256 q 301 -310 361 -293 q 185 -326 240 -326 q 74 -318 129 -326 q -4 -299 18 -310 l 40 -190 q 219 -226 139 -226 q 351 -209 300 -226 q 421 -176 403 -192 q 450 -78 435 -161 q 496 254 465 6 q 353 58 432 132 q 192 -15 275 -15 q 117 21 143 -15 q 92 111 92 57 q 128 325 92 165 q 172 581 164 485 l 57 586 l 57 640 l 288 700 l 318 672 q 221 165 221 297 q 268 94 221 94 q 412 226 329 94 q 547 581 494 357 l 436 586 l 428 640 l 647 700 l 681 678 q 594 231 624 456 q 571 19 588 168 q 519 -147 560 -76 q 419 -256 478 -218 m 572 840 l 528 783 l 429 867 l 267 965 l 331 1049 l 572 840 z "},"Ỹ":{"ha":896,"x_min":89,"x_max":961,"o":"m 957 918 l 863 894 q 757 757 803 829 l 513 381 l 492 232 q 479 85 479 144 l 597 75 l 576 -7 q 378 0 488 0 l 219 -7 l 222 63 l 332 85 q 339 114 333 90 q 358 190 356 172 l 383 358 l 233 772 q 186 874 218 819 l 176 890 l 89 904 l 107 979 l 253 979 l 456 986 l 451 918 l 342 890 q 376 740 347 822 l 475 478 l 676 803 l 725 890 l 628 904 l 644 979 l 767 979 l 961 986 l 957 918 m 731 1103 q 710 1081 731 1103 q 665 1060 690 1060 q 560 1088 639 1060 q 458 1117 481 1117 q 385 1071 422 1117 l 372 1056 l 328 1085 q 375 1151 344 1118 q 458 1211 429 1211 q 565 1183 486 1211 q 667 1154 644 1154 q 742 1207 706 1154 l 754 1225 l 799 1196 q 731 1103 771 1146 z "},"ỹ":{"ha":733,"x_min":-4,"x_max":681,"o":"m 419 -256 q 390 -274 419 -256 q 301 -310 361 -293 q 185 -326 240 -326 q 74 -318 129 -326 q -4 -299 18 -310 l 40 -190 q 219 -226 139 -226 q 351 -209 300 -226 q 421 -176 403 -192 q 450 -78 435 -161 q 496 254 465 6 q 353 58 432 132 q 192 -15 275 -15 q 117 21 143 -15 q 92 111 92 57 q 128 325 92 165 q 172 581 164 485 l 57 586 l 57 640 l 288 700 l 318 672 q 221 165 221 297 q 268 94 221 94 q 412 226 329 94 q 547 581 494 357 l 436 586 l 428 640 l 647 700 l 681 678 q 594 231 624 456 q 571 19 588 168 q 519 -147 560 -76 q 419 -256 478 -218 m 607 882 q 587 860 607 882 q 542 839 567 839 q 444 867 517 839 q 350 896 372 896 q 307 877 328 896 q 274 839 286 858 l 261 821 l 217 850 q 285 947 246 903 q 351 990 325 990 q 449 962 376 990 q 544 933 522 933 q 618 986 579 933 l 631 1004 l 675 975 q 607 882 647 925 z "},"–":{"ha":700,"x_min":17,"x_max":728,"o":"m 17 303 l 28 401 l 728 401 l 706 303 l 17 303 z "},"—":{"ha":1397,"x_min":17,"x_max":1425,"o":"m 17 303 l 28 401 l 1425 401 l 1403 303 l 17 303 z "},"‘":{"ha":279,"x_min":118,"x_max":329,"o":"m 197 721 q 118 821 118 721 q 174 980 118 907 q 321 1069 231 1053 l 329 1039 q 254 985 283 1019 q 221 907 225 950 q 290 835 290 907 q 264 756 290 792 q 197 721 238 721 z "},"’":{"ha":279,"x_min":89,"x_max":300,"o":"m 221 1069 q 300 969 300 1069 q 244 810 300 883 q 97 721 188 738 l 89 751 q 164 806 135 771 q 197 883 193 840 q 128 956 128 883 q 154 1034 128 999 q 221 1069 181 1069 z "},"‚":{"ha":278,"x_min":-22,"x_max":188,"o":"m 110 179 q 188 75 190 179 q 132 -89 188 -14 q -15 -182 76 -164 l -22 -151 q 86 -14 78 -107 q 17 61 17 -14 q 43 142 17 106 q 110 179 69 179 z "},"“":{"ha":501,"x_min":119,"x_max":553,"o":"m 421 721 q 342 821 342 721 q 398 980 342 907 q 544 1069 454 1053 l 553 1039 q 478 985 507 1019 q 444 907 449 950 q 514 835 514 907 q 488 756 514 792 q 421 721 461 721 m 199 721 q 119 821 119 721 q 176 980 119 907 q 322 1069 232 1053 l 331 1039 q 256 985 285 1019 q 222 907 226 950 q 292 835 292 907 q 265 756 292 792 q 199 721 239 721 z "},"”":{"ha":501,"x_min":106,"x_max":539,"o":"m 236 1063 q 317 963 314 1063 q 259 803 315 875 q 113 714 203 731 l 106 744 q 180 799 151 764 q 214 876 208 833 q 162 896 181 876 q 143 953 143 915 q 169 1027 143 992 q 236 1063 196 1063 m 458 1063 q 539 963 536 1063 q 481 803 538 875 q 335 714 425 731 l 328 744 q 402 799 374 764 q 436 876 431 833 q 384 896 403 876 q 365 953 365 915 q 392 1027 365 992 q 458 1063 418 1063 z "},"„":{"ha":500,"x_min":-8,"x_max":424,"o":"m 124 179 q 201 75 204 179 q 146 -89 201 -14 q -1 -182 90 -164 l -8 -151 q 100 -14 92 -107 q 31 61 31 -14 q 57 142 31 106 q 124 179 83 179 m 346 179 q 424 75 426 179 q 368 -89 424 -14 q 221 -182 313 -164 l 214 -151 q 322 -14 314 -107 q 253 61 253 -14 q 279 142 253 106 q 346 179 306 179 z "},"†":{"ha":700,"x_min":60,"x_max":693,"o":"m 421 714 l 351 714 q 354 854 354 736 l 353 1042 l 363 1050 l 488 1064 l 514 1039 q 421 714 431 783 m 333 588 l 403 588 l 346 -117 l 336 -125 l 211 -139 l 185 -114 q 333 588 322 518 m 319 686 l 310 615 l 69 589 l 60 597 l 60 681 l 89 707 q 319 686 233 692 m 435 615 l 444 686 l 685 713 l 693 704 l 693 621 l 664 594 q 435 615 521 610 z "},"‡":{"ha":700,"x_min":60,"x_max":693,"o":"m 421 714 l 351 714 q 354 854 354 736 l 353 1042 l 363 1050 l 488 1064 l 514 1039 q 421 714 431 783 m 292 310 l 361 310 l 346 -117 l 336 -125 l 211 -139 l 185 -114 q 292 310 282 240 m 319 686 l 310 615 l 69 589 l 60 597 l 60 681 l 89 707 q 319 686 233 692 m 435 615 l 444 686 l 685 713 l 693 704 l 693 621 l 664 594 q 435 615 521 610 m 279 408 l 268 338 l 85 311 l 75 319 l 75 403 l 104 429 q 279 408 192 414 m 393 338 l 404 408 l 589 435 l 597 426 l 597 343 l 568 317 q 393 338 481 332 m 381 435 l 311 435 l 333 588 l 403 588 q 381 435 399 583 z "},"•":{"ha":368,"x_min":68,"x_max":271,"o":"m 183 472 q 271 376 271 472 q 238 276 271 321 q 160 232 206 232 q 91 257 114 232 q 68 331 68 282 q 101 426 68 381 q 183 472 133 472 z "},"․":{"ha":274,"x_min":22,"x_max":185,"o":"m 114 179 q 185 103 185 179 q 158 22 185 58 q 92 -14 132 -14 q 22 61 22 -14 q 48 142 22 106 q 114 179 74 179 z "},"‥":{"ha":499,"x_min":42,"x_max":449,"o":"m 133 179 q 204 103 204 179 q 178 22 204 58 q 111 -14 151 -14 q 42 61 42 -14 q 67 142 42 106 q 133 179 93 179 m 378 179 q 449 103 449 179 q 422 22 449 58 q 356 -14 396 -14 q 286 61 286 -14 q 312 142 286 106 q 378 179 338 179 z "},"…":{"ha":750,"x_min":42,"x_max":700,"o":"m 133 179 q 204 103 204 179 q 178 22 204 58 q 111 -14 151 -14 q 42 61 42 -14 q 67 142 42 106 q 133 179 93 179 m 378 179 q 449 103 449 179 q 422 22 449 58 q 356 -14 396 -14 q 286 61 286 -14 q 312 142 286 106 q 378 179 338 179 m 629 179 q 700 103 700 179 q 674 22 700 58 q 607 -14 647 -14 q 538 61 538 -14 q 563 142 538 106 q 629 179 589 179 z "},"‰":{"ha":1563,"x_min":110,"x_max":1472,"o":"m 292 -68 l 229 -24 l 832 999 l 894 958 l 292 -68 m 1000 272 q 932 69 1000 154 q 754 -15 864 -15 q 623 37 669 -15 q 576 176 576 89 q 644 381 576 294 q 822 467 713 467 q 953 414 907 467 q 1000 272 1000 361 m 811 393 q 714 325 749 393 q 679 176 679 257 q 765 58 679 58 q 864 126 831 58 q 897 275 897 193 q 811 393 897 393 m 1472 272 q 1404 69 1472 154 q 1226 -15 1336 -15 q 1095 37 1142 -15 q 1049 176 1049 89 q 1117 381 1049 294 q 1294 467 1185 467 q 1426 414 1379 467 q 1472 272 1472 361 m 1283 393 q 1186 325 1221 393 q 1151 176 1151 257 q 1238 58 1151 58 q 1336 126 1303 58 q 1369 275 1369 193 q 1283 393 1369 393 m 533 731 q 465 528 533 613 q 288 443 397 443 q 156 495 203 443 q 110 635 110 547 q 178 839 110 753 q 356 925 246 925 q 487 872 440 925 q 533 731 533 819 m 344 851 q 247 783 282 851 q 213 635 213 715 q 299 517 213 517 q 397 584 364 517 q 431 733 431 651 q 344 851 431 851 z "},"‹":{"ha":357,"x_min":53,"x_max":354,"o":"m 53 336 l 307 644 l 354 610 l 167 336 l 276 63 l 219 28 l 53 336 z "},"›":{"ha":357,"x_min":50,"x_max":354,"o":"m 354 335 l 96 26 l 50 61 l 235 333 l 126 608 l 183 643 l 354 335 z "},"⁄":{"ha":81,"x_min":-368,"x_max":426,"o":"m 365 1001 l 426 957 l -307 -68 l -368 -24 l 365 1001 z "},"⁰":{"ha":492,"x_min":108,"x_max":542,"o":"m 283 617 q 239 617 283 617 q 151 678 194 617 q 108 834 108 740 q 133 1003 108 928 q 219 1133 158 1079 q 369 1186 281 1186 q 499 1124 457 1186 q 542 967 542 1061 q 517 798 542 874 q 431 669 492 722 q 283 617 371 617 m 428 983 q 358 1122 428 1122 q 263 1016 304 1122 q 222 819 222 910 q 292 679 222 679 q 387 786 346 679 q 428 983 428 893 z "},"⁴":{"ha":472,"x_min":85,"x_max":507,"o":"m 442 1251 l 507 1192 q 383 1075 399 1094 l 192 850 l 328 850 l 342 949 l 444 982 l 426 857 l 504 861 l 493 786 l 415 786 l 413 763 q 407 685 407 728 l 467 679 l 454 621 q 313 625 396 625 l 208 621 l 211 672 l 296 685 q 313 753 310 728 l 318 786 l 128 786 l 85 850 l 442 1251 z "},"⁵":{"ha":408,"x_min":75,"x_max":469,"o":"m 313 1085 l 243 1085 q 213 938 228 1010 q 272 943 239 943 q 394 907 351 943 q 438 806 438 871 q 344 627 438 696 q 83 536 251 558 l 75 589 q 265 660 206 614 q 325 785 325 707 q 231 868 325 868 q 153 857 199 868 l 122 890 l 181 1163 l 199 1178 l 265 1178 l 469 1186 l 463 1099 q 313 1085 338 1085 z "},"⁶":{"ha":463,"x_min":101,"x_max":540,"o":"m 349 971 q 460 932 419 971 q 500 815 500 893 q 436 676 500 736 q 285 615 372 615 q 149 665 197 615 q 101 803 101 715 q 149 985 101 890 q 299 1157 197 1079 q 535 1258 401 1235 l 540 1208 q 388 1133 454 1182 q 285 1025 321 1083 q 214 797 214 911 q 232 715 214 749 q 292 682 250 682 q 360 726 335 682 q 386 814 386 769 q 369 885 386 858 q 325 911 353 911 q 283 908 297 911 l 286 961 q 349 971 313 971 z "},"⁷":{"ha":436,"x_min":114,"x_max":543,"o":"m 288 1178 l 538 1178 l 543 1129 l 201 536 l 114 567 l 357 961 q 415 1086 386 1011 l 282 1086 q 225 1082 279 1086 l 208 1050 l 197 1008 l 139 1013 l 169 1168 l 189 1185 q 288 1178 268 1178 z "},"⁸":{"ha":457,"x_min":90,"x_max":510,"o":"m 231 917 q 154 1044 154 969 q 213 1160 154 1118 q 345 1203 272 1203 q 464 1170 418 1203 q 510 1081 510 1138 q 389 921 510 992 q 483 781 483 861 q 419 659 483 701 q 273 617 356 617 q 140 649 190 617 q 90 746 90 682 q 231 917 90 843 m 196 750 q 217 693 196 714 q 278 672 238 672 q 349 700 319 672 q 378 762 378 728 q 363 817 378 796 q 332 850 347 839 q 285 882 317 861 q 196 750 196 822 m 408 1078 q 390 1128 408 1108 q 342 1147 372 1147 q 283 1121 311 1147 q 256 1058 256 1094 q 276 998 256 1021 q 338 951 297 975 q 408 1078 408 1011 z "},"⁹":{"ha":464,"x_min":83,"x_max":521,"o":"m 274 831 q 162 869 203 831 q 121 985 121 907 q 185 1125 121 1064 q 337 1186 250 1186 q 472 1136 424 1186 q 521 998 521 1086 q 475 815 521 910 q 328 640 429 719 q 90 535 226 560 l 83 588 q 248 668 179 615 q 349 784 317 721 q 394 900 381 847 q 407 1003 407 953 q 389 1087 407 1053 q 328 1121 371 1121 q 260 1077 285 1121 q 235 988 235 1033 q 253 916 235 942 q 298 890 271 890 q 339 893 325 890 l 336 840 q 274 831 310 831 z "},"ⁿ":{"ha":513,"x_min":111,"x_max":544,"o":"m 253 878 q 340 1003 289 951 q 456 1054 392 1054 q 519 985 519 1054 q 499 844 519 946 q 475 690 479 742 l 544 686 l 542 647 l 381 611 l 354 625 q 417 925 417 851 q 393 967 417 967 q 301 879 354 967 q 226 686 249 792 l 218 625 l 138 611 l 113 625 q 176 976 165 825 l 111 979 l 111 1018 l 265 1054 l 292 1035 q 253 878 269 967 z "},"₀":{"ha":521,"x_min":-7,"x_max":438,"o":"m 171 -147 q 126 -147 171 -147 q 37 -83 81 -147 q -7 77 -7 -19 q 19 252 -7 174 q 108 385 46 331 q 260 440 169 440 q 394 376 350 440 q 438 215 438 313 q 412 40 438 118 q 324 -92 386 -37 q 171 -147 261 -147 m 324 231 q 250 376 324 376 q 149 266 192 376 q 107 63 107 156 q 181 -83 107 -83 q 281 27 238 -83 q 324 231 324 138 z "},"₁":{"ha":379,"x_min":-8,"x_max":267,"o":"m 258 -83 l 244 -143 q 103 -139 188 -139 l -8 -143 l -4 -90 l 74 -78 q 85 -34 81 -54 q 92 -7 90 -14 l 138 301 l 39 258 l 18 304 q 151 399 132 385 l 200 449 l 267 439 q 229 233 236 278 l 197 19 q 190 -78 190 -31 l 258 -83 z "},"₂":{"ha":483,"x_min":-40,"x_max":388,"o":"m 49 410 q 217 440 133 440 q 344 408 301 440 q 388 307 388 375 q 326 165 388 239 q 78 -58 264 90 l 206 -58 l 282 -50 q 306 -8 304 -15 l 315 28 l 374 24 l 344 -124 l 319 -142 q 222 -139 240 -139 l -40 -139 l -40 -62 q 215 172 157 106 q 272 297 272 238 q 252 352 272 332 q 194 372 232 372 q 114 350 157 372 q 100 311 101 318 l 96 272 l 36 269 l 49 410 z "},"₃":{"ha":442,"x_min":-67,"x_max":343,"o":"m 178 440 q 343 315 343 440 q 221 153 343 206 q 297 106 268 140 q 325 26 325 71 q 215 -142 325 -69 q -57 -231 106 -215 l -67 -176 q 133 -104 57 -158 q 208 22 208 -50 q 185 84 208 63 q 121 106 163 106 l 64 103 l 60 156 q 232 307 232 181 q 165 378 232 378 q 97 363 131 378 q 86 328 86 331 l 79 281 l 18 278 l 28 415 q 178 440 107 440 z "},"₄":{"ha":499,"x_min":-35,"x_max":401,"o":"m 335 508 l 401 449 q 272 326 289 347 l 75 92 l 218 93 l 233 197 l 336 231 l 317 100 l 397 104 l 386 28 l 306 28 l 303 4 q 297 -79 297 -33 l 360 -85 l 346 -143 q 204 -139 288 -139 l 94 -143 l 97 -90 l 185 -79 q 189 -61 185 -76 q 203 -8 203 -22 l 208 28 l 10 28 l -35 93 l 335 508 z "},"₅":{"ha":435,"x_min":-43,"x_max":364,"o":"m 199 339 l 129 339 q 97 183 113 257 q 160 189 125 189 q 285 151 240 189 q 331 46 331 114 q 234 -137 331 -67 q -35 -231 138 -208 l -43 -178 q 153 -105 90 -153 q 217 25 217 -57 q 118 113 217 113 q 38 101 79 113 l 6 135 l 65 415 l 85 432 l 153 432 l 364 440 l 357 354 q 199 339 225 339 z "},"₆":{"ha":490,"x_min":-15,"x_max":436,"o":"m 239 218 q 353 178 311 218 q 394 68 394 138 q 328 -87 394 -25 q 173 -149 263 -149 q 34 -97 83 -149 q -15 38 -15 -46 q 106 335 -15 192 q 432 515 228 478 l 436 465 q 181 289 264 413 q 97 39 97 165 q 117 -47 97 -12 q 181 -82 136 -82 q 253 -37 225 -82 q 281 56 281 8 q 263 130 281 103 q 216 157 244 157 q 171 154 188 157 l 174 207 q 239 218 204 218 z "},"₇":{"ha":464,"x_min":0,"x_max":440,"o":"m 178 432 l 433 432 l 440 383 l 88 -231 l 0 -200 l 250 211 q 310 340 276 249 l 172 340 q 113 336 167 340 q 103 319 110 331 q 96 303 97 308 l 83 261 l 25 264 l 56 422 l 75 439 q 178 432 158 432 z "},"₈":{"ha":485,"x_min":-26,"x_max":404,"o":"m 118 163 q 39 294 39 218 q 100 415 39 371 q 236 458 161 458 q 358 424 311 458 q 404 332 404 390 q 279 167 404 242 q 376 23 376 106 q 311 -103 376 -60 q 161 -147 246 -147 q 25 -114 76 -147 q -26 -15 -26 -81 q 118 163 -26 86 m 79 -11 q 101 -69 79 -47 q 165 -92 122 -92 q 240 -62 208 -92 q 271 3 271 -32 q 255 62 271 39 q 222 97 239 85 q 172 129 206 108 q 79 -11 79 67 m 301 328 q 283 381 301 361 q 231 401 264 401 q 170 374 199 401 q 142 313 142 346 q 155 259 142 281 q 183 226 168 238 q 226 196 197 214 q 301 328 301 258 z "},"₉":{"ha":490,"x_min":-35,"x_max":415,"o":"m 163 74 q 47 114 89 74 q 4 235 4 154 q 70 378 4 315 q 226 440 136 440 q 365 389 315 440 q 415 253 415 338 q 297 -47 415 97 q -28 -232 179 -192 l -35 -179 q 108 -114 46 -156 q 206 -27 171 -72 q 264 72 242 18 q 301 233 301 164 q 224 375 301 375 q 146 329 172 375 q 119 235 119 283 q 138 161 119 188 q 185 135 157 135 q 229 138 213 135 l 226 85 q 163 74 201 74 z "},"€":{"ha":928,"x_min":26,"x_max":906,"o":"m 643 919 q 719 915 688 919 q 764 908 750 910 q 802 900 778 906 q 836 892 826 894 q 906 872 868 882 l 860 667 l 779 675 l 788 738 q 789 756 789 742 q 785 807 789 769 q 632 839 701 839 q 435 756 515 839 q 321 538 354 672 l 601 550 l 597 503 l 311 489 q 301 389 304 446 l 586 403 l 582 356 l 301 342 q 361 137 306 214 q 519 60 417 60 q 692 90 600 60 q 721 168 715 139 l 733 233 l 817 236 l 793 26 q 506 -21 607 -21 q 251 75 340 -21 q 156 335 163 171 l 26 329 l 31 378 l 156 383 q 164 482 156 418 l 42 476 l 46 525 l 174 531 q 336 814 215 708 q 643 919 457 919 z "},"™":{"ha":703,"x_min":85,"x_max":774,"o":"m 668 981 l 715 981 l 774 982 l 769 947 l 740 942 l 736 917 l 721 717 q 725 692 721 704 l 750 688 l 744 653 q 664 656 713 656 l 618 653 l 621 685 l 651 692 l 660 731 l 675 890 l 561 656 l 517 656 l 475 890 l 442 731 l 438 692 l 467 688 l 460 653 q 389 656 440 656 l 344 653 l 347 685 l 379 692 q 385 705 381 696 q 389 717 389 714 l 428 917 q 429 942 429 922 l 401 947 l 408 982 q 456 978 433 981 l 521 978 l 529 971 q 539 900 536 919 l 563 760 l 631 908 l 657 971 l 668 981 m 326 913 q 326 919 326 913 q 324 930 326 925 q 322 938 322 935 q 290 940 311 940 l 268 940 l 258 906 l 235 746 q 231 706 231 717 q 232 693 231 696 l 260 690 l 251 653 q 163 656 215 656 l 119 653 l 121 686 l 151 693 l 161 732 l 183 886 q 188 940 188 911 l 168 940 q 131 938 153 940 q 126 928 129 931 l 118 896 l 85 897 l 100 975 l 110 985 q 160 981 151 981 l 307 981 l 357 985 l 365 975 l 357 897 l 325 896 q 326 913 326 900 z "},"℮":{"ha":1107,"x_min":56,"x_max":1079,"o":"m 250 432 q 243 426 243 432 l 243 175 q 256 146 243 161 q 576 11 382 11 q 899 163 769 11 l 974 163 q 796 31 903 79 q 568 -17 689 -17 q 206 118 357 -17 q 56 444 56 253 q 206 769 56 635 q 567 904 356 904 q 929 769 779 904 q 1079 443 1079 635 l 1079 432 l 250 432 m 893 717 q 879 747 893 733 q 568 876 750 876 q 257 743 386 876 q 243 711 243 729 l 243 464 q 250 457 243 457 l 886 457 q 893 464 893 457 l 893 717 z "},"∂":{"ha":767,"x_min":46,"x_max":718,"o":"m 496 467 q 381 478 429 478 q 234 401 290 478 q 178 240 178 325 q 213 109 178 154 q 319 64 249 64 q 445 125 389 64 q 531 281 501 186 q 589 651 589 465 q 435 919 589 919 q 357 911 386 919 q 301 894 328 903 q 267 883 274 885 l 250 942 q 446 1000 361 1000 q 653 900 588 1000 q 718 636 718 800 q 622 200 718 393 q 492 44 575 103 q 300 -15 410 -15 q 118 52 190 -15 q 46 231 46 119 q 142 465 46 371 q 379 560 238 560 q 514 533 447 560 l 496 467 z "},"∏":{"ha":778,"x_min":29,"x_max":903,"o":"m 294 875 l 133 -317 l 29 -317 l 197 874 l 83 874 l 99 978 l 903 978 l 889 881 l 778 879 l 610 -317 l 513 -317 l 674 878 l 294 875 z "},"∑":{"ha":778,"x_min":-15,"x_max":790,"o":"m 593 339 l 128 -226 l 660 -219 l 646 -317 l -12 -317 l -15 -237 l 468 338 l 157 901 l 182 979 l 790 979 l 776 882 l 299 889 l 593 339 z "},"−":{"ha":778,"x_min":125,"x_max":743,"o":"m 729 310 l 125 303 l 139 408 l 743 408 l 729 310 z "},"√":{"ha":897,"x_min":65,"x_max":992,"o":"m 511 54 l 893 1001 l 992 972 l 528 -125 l 444 -125 l 342 588 l 76 517 l 65 619 l 433 713 l 446 617 l 444 617 l 511 54 z "},"∞":{"ha":1042,"x_min":86,"x_max":1024,"o":"m 544 368 q 426 237 486 282 q 276 192 367 192 q 136 255 186 192 q 86 414 86 318 q 161 641 86 540 q 354 742 236 742 q 565 564 493 742 q 683 695 624 650 q 833 740 743 740 q 974 677 924 740 q 1024 518 1024 614 q 949 291 1024 392 q 756 190 874 190 q 544 368 617 190 m 338 621 q 208 568 264 621 q 153 450 153 515 q 192 349 153 385 q 295 313 231 313 q 410 359 360 313 q 522 500 460 406 q 338 621 458 621 m 772 311 q 901 364 846 311 q 957 482 957 417 q 918 583 957 547 q 831 619 879 619 q 751 606 783 619 q 688 561 718 593 q 586 432 646 519 q 772 311 651 311 z "},"∫":{"ha":667,"x_min":38,"x_max":642,"o":"m 108 -326 q 38 -314 69 -326 l 63 -240 q 118 -250 89 -250 q 261 -89 238 -250 q 288 316 274 1 q 318 747 301 631 q 401 928 335 864 q 571 993 467 993 q 642 981 611 993 l 617 907 q 561 917 590 917 q 418 756 442 917 q 392 351 406 665 q 361 -81 378 36 q 278 -262 344 -197 q 108 -326 213 -326 z "},"≈":{"ha":778,"x_min":42,"x_max":721,"o":"m 633 420 q 607 397 633 420 q 544 374 581 374 q 389 415 507 374 q 244 457 271 457 q 142 400 197 457 l 124 381 l 74 426 q 163 520 110 476 q 247 564 217 564 q 412 522 299 564 q 551 481 525 481 q 653 543 596 481 l 671 564 l 721 518 q 633 420 686 467 m 601 177 q 575 154 601 177 q 512 131 549 131 q 357 172 475 131 q 211 214 239 214 q 111 156 168 214 l 92 138 l 42 183 q 131 277 78 233 q 215 321 185 321 q 380 279 267 321 q 519 238 493 238 q 619 300 564 238 l 639 321 l 689 275 q 601 177 654 224 z "},"≠":{"ha":778,"x_min":96,"x_max":750,"o":"m 414 260 l 711 264 l 700 165 l 357 165 l 239 -31 l 158 -7 l 263 165 l 96 165 l 107 257 l 319 258 l 422 429 l 132 426 l 146 525 l 479 525 l 592 711 l 672 688 l 574 525 l 750 525 l 736 433 l 517 431 l 414 260 z "},"≤":{"ha":778,"x_min":69,"x_max":701,"o":"m 81 92 l 688 99 l 674 0 l 69 0 l 81 92 m 175 465 l 650 792 l 701 707 l 340 465 l 636 224 l 561 139 l 175 465 z "},"≥":{"ha":778,"x_min":97,"x_max":715,"o":"m 108 92 l 715 99 l 701 0 l 97 0 l 108 92 m 708 465 l 233 139 l 182 224 l 543 465 l 247 707 l 322 792 l 708 465 z "},"◊":{"ha":778,"x_min":24,"x_max":751,"o":"m 446 792 l 751 394 l 331 3 l 24 394 l 446 792 m 353 153 l 614 396 l 424 642 l 161 396 l 353 153 z "},"ﬁ":{"ha":821,"x_min":-236,"x_max":763,"o":"m -193 -326 l -231 -325 l -236 -325 l -199 -226 q -138 -233 -192 -233 q -29 -215 -85 -233 q 39 -181 26 -197 q 112 103 74 -133 q 172 586 150 340 l 50 586 l 56 647 l 72 651 q 174 686 147 671 q 196 754 186 694 q 329 981 218 893 q 586 1069 440 1069 q 675 1045 633 1069 q 742 989 717 1021 q 763 930 763 971 q 737 855 763 889 q 672 821 711 821 q 608 890 608 821 q 631 965 608 929 q 531 978 571 978 q 437 960 492 978 q 368 924 382 943 q 300 664 333 878 l 561 664 l 700 700 l 732 672 q 631 97 685 501 l 754 90 l 750 40 l 522 -21 l 488 0 q 551 294 532 179 q 586 581 569 410 l 472 586 l 288 586 q 239 245 268 471 q 193 -53 210 19 q 54 -253 161 -181 q -193 -326 -53 -326 z "},"ﬂ":{"ha":808,"x_min":-236,"x_max":768,"o":"m -193 -326 l -231 -325 l -236 -325 l -199 -226 q -138 -233 -192 -233 q -29 -215 -85 -233 q 39 -181 26 -197 q 112 103 74 -133 q 172 586 150 340 l 50 586 l 56 647 l 72 651 q 174 686 147 671 q 196 754 186 694 q 329 981 218 893 q 586 1069 440 1069 l 736 1069 l 768 1042 q 618 97 660 431 l 742 90 l 738 40 l 513 -21 l 476 0 q 565 461 522 169 q 625 960 608 753 l 511 976 q 423 955 467 971 q 368 924 379 939 q 300 664 333 878 l 468 664 l 449 586 l 288 586 q 239 245 268 471 q 193 -53 210 19 q 54 -253 161 -181 q -193 -326 -53 -326 z "}}}
